<svg width="3116" height="3120" viewBox="0 0 3116 3120" fill="none" xmlns="http://www.w3.org/2000/svg">
<g clip-path="url(#clip0_244_41)">
<path d="M2146.95 883.891H2083.61V836.381C2083.61 745.163 2121.61 657.112 2188.75 594.4C2242.59 543.723 2273.62 472.776 2273.62 398.661V351.785H2336.96V399.295C2336.96 490.513 2298.96 578.563 2231.82 641.276C2177.98 691.953 2146.95 762.9 2146.95 837.015V883.891ZM1836.6 883.891H1773.26V836.381C1773.26 745.163 1811.26 657.112 1878.4 594.4C1932.24 543.723 1963.27 472.776 1963.27 398.661V351.785H2026.61V399.295C2026.61 490.513 1988.61 578.563 1921.47 641.276C1867.63 691.953 1836.6 762.9 1836.6 837.015V883.891ZM1526.25 883.891H1462.91V836.381C1462.91 745.163 1500.91 657.112 1568.05 594.4C1621.89 543.723 1652.92 472.776 1652.92 398.661V351.785H1716.26V399.295C1716.26 490.513 1678.26 578.563 1611.12 641.276C1557.28 691.953 1526.25 762.9 1526.25 837.015V883.891ZM595.199 1499.61C508.427 1499.61 438.124 1569.93 438.124 1656.71C438.124 1743.49 508.427 1813.81 595.199 1813.81C681.97 1813.81 752.274 1743.49 752.274 1656.71C752.274 1569.93 681.97 1499.61 595.199 1499.61ZM595.199 1750.46C543.262 1750.46 501.46 1708.65 501.46 1656.71C501.46 1604.77 543.262 1562.96 595.199 1562.96C647.135 1562.96 688.937 1604.77 688.937 1656.71C688.937 1708.65 647.135 1750.46 595.199 1750.46ZM1070.22 1289.94C1007.52 1289.94 956.851 1340.61 956.851 1403.33C956.851 1466.04 1007.52 1516.72 1070.22 1516.72C1132.93 1516.72 1183.6 1466.04 1183.6 1403.33C1183.6 1340.61 1132.93 1289.94 1070.22 1289.94ZM1070.22 1453.37C1042.36 1453.37 1020.19 1431.2 1020.19 1403.33C1020.19 1375.45 1042.36 1353.28 1070.22 1353.28C1098.09 1353.28 1120.26 1376.09 1120.26 1403.33C1120.26 1430.57 1098.09 1453.37 1070.22 1453.37ZM1120.89 1790.37C1058.19 1790.37 1007.52 1841.05 1007.52 1903.76C1007.52 1966.47 1058.19 2017.15 1120.89 2017.15C1183.6 2017.15 1234.27 1966.47 1234.27 1903.76C1234.27 1841.05 1183.6 1790.37 1120.89 1790.37ZM1120.89 1953.8C1093.03 1953.8 1070.86 1931.63 1070.86 1903.76C1070.86 1875.89 1093.03 1853.72 1120.89 1853.72C1148.76 1853.72 1170.93 1876.52 1170.93 1903.76C1170.93 1931 1148.76 1953.8 1120.89 1953.8ZM1214 2277.5H65.0703C80.9045 2150.81 189.21 2049.46 320.317 2049.46H959.385C1089.86 2049.46 1198.16 2150.81 1214 2277.5Z" fill="#A5793D"/>
<path d="M688.938 1656.71C688.938 1708.66 647.135 1750.46 595.199 1750.46C543.263 1750.46 501.461 1708.66 501.461 1656.71C501.461 1604.77 543.263 1562.96 595.199 1562.96C647.135 1562.96 688.938 1604.77 688.938 1656.71ZM1170.93 1903.76C1170.93 1931.63 1148.76 1953.8 1120.89 1953.8C1093.03 1953.8 1070.86 1931.63 1070.86 1903.76C1070.86 1875.89 1093.03 1853.72 1120.89 1853.72C1148.76 1853.72 1170.93 1875.89 1170.93 1903.76ZM1120.26 1403.33C1120.26 1431.2 1098.09 1453.37 1070.22 1453.37C1042.36 1453.37 1020.19 1431.2 1020.19 1403.33C1020.19 1375.46 1042.36 1353.29 1070.22 1353.29C1098.09 1353.29 1120.26 1375.46 1120.26 1403.33Z" fill="#A5793D"/>
<path d="M2770.82 1061.26H899.217C897.317 1061.26 895.417 1061.26 893.517 1061.89C884.65 1061.26 876.416 1061.26 867.549 1061.26C827.647 1061.26 788.378 1065.06 749.743 1072.03C453.327 1127.14 227.848 1388.12 227.848 1701.05C227.848 1801.14 251.283 1899.96 295.618 1988.64H296.252C303.852 1988.01 312.086 1986.11 319.686 1986.11H365.922C317.786 1901.86 291.818 1806.84 290.551 1709.29C290.551 1706.75 290.551 1703.59 290.551 1701.05C290.551 1695.98 290.551 1690.92 290.551 1685.85C297.519 1409.66 500.196 1180.98 764.943 1133.47C774.444 1131.57 802.946 1127.77 808.012 1127.77C817.513 1126.5 856.782 1124.6 866.916 1124.6C911.885 1124.6 954.954 1129.67 996.756 1139.17C1243.14 1196.18 1429.35 1411.56 1442.01 1671.28C1442.65 1680.78 1442.65 1690.92 1442.65 1701.05C1442.65 1711.82 1442.65 1721.96 1442.01 1732.72C1433.15 1892.99 1357.14 2043.12 1233.64 2145.74C1236.8 2152.07 1240.6 2159.04 1243.77 2165.38C1250.1 2178.05 1256.44 2191.98 1260.87 2205.92C1266.57 2221.75 1270.37 2238.22 1273.54 2255.33C1289.37 2263.56 1305.84 2271.16 1322.31 2278.13H2220.42C2285.02 2250.26 2346.46 2213.52 2401.56 2168.54C2532.67 2062.76 2625.78 1915.79 2666.31 1752.36H2770.18C2960.19 1752.36 3115.37 1597.8 3115.37 1407.13C3115.37 1216.46 2960.83 1061.26 2770.82 1061.26ZM2770.82 1561.69H2706.85L2770.82 1251.3C2856.32 1251.3 2925.99 1320.98 2925.99 1406.49C2925.99 1492.01 2856.32 1561.69 2770.82 1561.69ZM335.521 2644.91H2653.64C2828.45 2644.91 2970.33 2511.25 2989.33 2340.84H-0.164062C18.837 2511.25 161.345 2644.91 335.521 2644.91Z" fill="#A5793D"/>
</g>
<defs>
<clipPath id="clip0_244_41">
<rect width="3116" height="3120" fill="white"/>
</clipPath>
</defs>
</svg>
