<svg width="103" height="66" viewBox="0 0 103 66" fill="none" xmlns="http://www.w3.org/2000/svg">
<g clip-path="url(#clip0_187_179)">
<path d="M0.948153 12V1.09091H5.25213C6.07955 1.09091 6.78445 1.24893 7.36683 1.56499C7.94922 1.87749 8.39311 2.3125 8.69851 2.87003C9.00746 3.42401 9.16193 4.06321 9.16193 4.78764C9.16193 5.51207 9.00568 6.15128 8.69318 6.70526C8.38068 7.25923 7.92791 7.6907 7.33487 7.99964C6.74538 8.30859 6.03161 8.46307 5.19354 8.46307H2.45028V6.6147H4.82067C5.26456 6.6147 5.63033 6.53835 5.91797 6.38565C6.20916 6.2294 6.42578 6.01456 6.56783 5.74112C6.71342 5.46413 6.78622 5.14631 6.78622 4.78764C6.78622 4.42543 6.71342 4.10937 6.56783 3.83949C6.42578 3.56605 6.20916 3.35476 5.91797 3.20561C5.62678 3.05291 5.25746 2.97656 4.81001 2.97656H3.25462V12H0.948153ZM12.7308 12.1545C12.2088 12.1545 11.7436 12.0639 11.3352 11.8828C10.9268 11.6982 10.6037 11.4265 10.3658 11.0678C10.1314 10.7056 10.0142 10.2546 10.0142 9.71484C10.0142 9.2603 10.0977 8.87855 10.2646 8.5696C10.4315 8.26065 10.6587 8.01207 10.9464 7.82386C11.234 7.63565 11.5607 7.49361 11.9265 7.39773C12.2958 7.30185 12.6829 7.23438 13.0877 7.19531C13.5636 7.1456 13.9471 7.09943 14.2383 7.05682C14.5295 7.01065 14.7408 6.94318 14.8722 6.8544C15.0036 6.76562 15.0692 6.63423 15.0692 6.46023V6.42827C15.0692 6.09091 14.9627 5.8299 14.7496 5.64524C14.5401 5.46058 14.2418 5.36825 13.8548 5.36825C13.4464 5.36825 13.1214 5.45881 12.88 5.63991C12.6385 5.81747 12.4787 6.04119 12.4006 6.31108L10.3018 6.14062C10.4084 5.64347 10.6179 5.21378 10.9304 4.85156C11.2429 4.4858 11.646 4.20526 12.1396 4.00994C12.6367 3.81108 13.212 3.71165 13.8654 3.71165C14.32 3.71165 14.755 3.76491 15.1705 3.87145C15.5895 3.97798 15.9606 4.14311 16.2837 4.36683C16.6104 4.59055 16.8679 4.8782 17.0561 5.22976C17.2443 5.57777 17.3384 5.99503 17.3384 6.48153V12H15.1864V10.8654H15.1225C14.9911 11.1211 14.8153 11.3466 14.5952 11.5419C14.375 11.7337 14.1104 11.8846 13.8015 11.9947C13.4925 12.1012 13.1357 12.1545 12.7308 12.1545ZM13.3807 10.5884C13.7145 10.5884 14.0092 10.5227 14.2649 10.3913C14.5206 10.2564 14.7212 10.0753 14.8668 9.84801C15.0124 9.62074 15.0852 9.36328 15.0852 9.07564V8.20739C15.0142 8.25355 14.9165 8.29616 14.7923 8.33523C14.6715 8.37074 14.5348 8.40447 14.3821 8.43643C14.2294 8.46484 14.0767 8.49148 13.924 8.51634C13.7713 8.53764 13.6328 8.55717 13.5085 8.57493C13.2422 8.61399 13.0096 8.67614 12.8107 8.76136C12.6119 8.84659 12.4574 8.962 12.3473 9.1076C12.2372 9.24964 12.1822 9.4272 12.1822 9.64027C12.1822 9.94922 12.294 10.1854 12.5178 10.3487C12.745 10.5085 13.0327 10.5884 13.3807 10.5884ZM20.7129 12L18.4863 3.81818H20.7821L22.0499 9.31534H22.1245L23.4455 3.81818H25.6987L27.041 9.28338H27.1103L28.3567 3.81818H30.6472L28.426 12H26.0236L24.6174 6.8544H24.5162L23.1099 12H20.7129ZM38.6652 6.15128L36.5878 6.27912C36.5523 6.10156 36.4759 5.94176 36.3588 5.79972C36.2416 5.65412 36.0871 5.53871 35.8953 5.45348C35.7071 5.3647 35.4816 5.32031 35.2188 5.32031C34.8673 5.32031 34.5708 5.39489 34.3293 5.54403C34.0878 5.68963 33.9671 5.88494 33.9671 6.12997C33.9671 6.32528 34.0452 6.49041 34.2014 6.62536C34.3577 6.7603 34.6258 6.86861 35.0058 6.95028L36.4866 7.24858C37.282 7.41193 37.8751 7.67472 38.2657 8.03693C38.6563 8.39915 38.8517 8.875 38.8517 9.46449C38.8517 10.0007 38.6936 10.4712 38.3776 10.8761C38.0651 11.2809 37.6354 11.5969 37.0885 11.8242C36.5452 12.0479 35.9184 12.1598 35.2082 12.1598C34.1251 12.1598 33.2622 11.9343 32.6194 11.4833C31.9802 11.0288 31.6056 10.4109 31.4955 9.62962L33.7274 9.51243C33.7948 9.84268 33.9582 10.0948 34.2174 10.2688C34.4767 10.4393 34.8087 10.5245 35.2135 10.5245C35.6112 10.5245 35.9308 10.4482 36.1723 10.2955C36.4173 10.1392 36.5416 9.93857 36.5452 9.69354C36.5416 9.48757 36.4546 9.31889 36.2842 9.1875C36.1137 9.05256 35.8509 8.94957 35.4958 8.87855L34.0789 8.59624C33.2799 8.43643 32.6851 8.15945 32.2945 7.76527C31.9074 7.37109 31.7139 6.86861 31.7139 6.25781C31.7139 5.73224 31.8559 5.27947 32.14 4.8995C32.4276 4.51953 32.8307 4.22656 33.3492 4.0206C33.8712 3.81463 34.482 3.71165 35.1816 3.71165C36.2149 3.71165 37.0281 3.93004 37.6212 4.36683C38.2178 4.80362 38.5658 5.39844 38.6652 6.15128ZM46.0853 12.1545C45.5633 12.1545 45.0981 12.0639 44.6897 11.8828C44.2813 11.6982 43.9582 11.4265 43.7203 11.0678C43.4859 10.7056 43.3687 10.2546 43.3687 9.71484C43.3687 9.2603 43.4521 8.87855 43.6191 8.5696C43.786 8.26065 44.0132 8.01207 44.3009 7.82386C44.5885 7.63565 44.9152 7.49361 45.281 7.39773C45.6503 7.30185 46.0374 7.23438 46.4422 7.19531C46.9181 7.1456 47.3016 7.09943 47.5928 7.05682C47.884 7.01065 48.0953 6.94318 48.2267 6.8544C48.358 6.76562 48.4237 6.63423 48.4237 6.46023V6.42827C48.4237 6.09091 48.3172 5.8299 48.1041 5.64524C47.8946 5.46058 47.5963 5.36825 47.2093 5.36825C46.8009 5.36825 46.4759 5.45881 46.2345 5.63991C45.993 5.81747 45.8332 6.04119 45.7551 6.31108L43.6563 6.14062C43.7629 5.64347 43.9724 5.21378 44.2849 4.85156C44.5974 4.4858 45.0004 4.20526 45.4941 4.00994C45.9912 3.81108 46.5665 3.71165 47.2199 3.71165C47.6744 3.71165 48.1095 3.76491 48.5249 3.87145C48.944 3.97798 49.3151 4.14311 49.6382 4.36683C49.9649 4.59055 50.2224 4.8782 50.4106 5.22976C50.5988 5.57777 50.6929 5.99503 50.6929 6.48153V12H48.5409V10.8654H48.477C48.3456 11.1211 48.1698 11.3466 47.9497 11.5419C47.7295 11.7337 47.4649 11.8846 47.156 11.9947C46.847 12.1012 46.4901 12.1545 46.0853 12.1545ZM46.7352 10.5884C47.069 10.5884 47.3637 10.5227 47.6194 10.3913C47.8751 10.2564 48.0757 10.0753 48.2213 9.84801C48.3669 9.62074 48.4397 9.36328 48.4397 9.07564V8.20739C48.3687 8.25355 48.271 8.29616 48.1468 8.33523C48.026 8.37074 47.8893 8.40447 47.7366 8.43643C47.5839 8.46484 47.4312 8.49148 47.2785 8.51634C47.1258 8.53764 46.9873 8.55717 46.863 8.57493C46.5967 8.61399 46.3641 8.67614 46.1652 8.76136C45.9664 8.84659 45.8119 8.962 45.7018 9.1076C45.5917 9.24964 45.5367 9.4272 45.5367 9.64027C45.5367 9.94922 45.6485 10.1854 45.8722 10.3487C46.0995 10.5085 46.3872 10.5884 46.7352 10.5884ZM52.4534 12V3.81818H54.6533V5.24574H54.7385C54.8877 4.73793 55.1381 4.3544 55.4896 4.09517C55.8412 3.83239 56.246 3.70099 56.7041 3.70099C56.8177 3.70099 56.9403 3.7081 57.0716 3.7223C57.203 3.73651 57.3184 3.75604 57.4179 3.78089V5.79439C57.3113 5.76243 57.164 5.73402 56.9758 5.70916C56.7876 5.6843 56.6153 5.67188 56.4591 5.67188C56.1253 5.67188 55.827 5.74467 55.5642 5.89027C55.305 6.03232 55.099 6.23118 54.9463 6.48686C54.7971 6.74254 54.7226 7.03729 54.7226 7.37109V12H52.4534ZM61.9389 12.1598C61.0973 12.1598 60.3729 11.9893 59.7656 11.6484C59.1619 11.304 58.6967 10.8175 58.37 10.1889C58.0433 9.55682 57.88 8.8093 57.88 7.94638C57.88 7.10476 58.0433 6.36612 58.37 5.73047C58.6967 5.09482 59.1566 4.59943 59.7496 4.24432C60.3462 3.8892 61.0458 3.71165 61.8484 3.71165C62.3881 3.71165 62.8906 3.79865 63.3558 3.97266C63.8246 4.14311 64.233 4.40057 64.581 4.74503C64.9325 5.08949 65.206 5.52273 65.4013 6.04474C65.5966 6.56321 65.6942 7.17045 65.6942 7.86648V8.4897H58.7855V7.08345H63.5582C63.5582 6.75675 63.4872 6.46733 63.3452 6.2152C63.2031 5.96307 63.006 5.76598 62.7539 5.62393C62.5053 5.47834 62.2159 5.40554 61.8857 5.40554C61.5412 5.40554 61.2358 5.48544 60.9695 5.64524C60.7067 5.80149 60.5007 6.01278 60.3516 6.27912C60.2024 6.5419 60.1261 6.83487 60.1225 7.15803V8.49503C60.1225 8.89986 60.1971 9.24964 60.3462 9.54439C60.4989 9.83913 60.7138 10.0664 60.9908 10.2262C61.2678 10.386 61.5962 10.4659 61.9762 10.4659C62.2283 10.4659 62.4592 10.4304 62.6687 10.3594C62.8782 10.2884 63.0575 10.1818 63.2067 10.0398C63.3558 9.89773 63.4695 9.72372 63.5476 9.51776L65.6463 9.65625C65.5398 10.1605 65.3214 10.6009 64.9911 10.9773C64.6644 11.3501 64.2418 11.6413 63.7234 11.8509C63.2085 12.0568 62.6136 12.1598 61.9389 12.1598ZM72.9159 7.26989V12H70.6468V1.09091H72.852V5.26172H72.9479C73.1325 4.77876 73.4308 4.40057 73.8428 4.12713C74.2547 3.85014 74.7714 3.71165 75.3928 3.71165C75.961 3.71165 76.4564 3.83594 76.879 4.08452C77.3051 4.32955 77.6354 4.68288 77.8698 5.14453C78.1077 5.60263 78.2249 6.15128 78.2213 6.79048V12H75.9521V7.19531C75.9557 6.69105 75.8279 6.29865 75.5686 6.01811C75.3129 5.73757 74.9543 5.5973 74.4926 5.5973C74.1837 5.5973 73.9102 5.663 73.6723 5.79439C73.4379 5.92578 73.2533 6.11754 73.1183 6.36967C72.9869 6.61825 72.9195 6.91832 72.9159 7.26989ZM83.7358 12.1598C82.8942 12.1598 82.1697 11.9893 81.5625 11.6484C80.9588 11.304 80.4936 10.8175 80.1669 10.1889C79.8402 9.55682 79.6768 8.8093 79.6768 7.94638C79.6768 7.10476 79.8402 6.36612 80.1669 5.73047C80.4936 5.09482 80.9535 4.59943 81.5465 4.24432C82.1431 3.8892 82.8427 3.71165 83.6452 3.71165C84.185 3.71165 84.6875 3.79865 85.1527 3.97266C85.6214 4.14311 86.0298 4.40057 86.3778 4.74503C86.7294 5.08949 87.0028 5.52273 87.1982 6.04474C87.3935 6.56321 87.4911 7.17045 87.4911 7.86648V8.4897H80.5824V7.08345H85.3551C85.3551 6.75675 85.2841 6.46733 85.142 6.2152C85 5.96307 84.8029 5.76598 84.5508 5.62393C84.3022 5.47834 84.0128 5.40554 83.6825 5.40554C83.3381 5.40554 83.0327 5.48544 82.7663 5.64524C82.5036 5.80149 82.2976 6.01278 82.1484 6.27912C81.9993 6.5419 81.9229 6.83487 81.9194 7.15803V8.49503C81.9194 8.89986 81.994 9.24964 82.1431 9.54439C82.2958 9.83913 82.5107 10.0664 82.7876 10.2262C83.0646 10.386 83.3931 10.4659 83.7731 10.4659C84.0252 10.4659 84.256 10.4304 84.4656 10.3594C84.6751 10.2884 84.8544 10.1818 85.0036 10.0398C85.1527 9.89773 85.2663 9.72372 85.3445 9.51776L87.4432 9.65625C87.3366 10.1605 87.1183 10.6009 86.788 10.9773C86.4613 11.3501 86.0387 11.6413 85.5202 11.8509C85.0053 12.0568 84.4105 12.1598 83.7358 12.1598ZM88.9719 12V3.81818H91.1719V5.24574H91.2571C91.4063 4.73793 91.6566 4.3544 92.0082 4.09517C92.3597 3.83239 92.7646 3.70099 93.2227 3.70099C93.3363 3.70099 93.4588 3.7081 93.5902 3.7223C93.7216 3.73651 93.837 3.75604 93.9364 3.78089V5.79439C93.8299 5.76243 93.6825 5.73402 93.4943 5.70916C93.3061 5.6843 93.1339 5.67188 92.9776 5.67188C92.6438 5.67188 92.3455 5.74467 92.0827 5.89027C91.8235 6.03232 91.6175 6.23118 91.4648 6.48686C91.3157 6.74254 91.2411 7.03729 91.2411 7.37109V12H88.9719ZM98.4575 12.1598C97.6159 12.1598 96.8914 11.9893 96.2842 11.6484C95.6805 11.304 95.2153 10.8175 94.8886 10.1889C94.5619 9.55682 94.3985 8.8093 94.3985 7.94638C94.3985 7.10476 94.5619 6.36612 94.8886 5.73047C95.2153 5.09482 95.6752 4.59943 96.2682 4.24432C96.8648 3.8892 97.5644 3.71165 98.3669 3.71165C98.9067 3.71165 99.4092 3.79865 99.8744 3.97266C100.343 4.14311 100.752 4.40057 101.1 4.74503C101.451 5.08949 101.725 5.52273 101.92 6.04474C102.115 6.56321 102.213 7.17045 102.213 7.86648V8.4897H95.3041V7.08345H100.077C100.077 6.75675 100.006 6.46733 99.8637 6.2152C99.7217 5.96307 99.5246 5.76598 99.2725 5.62393C99.0239 5.47834 98.7345 5.40554 98.4042 5.40554C98.0597 5.40554 97.7544 5.48544 97.488 5.64524C97.2252 5.80149 97.0193 6.01278 96.8701 6.27912C96.721 6.5419 96.6446 6.83487 96.6411 7.15803V8.49503C96.6411 8.89986 96.7156 9.24964 96.8648 9.54439C97.0175 9.83913 97.2323 10.0664 97.5093 10.2262C97.7863 10.386 98.1148 10.4659 98.4948 10.4659C98.7469 10.4659 98.9777 10.4304 99.1872 10.3594C99.3968 10.2884 99.5761 10.1818 99.7252 10.0398C99.8744 9.89773 99.988 9.72372 100.066 9.51776L102.165 9.65625C102.058 10.1605 101.84 10.6009 101.51 10.9773C101.183 11.3501 100.76 11.6413 100.242 11.8509C99.727 12.0568 99.1322 12.1598 98.4575 12.1598Z" fill="black"/>
<g clip-path="url(#clip1_187_179)">
<mask id="mask0_187_179" style="mask-type:luminance" maskUnits="userSpaceOnUse" x="70" y="20" width="24" height="24">
<path d="M70 20H94V44H70V20Z" fill="white"/>
</mask>
<g mask="url(#mask0_187_179)">
<path d="M91.4731 31.3685C92.1502 27.526 92.2702 21.8645 91.4731 21.3492C90.6761 20.8344 85.1119 22.7494 83.9485 25.3047C83.3138 25.1361 81.9995 25.0527 81.9995 25.0527C81.9995 25.0527 80.7275 25.1361 80.0934 25.3047C78.93 22.7494 73.3222 20.8344 72.5258 21.3492C71.7287 21.8645 71.8475 27.526 72.5258 31.3685C72.5258 31.3685 71.915 32.6184 71.915 37.0212L82.0203 34.5157V33.987L92.1256 37.042C92.1256 32.6184 91.4731 31.3685 91.4731 31.3685Z" fill="#CCDADD"/>
<path d="M85.7548 32.809C84.438 32.809 83.0561 33.1103 82.0203 33.6181C80.9851 33.1103 79.6033 32.809 78.2864 32.809C72.0136 32.809 71.915 36.0301 71.915 37.0179C71.915 38.0025 73.1574 43.3545 81.9995 43.3545C90.8416 43.3545 92.1256 38.0233 92.1256 37.0387C92.1256 36.0509 92.027 32.809 85.7548 32.809Z" fill="#11A9D0"/>
<path d="M85.5003 25.7479C86.9144 24.2162 89.8539 23.0662 90.4574 23.2121C90.9474 23.3284 90.8711 27.317 90.4782 29.5996C88.808 26.8677 85.5003 25.7479 85.5003 25.7479ZM78.4978 25.7479C77.085 24.2162 74.1448 23.0662 73.5421 23.2121C73.0507 23.3284 73.127 27.317 73.5212 29.5996C75.1914 26.8677 78.4978 25.7479 78.4978 25.7479Z" fill="#272A2B"/>
<path d="M80.1174 31.3671C80.1174 32.065 79.5464 32.6302 78.8416 32.6302C78.505 32.6317 78.1816 32.4995 77.9425 32.2626C77.7033 32.0258 77.5681 31.7036 77.5664 31.3671C77.5664 30.6698 78.1374 30.1052 78.8416 30.1052C79.5464 30.1052 80.1174 30.6698 80.1174 31.3671ZM86.4458 31.3677C86.4458 32.0656 85.8748 32.6308 85.17 32.6308C84.8334 32.6324 84.51 32.5001 84.2709 32.2633C84.0318 32.0264 83.8965 31.7043 83.8948 31.3677C83.8948 30.6704 84.4658 30.1058 85.17 30.1058C85.8748 30.1058 86.4458 30.6704 86.4458 31.3677Z" fill="#2E2E2E"/>
<path d="M82.0124 38.8672C81.8449 38.8672 81.6843 38.8006 81.5658 38.6822C81.4474 38.5638 81.3809 38.4031 81.3809 38.2356V36.4198C81.3809 36.2523 81.4474 36.0917 81.5658 35.9732C81.6843 35.8548 81.8449 35.7882 82.0124 35.7882C82.1799 35.7882 82.3406 35.8548 82.459 35.9732C82.5775 36.0917 82.644 36.2523 82.644 36.4198V38.2356C82.644 38.4031 82.5775 38.5638 82.459 38.6822C82.3406 38.8006 82.1799 38.8672 82.0124 38.8672Z" fill="#272A2B"/>
<path d="M84.5709 40.2627C82.0433 40.2627 81.4402 38.5189 81.4124 38.4336C81.3865 38.3548 81.3764 38.2716 81.3827 38.1889C81.389 38.1062 81.4116 38.0255 81.4491 37.9515C81.4867 37.8775 81.5385 37.8116 81.6015 37.7577C81.6646 37.7038 81.7377 37.6628 81.8166 37.6372C81.9741 37.5852 82.1457 37.5974 82.2942 37.6712C82.4428 37.745 82.5562 37.8744 82.6099 38.0313C82.637 38.1046 83.1631 39.381 85.6655 38.8808C85.7469 38.8641 85.8308 38.8637 85.9123 38.8796C85.9939 38.8955 86.0715 38.9274 86.1406 38.9736C86.2097 39.0197 86.269 39.079 86.3151 39.1482C86.3611 39.2174 86.393 39.295 86.4088 39.3766C86.4251 39.4579 86.4252 39.5416 86.4092 39.6229C86.3931 39.7042 86.3611 39.7816 86.3152 39.8506C86.2692 39.9195 86.21 39.9788 86.1412 40.0249C86.0723 40.071 85.995 40.1031 85.9137 40.1193C85.4719 40.2115 85.0222 40.2596 84.5709 40.2627Z" fill="#272A2B"/>
<path d="M79.4299 40.2627C79.0308 40.2627 78.5855 40.2197 78.0866 40.1193C78.0053 40.1031 77.928 40.071 77.8591 40.0249C77.7902 39.9788 77.7311 39.9195 77.6851 39.8506C77.6391 39.7816 77.6071 39.7042 77.5911 39.6229C77.575 39.5416 77.5751 39.4579 77.5914 39.3766C77.6072 39.295 77.639 39.2173 77.685 39.1481C77.731 39.0789 77.7903 39.0195 77.8595 38.9733C77.9286 38.9272 78.0062 38.8953 78.0878 38.8794C78.1694 38.8635 78.2534 38.864 78.3348 38.8808C80.8624 39.3848 81.3967 38.0787 81.4181 38.0225C81.4776 37.8674 81.5952 37.7417 81.746 37.672C81.8967 37.6023 82.0686 37.5941 82.2253 37.6492C82.3804 37.7041 82.5077 37.8178 82.5798 37.9657C82.6519 38.1136 82.6629 38.284 82.6106 38.44C82.5815 38.5259 81.9575 40.2627 79.4299 40.2627Z" fill="#272A2B"/>
<path d="M84.5392 34.2682C84.5392 35.3785 82.508 36.7812 82.0002 36.7812C81.4937 36.7812 79.4619 35.3785 79.4619 34.2682C79.4619 33.1566 80.8792 33.2627 82.0002 33.2627C83.1219 33.2627 84.5392 33.1566 84.5392 34.2682Z" fill="#2E2E2E"/>
<path d="M92.1188 40.7998C92.0291 40.7999 91.9403 40.7808 91.8586 40.7439C91.7768 40.707 91.7038 40.653 91.6445 40.5857C91.6255 40.5636 89.6354 38.3739 85.0697 37.6653C84.9867 37.6538 84.9067 37.626 84.8345 37.5833C84.7624 37.5406 84.6994 37.484 84.6493 37.4167C84.5993 37.3494 84.5631 37.2729 84.5429 37.1915C84.5228 37.1101 84.519 37.0255 84.5319 36.9427C84.5448 36.8598 84.574 36.7803 84.6179 36.7089C84.6618 36.6375 84.7195 36.5755 84.7876 36.5266C84.8558 36.4777 84.9329 36.4428 85.0146 36.4241C85.0964 36.4053 85.181 36.403 85.2636 36.4173C85.49 36.4522 85.7158 36.4913 85.9407 36.5348C90.5146 37.4215 92.5085 39.6548 92.595 39.7533C92.6744 39.8448 92.7258 39.9571 92.7432 40.077C92.7605 40.1969 92.7431 40.3192 92.6929 40.4294C92.6427 40.5397 92.562 40.6332 92.4602 40.6989C92.3584 40.7645 92.2399 40.7996 92.1188 40.7998Z" fill="#272A2B"/>
<path d="M85.1663 37.6722C85.0185 37.6715 84.8757 37.619 84.7626 37.5238C84.6495 37.4287 84.5733 37.2969 84.5473 37.1514C84.5212 37.006 84.547 36.856 84.62 36.7275C84.6931 36.599 84.8088 36.5002 84.9472 36.4482C88.4063 35.1699 92.6278 36.3289 92.811 36.3794C92.9724 36.4242 93.1095 36.5313 93.192 36.6772C93.2745 36.823 93.2957 36.9957 93.2509 37.1572C93.2061 37.3186 93.0989 37.4557 92.9531 37.5382C92.8072 37.6207 92.6345 37.6419 92.4731 37.5971C92.4327 37.5857 88.4575 36.4988 85.3855 37.6331C85.3153 37.6589 85.2411 37.6721 85.1663 37.6722ZM71.8868 40.7998C71.9765 40.7999 72.0652 40.7808 72.147 40.7439C72.2288 40.707 72.3018 40.653 72.3611 40.5857C72.38 40.5636 74.3701 38.3739 78.9358 37.6653C79.0189 37.6538 79.0988 37.626 79.171 37.5833C79.2432 37.5406 79.3061 37.484 79.3562 37.4167C79.4063 37.3494 79.4424 37.2729 79.4626 37.1915C79.4828 37.1101 79.4865 37.0255 79.4736 36.9427C79.4608 36.8598 79.4315 36.7803 79.3876 36.7089C79.3437 36.6375 79.286 36.5755 79.2179 36.5266C79.1498 36.4777 79.0726 36.4428 78.9909 36.4241C78.9092 36.4053 78.8245 36.403 78.7419 36.4173C78.5155 36.4522 78.2898 36.4913 78.0649 36.5348C73.491 37.4215 71.4971 39.6548 71.4105 39.7533C71.3312 39.8448 71.2797 39.9571 71.2624 40.077C71.245 40.1969 71.2625 40.3192 71.3126 40.4294C71.3628 40.5397 71.4436 40.6332 71.5454 40.6989C71.6471 40.7645 71.7656 40.7996 71.8868 40.7998Z" fill="#272A2B"/>
<path d="M78.84 37.6729C78.9877 37.6721 79.1306 37.6196 79.2437 37.5244C79.3568 37.4293 79.433 37.2976 79.459 37.1521C79.4851 37.0066 79.4593 36.8566 79.3863 36.7281C79.3132 36.5997 79.1975 36.5008 79.0591 36.4489C75.6 35.1705 71.3785 36.3295 71.1953 36.38C71.0338 36.4248 70.8968 36.5319 70.8143 36.6778C70.7318 36.8237 70.7106 36.9963 70.7554 37.1578C70.8002 37.3193 70.9074 37.4563 71.0532 37.5388C71.1991 37.6213 71.3717 37.6425 71.5332 37.5977C71.5736 37.5863 75.5488 36.4994 78.6208 37.6337C78.691 37.6595 78.7652 37.6727 78.84 37.6729Z" fill="#272A2B"/>
</g>
</g>
<g clip-path="url(#clip2_187_179)">
<mask id="mask1_187_179" style="mask-type:luminance" maskUnits="userSpaceOnUse" x="4" y="21" width="24" height="24">
<path d="M4 21H28V45H4V21Z" fill="white"/>
</mask>
<g mask="url(#mask1_187_179)">
<path d="M14.1064 40.5787V42.4734C14.1064 42.4734 14.1064 44.3682 16.0012 44.3682C17.8959 44.3682 17.8959 42.4734 17.8959 42.4734V40.5787H14.1064Z" fill="#2EB9DD"/>
<path d="M13.4739 22.8953C13.4998 21.0006 4.63184 21.6321 4.63184 27.9479C4.63184 30.4743 4.63184 36.79 6.52657 36.79C9.05289 36.79 13.4392 25.4216 13.4739 22.8953ZM18.5266 22.8953C18.5007 21.0006 27.3687 21.6321 27.3687 27.9479C27.3687 30.4743 27.3687 36.79 25.4739 36.79C22.9476 36.79 18.5613 25.4216 18.5266 22.8953Z" fill="#272A2B"/>
<path d="M24.2111 35.5252C24.2111 39.9463 21.6848 39.9463 21.6848 39.9463H10.3164C10.3164 39.9463 7.79004 39.9463 7.79004 35.5252C7.79004 35.5252 8.42162 21.6305 16.0006 21.6305C23.5795 21.6305 24.2111 35.5252 24.2111 35.5252Z" fill="#CCDADD"/>
<path d="M19.1574 35.5417V35.5259H12.8416V35.5417C12.2605 35.5943 11.702 35.7924 11.2176 36.1179C10.7333 36.4434 10.3388 36.8856 10.0705 37.4038C9.8022 37.922 9.66881 38.4994 9.68261 39.0828C9.69642 39.6661 9.85699 40.2366 10.1495 40.7415C10.442 41.2464 10.857 41.6695 11.3562 41.9717C11.8554 42.2739 12.4226 42.4454 13.0056 42.4704C13.5886 42.4955 14.1685 42.3732 14.6918 42.115C15.215 41.8567 15.6648 41.4708 15.9995 40.9928C16.3192 41.45 16.7445 41.8233 17.2393 42.0811C17.7341 42.3388 18.2837 42.4733 18.8416 42.4732C19.733 42.4695 20.5888 42.1232 21.232 41.506C21.8751 40.8889 22.2564 40.0481 22.297 39.1577C22.3376 38.2672 22.0343 37.3953 21.4499 36.7222C20.8655 36.0491 20.0447 35.6265 19.1574 35.5417Z" fill="#11A9D0"/>
<path d="M11.5791 31.7365C11.5791 31.7365 11.5791 30.4733 12.8423 30.4733C14.1054 30.4733 14.1054 31.7365 14.1054 31.7365V32.9996C14.1054 32.9996 14.1054 34.2628 12.8423 34.2628C11.5791 34.2628 11.5791 32.9996 11.5791 32.9996V31.7365ZM17.8949 31.7365C17.8949 31.7365 17.8949 30.4733 19.158 30.4733C20.4212 30.4733 20.4212 31.7365 20.4212 31.7365V32.9996C20.4212 32.9996 20.4212 34.2628 19.158 34.2628C17.8949 34.2628 17.8949 32.9996 17.8949 32.9996V31.7365ZM14.1054 36.7891C13.4738 37.4207 15.3686 39.3154 16.0002 39.3154C16.6317 39.3154 18.5265 37.4207 17.8949 36.7891C17.2633 36.1575 14.737 36.1575 14.1054 36.7891Z" fill="#272A2B"/>
</g>
</g>
</g>
<path d="M59 26C59 21.0365 54.9635 17 50 17C45.0365 17 41 21.0365 41 26C41 30.71 44.6375 34.58 49.25 34.9625V52.25C49.25 52.4489 49.329 52.6397 49.4697 52.7803C49.6103 52.921 49.8011 53 50 53C50.1989 53 50.3897 52.921 50.5303 52.7803C50.671 52.6397 50.75 52.4489 50.75 52.25V34.9625C55.3625 34.5785 59 30.71 59 26Z" fill="#423030"/>
<path d="M50 33.5C54.1421 33.5 57.5 30.1421 57.5 26C57.5 21.8579 54.1421 18.5 50 18.5C45.8579 18.5 42.5 21.8579 42.5 26C42.5 30.1421 45.8579 33.5 50 33.5Z" fill="#FF2F2F"/>
<path opacity="0.1" d="M55.1558 20.5801C55.1933 20.8846 55.2488 21.1846 55.2488 21.4996C55.2488 25.6351 51.8843 28.9996 47.7488 28.9996C45.8259 28.9968 43.9783 28.2515 42.5918 26.9191C43.0508 30.6166 46.1783 33.4996 49.9988 33.4996C54.1343 33.4996 57.4988 30.1351 57.4988 25.9996C57.4974 24.9844 57.2889 23.9801 56.8861 23.0483C56.4832 22.1164 55.8944 21.2765 55.1558 20.5801Z" fill="black"/>
<path d="M59 26C59 21.0365 54.9635 17 50 17C45.0365 17 41 21.0365 41 26C41 30.71 44.6375 34.58 49.25 34.9625V52.25C49.25 52.4489 49.329 52.6397 49.4697 52.7803C49.6103 52.921 49.8011 53 50 53C50.1989 53 50.3897 52.921 50.5303 52.7803C50.671 52.6397 50.75 52.4489 50.75 52.25V34.9625C55.3625 34.5785 59 30.71 59 26Z" fill="url(#paint0_linear_187_179)"/>
<g filter="url(#filter0_f_187_179)">
<ellipse cx="50" cy="59" rx="6" ry="3" fill="#5F5F5F"/>
</g>
<defs>
<filter id="filter0_f_187_179" x="40" y="52" width="20" height="14" filterUnits="userSpaceOnUse" color-interpolation-filters="sRGB">
<feFlood flood-opacity="0" result="BackgroundImageFix"/>
<feBlend mode="normal" in="SourceGraphic" in2="BackgroundImageFix" result="shape"/>
<feGaussianBlur stdDeviation="2" result="effect1_foregroundBlur_187_179"/>
</filter>
<linearGradient id="paint0_linear_187_179" x1="38.5595" y1="29.2385" x2="57.4505" y2="38.048" gradientUnits="userSpaceOnUse">
<stop stop-color="#66CCFF" stop-opacity="0.2"/>
<stop offset="1" stop-color="#66CCFF" stop-opacity="0"/>
</linearGradient>
<clipPath id="clip0_187_179">
<rect width="103" height="64" fill="white"/>
</clipPath>
<clipPath id="clip1_187_179">
<rect width="24" height="24" fill="white" transform="translate(70 20)"/>
</clipPath>
<clipPath id="clip2_187_179">
<rect width="24" height="24" fill="white" transform="translate(4 21)"/>
</clipPath>
</defs>
</svg>
