<svg width="502" height="502" viewBox="0 0 502 502" fill="none" xmlns="http://www.w3.org/2000/svg">
<rect x="295" y="264" width="146" height="162" fill="white"/>
<path d="M414.191 151.741V168.251H443.001V146.885C443.001 129.324 428.758 115 411.115 115H333.424V143.81H406.26C410.63 143.729 414.191 147.29 414.191 151.741ZM171.324 89.9926H305.503C315.62 89.9926 323.874 81.7379 323.874 71.6218V61.263V8.09286C323.874 3.64179 320.232 0 315.781 0C311.33 0 307.689 3.64179 307.689 8.09286V61.182H298.058V8.09286C298.058 3.64179 294.416 0 289.965 0C285.514 0 281.872 3.64179 281.872 8.09286V61.182H272.242V8.09286C272.242 3.64179 268.6 0 264.149 0C259.698 0 256.056 3.64179 256.056 8.09286V61.182H246.426V8.09286C246.426 3.64179 242.784 0 238.333 0C233.882 0 230.24 3.64179 230.24 8.09286V61.182H220.609V8.09286C220.609 3.64179 216.968 0 212.517 0C208.065 0 204.424 3.64179 204.424 8.09286V61.182H194.793V8.09286C194.793 3.64179 191.151 0 186.7 0C182.249 0 178.607 3.64179 178.607 8.09286V61.182H168.977V8.09286C168.977 3.64179 165.335 0 160.884 0C156.433 0 152.791 3.64179 152.791 8.09286V61.182V71.6218C152.953 81.8188 161.127 89.9926 171.324 89.9926ZM485.893 454.657H381.414C372.593 454.657 365.472 461.779 365.472 470.6V486.057C365.472 494.878 372.593 502 381.414 502H485.893C494.714 502 501.836 494.878 501.836 486.057V470.6C501.836 461.779 494.714 454.657 485.893 454.657ZM148.502 401.001C147.531 424.147 143.808 451.42 132.478 466.391C132.478 466.391 99.7021 477.074 102.049 501.919H132.478C132.478 501.919 152.225 483.791 166.954 452.31C165.254 438.228 160.641 419.21 148.502 401.001Z" fill="#4F975E"/>
<path d="M143.81 213.733C141.463 219.155 138.469 224.011 134.827 227.976C128.596 234.531 120.988 238.173 113.381 238.173C112.086 238.173 110.71 238.092 109.415 237.85C91.9349 234.936 81.3332 213.895 85.3797 189.94C86.9173 180.714 90.4782 172.297 95.5767 165.58C98.3282 162.019 103.346 161.372 106.907 164.124C110.468 166.875 111.115 171.893 108.363 175.454C104.883 179.986 102.375 186.055 101.242 192.61C98.571 208.392 104.803 220.693 112.005 221.907C116.78 222.716 120.826 219.155 122.931 216.889C127.301 212.276 130.457 205.316 131.752 197.709C132.642 192.206 132.561 186.703 131.428 181.847C131.347 181.442 131.428 181.038 131.347 180.633C121.717 154.655 108.202 151.175 108.202 151.175C71.6218 134.747 36.5797 170.841 36.5797 170.841H0V179.905C0 204.831 20.2321 224.982 45.0772 224.982C101.323 236.636 111.439 296.118 111.439 296.118C113.543 343.38 151.741 378.908 151.741 378.908C189.939 421.881 183.546 475.456 183.546 475.456C165.499 477.56 163.88 502 163.88 502H199.975C213.247 473.352 213.732 378.342 213.732 378.342C225.386 378.503 241.976 376.076 258.971 372.677V281.794C258.971 274.834 260.104 268.117 262.209 261.885C186.54 259.781 155.868 232.023 143.81 213.733ZM63.8527 186.298C59.4825 186.298 56.0026 182.737 56.0026 178.448C56.0026 174.159 59.5634 170.598 63.8527 170.598C68.2228 170.598 71.7027 174.159 71.7027 178.448C71.7027 182.737 68.2228 186.298 63.8527 186.298ZM255.33 106.179H221.582L211.305 188.24C209.281 204.588 221.987 218.993 238.497 218.993C254.925 218.993 267.712 204.588 265.689 188.24L255.33 106.179ZM321.61 217.86C322.096 217.86 322.581 217.779 323.148 217.779H411.441C411.927 217.779 412.412 217.86 412.979 217.86V211.467C412.979 202.646 405.857 195.524 397.036 195.524H337.553C328.732 195.524 321.61 202.646 321.61 211.467V217.86Z" fill="#4F975E"/>
<path d="M381.659 159.915H352.849V179.419H381.659V159.915Z" fill="#4F975E"/>
<path d="M381.417 438.391H459.189V281.794C459.189 255.411 437.824 234.046 411.441 234.046H323.148C296.766 234.046 275.4 255.411 275.4 281.794V470.034C275.4 487.595 289.644 501.92 307.286 501.92H353.739C350.988 497.226 349.369 491.803 349.369 485.977V470.519C349.288 452.877 363.693 438.391 381.417 438.391ZM414.598 308.015C420.505 304.616 428.113 306.639 431.593 312.547C434.992 318.454 432.968 326.062 427.061 329.542C421.153 332.941 413.545 330.917 410.066 325.01C406.667 319.102 408.69 311.495 414.598 308.015ZM377.937 280.499C381.336 274.591 388.943 272.487 394.932 275.967C400.84 279.366 402.944 286.973 399.464 292.962C396.065 298.87 388.458 300.974 382.469 297.494C376.561 294.014 374.538 286.407 377.937 280.499ZM339.577 275.967C345.485 272.568 353.092 274.591 356.572 280.499C359.971 286.407 357.948 294.014 352.04 297.494C346.132 300.893 338.525 298.87 335.045 292.962C331.646 286.973 333.669 279.366 339.577 275.967ZM302.916 312.628C306.315 306.72 313.922 304.616 319.911 308.096C325.9 311.576 327.923 319.102 324.443 325.091C321.044 330.998 313.437 333.103 307.448 329.623C301.54 326.143 299.517 318.535 302.916 312.628ZM339.253 413.303C326.224 411.603 315.622 401.002 313.922 387.972C312.304 375.347 318.616 363.936 328.651 358.271C334.316 355.034 338.039 349.207 337.715 342.733C337.715 342.328 337.715 341.843 337.715 341.357C337.715 323.067 354.306 308.662 373.324 312.304C384.573 314.489 393.718 323.472 396.227 334.64C396.874 337.473 397.117 340.224 396.955 342.895C396.631 349.369 400.435 355.034 406.019 358.19C415.973 363.855 422.367 375.266 420.748 387.891C419.049 400.921 408.447 411.522 395.417 413.222C388.215 414.193 381.417 412.493 375.914 409.094C370.734 405.938 364.017 405.938 358.919 409.094C353.254 412.574 346.456 414.274 339.253 413.303Z" fill="#4F975E"/>
</svg>
