<svg width="2601" height="2718" viewBox="0 0 2601 2718" fill="none" xmlns="http://www.w3.org/2000/svg">
<path d="M694.502 1340.16C702.733 1101.92 629.961 871.477 489.181 682.616C339.306 870.178 252.672 1109.72 261.769 1367.89C269.133 1582.3 341.038 1784.16 467.09 1952.23C606.136 1778.96 686.272 1565.84 694.502 1340.16ZM1906.5 1340.16C1914.3 1565.41 1994.87 1778.09 2133.48 1951.79C2269.93 1768.57 2347.9 1539.85 2339.24 1294.25C2331.44 1068.13 2251.74 855.45 2112.69 681.75C1971.04 871.044 1898.27 1101.49 1906.5 1340.16Z" fill="#444A49"/>
<path d="M1819.87 1343.63C1810.77 1078.96 1893.5 822.962 2053.78 615.475C2039.48 600.314 2024.75 585.153 2009.16 570.859C1806 381.565 1541.77 283.236 1263.68 292.766C980.822 302.729 728.286 425.315 547.223 615.908C707.494 823.395 790.229 1078.96 781.133 1343.63C772.036 1594.43 681.504 1830.94 523.398 2021.97C545.057 2046.22 567.581 2069.62 591.839 2092.14C785.897 2272.77 1035.83 2371.1 1299.63 2371.1C1312.19 2371.1 1324.76 2371.1 1337.32 2370.23C1632.74 2359.84 1894.8 2226.42 2077.17 2021.1C1919.49 1830.51 1828.96 1594 1819.87 1343.63ZM1175.75 1131.81C1183.11 1047.78 1241.59 935.152 1318.69 942.083C1381.93 947.281 1395.36 1013.56 1406.19 1066.83C1410.09 1084.16 1413.56 1102.79 1419.19 1120.55C1423.95 1137.01 1426.12 1151.74 1426.12 1164.73C1426.12 1196.78 1414.42 1219.31 1402.29 1234.47C1374.57 1268.26 1330.82 1279.95 1297.47 1279.95C1293.14 1279.95 1289.67 1279.95 1285.77 1279.52C1226.86 1274.75 1167.08 1233.17 1175.75 1131.81ZM969.56 1387.81C946.169 1373.95 917.58 1345.36 914.115 1286.88C912.815 1268.26 909.783 1249.63 907.184 1231.87C898.521 1178.59 888.125 1111.88 945.736 1084.59C979.956 1068.57 1022.41 1078.53 1065.72 1112.75C1098.64 1138.31 1128.53 1175.99 1145.86 1212.38C1164.92 1252.23 1168.82 1289.05 1158.42 1321.1C1148.46 1350.56 1126.37 1374.38 1094.31 1389.54C1077.42 1397.34 1054.46 1403.41 1030.64 1403.41C1010.28 1403.41 988.619 1399.07 969.56 1387.81ZM1532.68 1696.66C1511.02 1715.72 1485.03 1721.35 1455.14 1721.35C1434.35 1721.35 1411.82 1718.75 1388 1715.72C1332.12 1709.22 1268.88 1709.22 1213 1715.72C1154.96 1722.65 1104.71 1728.71 1068.32 1696.66C1046.66 1677.6 1036.27 1649.44 1036.27 1610.46C1036.27 1551.98 1071.35 1496.54 1106.87 1444.99C1144.56 1390.84 1205.64 1318.94 1300.5 1318.94C1393.2 1318.94 1452.54 1387.38 1494.12 1446.72C1525.31 1492.2 1564.73 1548.95 1564.73 1610.46C1564.73 1649.44 1554.34 1677.6 1532.68 1696.66ZM1693.81 1231.87C1691.22 1249.63 1688.18 1268.26 1686.88 1286.88C1683.42 1345.36 1654.83 1373.95 1631.44 1387.81C1612.38 1399.07 1590.72 1403.41 1570.36 1403.41C1546.54 1403.41 1523.58 1397.34 1506.69 1389.54C1474.63 1374.38 1452.54 1350.56 1442.58 1321.1C1432.18 1289.05 1436.08 1252.23 1455.14 1212.38C1472.47 1175.99 1502.35 1138.31 1535.28 1112.75C1578.59 1078.53 1621.04 1068.57 1655.26 1084.59C1712.87 1111.88 1702.48 1178.59 1693.81 1231.87Z" fill="#61988E"/>
</svg>
