<svg width="536" height="512" viewBox="0 0 536 512" fill="none" xmlns="http://www.w3.org/2000/svg">
<path d="M116.781 209.163V448.551C122.93 448.551 265.622 469.367 265.622 469.367C265.622 469.367 430.705 448.551 436.514 448.551V209.163L265.623 196.241L116.781 209.163Z" fill="#7DE0F7"/>
<path d="M116.781 448.551C116.781 465.267 116.781 476.684 116.781 479.775C116.781 497.021 131.588 510.999 149.856 510.999H414.463V448.55H116.781V448.551Z" fill="#7FCFE2"/>
<path d="M381.388 73.8569V157.122H171.908V73.8569C195.184 73.8569 353.221 73.8569 381.388 73.8569Z" fill="#E4F8FC"/>
<path d="M359.337 1L364.85 37.429L359.337 84.265H304.211L294.655 38.469L304.211 1H359.337Z" fill="#31889C"/>
<path d="M249.084 1L254.229 44.714L249.084 84.265H193.958L187.71 42.633L193.958 1H249.084Z" fill="#31889C"/>
<path d="M414.462 11.408V73.857C414.462 79.605 409.526 84.265 403.437 84.265H359.336V1H403.437C409.526 1 414.462 5.66 414.462 11.408Z" fill="#31889C"/>
<path d="M304.21 1H249.084V84.265H304.21V1Z" fill="#31889C"/>
<path d="M193.957 1V84.265H149.856C143.767 84.265 138.831 79.605 138.831 73.857V11.408C138.831 5.66 143.767 1 149.856 1H193.957Z" fill="#31889C"/>
<path d="M449.701 448.551C467.969 448.551 482.776 462.529 482.776 479.775C482.776 497.01 467.959 510.999 449.701 510.999H361.499C343.231 510.999 328.423 497.021 328.423 479.775C328.423 462.54 343.24 448.551 361.499 448.551C369.382 448.551 437.792 448.551 449.701 448.551Z" fill="#31889C"/>
<path d="M436.514 177.939C436.514 180.572 436.514 192.157 436.514 209.163H116.781C116.781 192.437 116.781 181.019 116.781 177.939C116.781 160.693 131.588 146.714 149.856 146.714C161.538 146.714 392.846 146.714 403.437 146.714C421.706 146.714 436.514 160.692 436.514 177.939Z" fill="#7FCFE2"/>
<path d="M377.027 296.408C374.718 290.573 370.834 286.354 365.795 284.209C363.483 283.227 361.056 282.729 358.583 282.729C348.032 282.729 337.312 292.014 331.906 305.835C325.216 322.956 329.106 339.725 340.954 344.842C343.337 345.873 345.888 346.396 348.538 346.396C359.285 346.396 370.207 337.881 375.715 325.209C379.878 315.617 380.368 304.852 377.027 296.408ZM224.221 305.835C218.816 292.014 208.095 282.729 197.544 282.729C195.071 282.729 192.644 283.227 190.332 284.209C185.292 286.354 181.409 290.573 179.1 296.408C175.759 304.852 176.249 315.617 180.412 325.209C185.92 337.881 196.843 346.396 207.589 346.396C210.238 346.396 212.79 345.873 215.173 344.842C227.022 339.725 230.912 322.956 224.221 305.835ZM247.687 303.919C248.664 303.959 249.651 303.934 250.618 303.844C256.301 303.317 261.44 300.564 265.48 295.881C271.998 288.325 273.808 276.496 272.435 264.327C270.337 245.574 259.869 231.577 245.805 231C245.805 231 243.797 231.004 242.776 231.096C236.571 231.675 230.931 234.719 226.465 239.897C219.989 247.409 216.877 258.585 218.138 269.793C220.212 288.334 233.192 303.323 247.687 303.919ZM278.063 318.542C244.343 318.542 210.622 356.381 210.622 392.717C210.622 403.56 216.382 412.28 222.038 415.855C229.023 420.267 233.947 422 244.187 422C256.354 422 259.638 417.982 265.334 414.437C269.454 411.875 273.012 409.66 278.064 409.66C283.116 409.66 286.674 411.875 290.794 414.437C296.49 417.982 299.773 422 311.941 422C322.18 422 327.103 420.267 334.089 415.855C339.745 412.28 345.505 403.56 345.505 392.717C345.505 356.381 311.784 318.542 278.063 318.542ZM305.61 303.752C306.577 303.842 307.564 303.867 308.541 303.827C323.036 303.232 336.016 288.242 338.089 269.702C339.351 258.494 336.237 247.317 329.762 239.806C325.296 234.628 319.866 231.735 313.66 231.156C312.639 231.063 310.422 231 310.422 231C296.358 231.578 285.89 245.482 283.792 264.235C282.42 276.404 284.23 288.233 290.747 295.789C294.787 300.472 299.926 303.225 305.61 303.752Z" fill="#31889C"/>
</svg>
