<svg width="1139" height="1139" viewBox="0 0 1139 1139" fill="none" xmlns="http://www.w3.org/2000/svg">
<path d="M102.154 307.293L367.802 219.02V71.1875H213.562C134.924 71.1875 71.1875 137.368 71.1875 219.02V283.825C71.1875 300.506 86.8487 312.371 102.154 307.293ZM657.179 307.293L391.531 219.02V71.1875H545.771C624.409 71.1875 688.146 137.368 688.146 219.02V283.825C688.146 300.506 672.485 312.371 657.179 307.293Z" fill="#5D4D37"/>
<path d="M616.957 345.045V319.133C616.957 140.666 430.304 16.0163 271.2 95.7701C195.148 133.879 142.374 208.934 142.374 295.309V345.069C142.374 357.811 137.486 370.245 128.16 378.906C87.0376 417.182 63.9017 474.582 73.251 537.156C85.7563 620.73 170.564 688.145 254.779 688.145H480.254C588.838 688.145 673.646 620.659 686.08 536.99C695.382 474.535 672.294 417.277 631.29 379.025C621.964 370.317 616.957 357.882 616.957 345.045Z" fill="#FFB042"/>
<path d="M870.076 593.228C830.519 593.228 1028.42 779.027 1028.42 779.027C1028.42 779.027 1107.37 632.784 1028.25 474.582C988.721 474.582 949.165 593.228 870.076 593.228ZM672.317 593.228C711.873 593.228 513.972 779.027 513.972 779.027C513.972 779.027 435.025 632.784 514.138 474.582C553.671 474.582 593.227 593.228 672.317 593.228Z" fill="#8F7E66"/>
<path d="M771.197 1067.81C935.012 1067.81 1067.81 952.723 1067.81 810.753C1067.81 668.784 935.012 553.695 771.197 553.695C607.381 553.695 474.582 668.784 474.582 810.753C474.582 952.723 607.381 1067.81 771.197 1067.81Z" fill="#9C8D78"/>
<path d="M403.396 468.652H355.938V688.147H403.396V468.652Z" fill="#5D4D37"/>
<path d="M450.855 441.361C450.855 415.14 418.987 403.395 379.668 403.395C340.349 403.395 308.48 415.14 308.48 441.361C308.48 467.582 340.349 498.311 379.668 498.311C418.987 498.311 450.855 467.582 450.855 441.361Z" fill="#383026"/>
<path d="M249.156 379.668C268.814 379.668 284.75 363.732 284.75 344.074C284.75 324.416 268.814 308.48 249.156 308.48C229.498 308.48 213.562 324.416 213.562 344.074C213.562 363.732 229.498 379.668 249.156 379.668Z" fill="#383026"/>
<path d="M510.176 379.668C529.834 379.668 545.77 363.732 545.77 344.074C545.77 324.416 529.834 308.48 510.176 308.48C490.518 308.48 474.582 324.416 474.582 344.074C474.582 363.732 490.518 379.668 510.176 379.668Z" fill="#383026"/>
<path d="M676.281 783.062C695.939 783.062 711.875 767.127 711.875 747.469C711.875 727.811 695.939 711.875 676.281 711.875C656.623 711.875 640.688 727.811 640.688 747.469C640.688 767.127 656.623 783.062 676.281 783.062Z" fill="#4D4336"/>
<path d="M866.117 783.062C885.775 783.062 901.711 767.127 901.711 747.469C901.711 727.811 885.775 711.875 866.117 711.875C846.459 711.875 830.523 727.811 830.523 747.469C830.523 767.127 846.459 783.062 866.117 783.062Z" fill="#4D4336"/>
<path d="M711.875 996.625C751.191 996.625 783.062 964.753 783.062 925.438C783.062 886.122 751.191 854.25 711.875 854.25C672.559 854.25 640.688 886.122 640.688 925.438C640.688 964.753 672.559 996.625 711.875 996.625Z" fill="#F2EBE1"/>
<path d="M830.523 996.625C869.839 996.625 901.711 964.753 901.711 925.438C901.711 886.122 869.839 854.25 830.523 854.25C791.208 854.25 759.336 886.122 759.336 925.438C759.336 964.753 791.208 996.625 830.523 996.625Z" fill="#F2EBE1"/>
<path d="M818.659 858.995C818.659 839.347 797.421 830.52 771.201 830.52C744.98 830.52 723.742 839.347 723.742 858.995C723.742 878.642 744.98 901.707 771.201 901.707C797.421 901.707 818.659 878.642 818.659 858.995Z" fill="#EAA84C"/>
</svg>
