<svg width="525" height="503" viewBox="0 0 525 503" fill="none" xmlns="http://www.w3.org/2000/svg">
<path d="M521.102 213.89L270.205 3.62827C266.121 0.123909 259.703 0.123909 255.035 3.62827L4.1385 213.89C-0.529336 217.978 -1.69629 225.571 2.97154 230.244C7.0559 234.916 14.6411 236.084 19.309 231.412L64.2369 193.448V432.913V467.956C64.2369 487.23 79.9909 503 99.2457 503H425.994C445.249 503 461.003 487.23 461.003 467.956V432.913V194.032L505.931 231.996C508.265 233.748 510.599 234.916 513.516 234.916C517.017 234.916 519.935 233.748 522.269 230.828C526.353 224.987 525.77 217.978 521.102 213.89Z" fill="#C45454"/>
<path d="M521.102 213.89L270.205 3.62827C266.121 0.123909 259.703 0.123909 255.035 3.62827L4.1385 213.89C-0.529336 217.978 -1.69629 225.571 2.97154 230.244C7.0559 234.916 14.6411 236.084 19.309 231.412L64.2369 193.448V432.913V467.956C64.2369 487.23 79.9909 503 99.2457 503H425.994C445.249 503 461.003 487.23 461.003 467.956V432.913V194.032L505.931 231.996C508.265 233.748 510.599 234.916 513.516 234.916C517.017 234.916 519.935 233.748 522.269 230.828C526.353 224.987 525.77 217.978 521.102 213.89ZM437.664 479.232C304.739 479.232 246.64 479.232 87.5761 479.232V174.174L262.62 27.5748L437.664 174.174V479.232Z" fill="#C45454"/>
<path d="M403.86 250.967C400.561 242.139 395.014 235.756 387.816 232.511C384.513 231.024 381.047 230.271 377.515 230.271C362.444 230.271 347.13 244.32 339.409 265.232C329.852 291.137 335.409 316.511 352.333 324.254C355.736 325.812 359.381 326.604 363.166 326.604C378.516 326.604 394.118 313.72 401.986 294.546C407.932 280.034 408.632 263.744 403.86 250.967ZM185.592 265.232C177.87 244.32 162.557 230.271 147.486 230.271C143.954 230.271 140.487 231.024 137.184 232.511C129.985 235.756 124.439 242.139 121.14 250.967C116.368 263.744 117.068 280.034 123.014 294.546C130.883 313.72 146.484 326.604 161.835 326.604C165.619 326.604 169.263 325.812 172.667 324.254C189.592 316.511 195.149 291.137 185.592 265.232ZM219.11 262.333C220.506 262.393 221.915 262.355 223.297 262.219C231.415 261.422 238.755 257.256 244.526 250.171C253.836 238.738 256.421 220.839 254.461 202.427C251.464 174.051 236.512 152.874 216.422 152C216.422 152 213.554 152.006 212.095 152.145C203.232 153.021 195.176 157.626 188.797 165.463C179.546 176.828 175.101 193.738 176.903 210.697C179.865 238.752 198.405 261.432 219.11 262.333ZM262.5 284.458C214.333 284.458 166.166 341.712 166.166 396.693C166.166 413.098 174.394 426.293 182.473 431.702C192.451 438.378 199.484 441 214.11 441C231.49 441 236.181 434.92 244.317 429.557C250.202 425.679 255.284 422.328 262.501 422.328C269.717 422.328 274.8 425.679 280.684 429.557C288.82 434.92 293.51 441 310.89 441C325.516 441 332.549 438.378 342.527 431.702C350.606 426.293 358.833 413.098 358.833 396.693C358.833 341.712 310.667 284.458 262.5 284.458ZM301.847 262.08C303.229 262.217 304.638 262.254 306.034 262.193C326.739 261.293 345.279 238.613 348.241 210.559C350.043 193.6 345.596 176.689 336.346 165.325C329.967 157.489 322.21 153.112 313.347 152.236C311.887 152.096 308.721 152.001 308.721 152.001C288.632 152.875 273.679 173.913 270.683 202.288C268.723 220.701 271.308 238.599 280.617 250.032C286.388 257.117 293.729 261.283 301.847 262.08Z" fill="white"/>
<rect x="372" width="71" height="169" fill="#C45454"/>
<rect x="361" width="92" height="47" fill="#C45454"/>
</svg>
