<svg width="1635" height="1635" viewBox="0 0 1635 1635" fill="none" xmlns="http://www.w3.org/2000/svg">
<g clip-path="url(#clip0_551_40)" filter="url(#filter0_d_551_40)">
<g filter="url(#filter1_d_551_40)">
<path d="M1369.63 0H265.365C121.017 0 4 117.017 4 261.365V1365.63C4 1509.98 121.017 1627 265.365 1627H1369.63C1513.98 1627 1631 1509.98 1631 1365.63V261.365C1631 117.017 1513.98 0 1369.63 0Z" fill="#0490B4"/>
</g>
<path d="M405.229 445.74C326.173 504.085 321.308 584.307 334.686 668.177C249.548 693.702 219.715 770.244 200.897 837.13C187.519 908.845 217.926 996.36 217.926 996.36C217.926 996.36 275.357 1128.81 351.714 1170.18C414.436 1204.16 518.342 1190.84 518.342 1190.84C518.342 1190.84 579.155 1266.2 686.186 1264.99C793.216 1263.77 878.354 1159.24 878.354 1159.24C878.354 1159.24 1031.63 1250.27 1137.42 1211.5C1226.48 1178.86 1346.61 1044.98 1346.61 1044.98C1346.61 1044.98 1525.39 1066.95 1559.46 985.421C1600.61 886.965 1462.15 820.113 1462.15 820.113C1462.15 820.113 1415.95 625.226 1340.54 563.643C1283.28 516.9 1197.01 522.316 1197.01 522.316C1197.01 522.316 1210 447.801 1165.39 406.845C1087.74 335.552 878.354 375.241 878.354 375.241C878.354 375.241 762.005 340.366 705.645 354.579C647.5 369.242 615.643 445.74 615.643 445.74C615.643 445.74 496.449 378.42 405.229 445.74Z" fill="#BBE2EC"/>
<path d="M214.629 613.124C200.201 649.075 163.981 665.017 135.696 653.705C107.411 642.392 92.2378 605.894 106.667 569.944C121.096 533.994 157.316 518.052 185.601 529.365C213.887 540.677 229.059 577.174 214.629 613.124Z" fill="#BBE2EC"/>
<path d="M1394.14 256.766C1443.79 277.839 1465.71 327.636 1449.67 365.597C1433.62 403.559 1382.69 422.439 1333.03 401.365C1283.38 380.29 1261.46 330.495 1277.5 292.533C1293.54 254.571 1344.47 235.692 1394.14 256.766Z" fill="#BBE2EC"/>
<path d="M490.634 617.602C626.992 503.821 811.835 507.527 904.515 618.107C997.194 728.686 968.146 910.866 831.787 1024.65C695.428 1138.43 510.586 1134.72 417.906 1024.14C325.227 913.564 354.274 731.383 490.634 617.602Z" fill="#9F634A" stroke="#333333" stroke-width="25"/>
<path d="M377.992 815.246L391.371 760.468C391.371 760.468 219.884 768.989 140.83 831.071C86.519 873.722 49.6137 930.89 58.1272 988.102C65.7873 1039.58 109.616 1068.73 161.506 1072.1C240.134 1077.2 251.061 959.165 287.992 889.502C319.614 829.853 377.992 815.246 377.992 815.246Z" fill="#9F634A" stroke="#333333" stroke-width="25"/>
<path d="M742.448 525.776L686.152 522.077C686.152 522.077 745.904 360.816 828.935 303.97C885.979 264.917 951.636 246.859 1003.66 272.205C1050.47 295.01 1065.09 345.647 1052.69 396.233C1033.89 472.884 917.976 447.812 840.389 462.136C773.957 474.401 742.448 525.776 742.448 525.776Z" fill="#9F634A" stroke="#333333" stroke-width="25"/>
<path d="M576.176 989.491C576.176 989.491 576.606 949.511 590.934 930.597C606.351 910.248 648.738 899.923 648.738 899.923" stroke="#333333" stroke-width="20" stroke-linecap="round"/>
<path d="M758.715 812.622C758.715 812.622 773.378 780.355 791.727 770.142C811.471 759.155 849.417 765.943 849.417 765.943" stroke="#333333" stroke-width="20" stroke-linecap="round"/>
<path d="M834.092 916.941C840.074 924.973 839.153 937.14 832.492 950.488C825.849 963.802 813.572 978.105 797.219 990.213C780.867 1002.32 763.585 1009.9 748.884 1012.39C734.143 1014.89 722.199 1012.25 716.217 1004.22C710.237 996.187 711.158 984.021 717.819 970.672C724.462 957.36 736.739 943.055 753.091 930.947C769.444 918.839 786.726 911.257 801.426 908.766C816.166 906.269 828.112 908.909 834.092 916.941Z" fill="#333333" stroke="#333333"/>
<path d="M1248.13 672.947C1213.98 662.91 1172.79 677.809 1156.99 672.947C1141.2 668.084 1075.58 597.569 1075.58 597.569C1075.58 597.569 1024.26 547.141 980.807 561.097C892.643 589.409 938.279 719.145 929.773 811.543C924.754 866.08 920.109 900.616 940.71 951.356C971.471 1027.12 1041.56 1067.38 1098.67 1088.74C1138.77 1103.73 1250.9 1125.64 1328.32 1080.23C1390.55 1043.72 1414.59 1009.71 1440.11 933.12C1469.93 843.621 1591.63 781.868 1531.24 709.42C1477.74 645.231 1341.69 726.439 1317.38 714.282C1293.08 702.126 1278.34 681.829 1248.13 672.947Z" fill="#FFC146" stroke="#333333" stroke-width="25" stroke-linecap="round"/>
<path d="M1141.65 1039.38C1133.07 1034.76 1099.96 1009.99 1117.5 1002.08C1123.43 999.402 1135.46 1001.2 1151.34 1005.81C1165.91 1010.04 1182.85 1016.54 1185.67 1024.27C1190.99 1038.84 1150.07 1039.08 1141.65 1039.38Z" fill="#333333" stroke="#333333" stroke-linecap="round"/>
<path d="M1030.82 906.56C1030.82 906.56 1055.27 891.657 1072.13 893.239C1090.28 894.942 1112.45 916.93 1112.45 916.93" stroke="#333333" stroke-width="20" stroke-linecap="round"/>
<path d="M1234.91 948.053C1234.91 948.053 1262.51 941.564 1277.9 948.419C1294.47 955.794 1308.6 983.823 1308.6 983.823" stroke="#333333" stroke-width="20" stroke-linecap="round"/>
</g>
<defs>
<filter id="filter0_d_551_40" x="0" y="0" width="1635" height="1635" filterUnits="userSpaceOnUse" color-interpolation-filters="sRGB">
<feFlood flood-opacity="0" result="BackgroundImageFix"/>
<feColorMatrix in="SourceAlpha" type="matrix" values="0 0 0 0 0 0 0 0 0 0 0 0 0 0 0 0 0 0 127 0" result="hardAlpha"/>
<feOffset dy="4"/>
<feGaussianBlur stdDeviation="2"/>
<feComposite in2="hardAlpha" operator="out"/>
<feColorMatrix type="matrix" values="0 0 0 0 0 0 0 0 0 0 0 0 0 0 0 0 0 0 0.25 0"/>
<feBlend mode="normal" in2="BackgroundImageFix" result="effect1_dropShadow_551_40"/>
<feBlend mode="normal" in="SourceGraphic" in2="effect1_dropShadow_551_40" result="shape"/>
</filter>
<filter id="filter1_d_551_40" x="0" y="-4" width="1635" height="1635" filterUnits="userSpaceOnUse" color-interpolation-filters="sRGB">
<feFlood flood-opacity="0" result="BackgroundImageFix"/>
<feColorMatrix in="SourceAlpha" type="matrix" values="0 0 0 0 0 0 0 0 0 0 0 0 0 0 0 0 0 0 127 0" result="hardAlpha"/>
<feOffset/>
<feGaussianBlur stdDeviation="2"/>
<feComposite in2="hardAlpha" operator="out"/>
<feColorMatrix type="matrix" values="0 0 0 0 0 0 0 0 0 0 0 0 0 0 0 0 0 0 0.25 0"/>
<feBlend mode="normal" in2="BackgroundImageFix" result="effect1_dropShadow_551_40"/>
<feBlend mode="normal" in="SourceGraphic" in2="effect1_dropShadow_551_40" result="shape"/>
</filter>
<clipPath id="clip0_551_40">
<rect width="1627" height="1627" fill="white" transform="translate(4)"/>
</clipPath>
</defs>
</svg>
