<svg width="1627" height="1627" viewBox="0 0 1627 1627" fill="none" xmlns="http://www.w3.org/2000/svg">
<g clip-path="url(#clip0_368_169)">
<path d="M1365.63 0H261.365C117.017 0 0 117.017 0 261.365V1365.63C0 1509.98 117.017 1627 261.365 1627H1365.63C1509.98 1627 1627 1509.98 1627 1365.63V261.365C1627 117.017 1509.98 0 1365.63 0Z" fill="white"/>
<path d="M429.222 372.408C359.493 423.869 355.203 494.625 367.003 568.598C291.91 591.112 265.598 658.622 249 717.616C237.2 780.869 264.019 858.058 264.019 858.058C264.019 858.058 314.673 974.881 382.021 1011.36C437.343 1041.33 528.988 1029.59 528.988 1029.59C528.988 1029.59 582.625 1096.06 677.027 1094.99C771.428 1093.91 846.521 1001.72 846.521 1001.72C846.521 1001.72 981.714 1082.01 1075.02 1047.82C1153.57 1019.03 1259.53 900.942 1259.53 900.942C1259.53 900.942 1417.21 920.317 1447.26 848.41C1483.56 761.571 1361.44 702.607 1361.44 702.607C1361.44 702.607 1320.69 530.716 1254.17 476.399C1203.67 435.172 1127.58 439.949 1127.58 439.949C1127.58 439.949 1139.03 374.226 1099.69 338.103C1031.2 275.222 846.521 310.228 846.521 310.228C846.521 310.228 743.9 279.467 694.191 292.004C642.906 304.937 614.808 372.408 614.808 372.408C614.808 372.408 509.678 313.031 429.222 372.408Z" fill="#BBE2EC"/>
<path d="M261.112 520.042C248.385 551.751 216.439 565.812 191.492 555.834C166.544 545.856 153.161 513.665 165.888 481.957C178.615 450.249 210.561 436.188 235.509 446.166C260.456 456.144 273.839 488.333 261.112 520.042Z" fill="#BBE2EC"/>
<path d="M1301.45 205.731C1345.24 224.318 1364.57 268.239 1350.43 301.721C1336.27 335.204 1291.35 351.856 1247.55 333.269C1203.75 314.68 1184.43 270.761 1198.57 237.278C1212.72 203.796 1257.64 187.144 1301.45 205.731Z" fill="#BBE2EC"/>
<path d="M504.55 523.992C624.819 423.636 787.852 426.905 869.596 524.437C951.34 621.968 925.719 782.652 805.45 883.008C685.18 983.363 522.148 980.096 440.404 882.564C358.661 785.032 384.281 624.347 504.55 523.992Z" fill="#9F634A" stroke="#333333" stroke-width="25"/>
<path d="M405.2 698.315L417 650C417 650 265.747 657.516 196.021 712.273C148.119 749.891 115.568 800.313 123.077 850.775C129.833 896.179 168.49 921.888 214.257 924.859C283.608 929.361 293.245 825.252 325.819 763.809C353.71 711.199 405.2 698.315 405.2 698.315Z" fill="#9F634A" stroke="#333333" stroke-width="25"/>
<path d="M726.653 443L677 439.737C677 439.737 729.701 297.504 802.935 247.366C853.249 212.92 911.158 196.993 957.046 219.349C998.334 239.463 1011.23 284.125 1000.29 328.742C983.706 396.349 881.47 374.235 813.038 386.869C754.444 397.687 726.653 443 726.653 443Z" fill="#9F634A" stroke="#333333" stroke-width="25"/>
<path d="M580 852C580 852 580.38 816.737 593.017 800.055C606.615 782.107 644 773 644 773" stroke="#333333" stroke-width="20" stroke-linecap="round"/>
<path d="M741 696C741 696 753.933 667.541 770.117 658.533C787.531 648.842 821 654.829 821 654.829" stroke="#333333" stroke-width="20" stroke-linecap="round"/>
<path d="M807.483 788.01C812.759 795.095 811.946 805.826 806.071 817.599C800.212 829.341 789.384 841.957 774.961 852.636C760.538 863.317 745.295 870.003 732.329 872.2C719.327 874.403 708.792 872.074 703.516 864.99C698.242 857.905 699.054 847.175 704.929 835.401C710.788 823.66 721.616 811.043 736.039 800.364C750.462 789.685 765.705 782.997 778.671 780.8C791.672 778.597 802.208 780.926 807.483 788.01Z" fill="#333333" stroke="#333333"/>
<path d="M1172.66 572.806C1142.54 563.953 1106.22 577.094 1092.28 572.806C1078.35 568.517 1020.48 506.322 1020.48 506.322C1020.48 506.322 975.212 461.844 936.885 474.153C859.123 499.125 899.374 613.553 891.872 695.049C887.445 743.15 883.349 773.611 901.519 818.365C928.65 885.191 990.47 920.696 1040.84 939.535C1076.21 952.762 1175.11 972.088 1243.4 932.029C1298.28 899.834 1319.49 869.834 1341.99 802.28C1368.29 723.342 1475.63 668.875 1422.37 604.975C1375.18 548.36 1255.19 619.986 1233.75 609.264C1212.32 598.542 1199.31 580.64 1172.66 572.806Z" fill="#FFC146" stroke="#333333" stroke-width="25" stroke-linecap="round"/>
<path d="M1078.75 896C1071.18 891.93 1041.98 870.078 1057.45 863.099C1062.68 860.742 1073.29 862.331 1087.3 866.396C1100.15 870.128 1115.09 875.857 1117.58 882.675C1122.27 895.528 1086.18 895.734 1078.75 896Z" fill="#333333" stroke="#333333" stroke-linecap="round"/>
<path d="M981 778.853C981 778.853 1002.56 765.709 1017.44 767.104C1033.44 768.606 1053 788 1053 788" stroke="#333333" stroke-width="20" stroke-linecap="round"/>
<path d="M1161 815.45C1161 815.45 1185.34 809.728 1198.92 815.773C1213.53 822.279 1226 847 1226 847" stroke="#333333" stroke-width="20" stroke-linecap="round"/>
<path d="M313.27 1202.58C313.27 1176.47 327.413 1160.42 358.146 1160.42H386.432V1187.35H364.674C353.251 1187.35 348.355 1193.33 348.355 1204.48V1212.1H384.529V1239.02H348.355V1353.53H313.27V1239.02H292.599V1212.1H313.27V1202.58ZM463.305 1356.79C433.659 1356.79 415.437 1336.39 415.437 1301.85V1208.29H450.25V1293.15C450.25 1317.62 458.138 1328.5 475 1328.5C493.767 1328.5 504.646 1315.72 504.646 1291.79V1208.29H539.46V1353.53H507.638L507.094 1329.32C499.751 1347.54 484.792 1356.79 463.305 1356.79ZM577.722 1353.53V1208.29H610.36L611.176 1236.3C616.887 1216.72 628.31 1208.29 645.989 1208.29H659.316V1238.21H645.717C623.415 1238.21 612.535 1247.45 612.535 1269.76V1353.53H577.722Z" fill="#272727"/>
<path d="M748.284 1356.79C707.758 1356.79 683.824 1325.51 683.824 1281.45C683.824 1237.39 707.758 1206.11 748.284 1206.11C781.193 1206.11 802.68 1225.15 808.391 1255.61L789.625 1256.7C785.273 1235.49 770.314 1223.25 748.284 1223.25C719.726 1223.25 702.591 1245.28 702.591 1281.45C702.591 1317.62 719.726 1339.65 748.284 1339.65C770.314 1339.65 785.817 1326.87 789.897 1303.21L808.663 1304.57C803.224 1335.85 781.193 1356.79 748.284 1356.79ZM866.865 1353.53C850.818 1353.53 840.483 1345.64 840.483 1328.23V1160.42H858.434V1326.87C858.434 1333.94 862.241 1337.48 869.585 1337.48H880.736V1353.53H866.865ZM958.459 1356.79C929.629 1356.79 911.134 1336.39 911.134 1302.12V1209.38H929.085V1296.68C929.085 1326.33 940.508 1340.74 963.082 1340.74C987.833 1340.74 1003.34 1323.34 1003.34 1295.32V1209.38H1021.29V1353.53H1004.42L1004.15 1327.42C997.08 1346.18 980.761 1356.79 958.459 1356.79ZM1125.9 1356.79C1104.14 1356.79 1087.01 1344.82 1079.12 1326.87L1078.3 1353.53H1062.53V1160.42H1080.48V1234.67C1087.55 1219.17 1104.41 1206.11 1125.9 1206.11C1163.71 1206.11 1187.37 1235.49 1187.37 1281.45C1187.37 1327.69 1163.71 1356.79 1125.9 1356.79ZM1125.09 1339.65C1151.74 1339.65 1168.33 1317.08 1168.33 1281.45C1168.33 1245.55 1151.74 1223.25 1125.36 1223.25C1097.62 1223.25 1080.48 1246.09 1080.48 1281.45C1080.48 1316.54 1097.62 1339.65 1125.09 1339.65ZM1209.15 1353.53V1335.81H1226.5V1353.53H1209.15ZM1250.31 1353.53V1256.75H1262.36V1353.53H1250.31ZM1249.94 1240.68V1224.43H1262.73V1240.68H1249.94ZM1289.9 1353.53V1256.75H1300.85L1301.22 1275.56C1305.78 1261.32 1317.83 1254.56 1332.08 1254.56C1354.17 1254.56 1364.58 1270.81 1364.58 1291.26V1353.53H1352.53V1295.64C1352.53 1276.84 1345.95 1265.33 1329.52 1265.33C1312.9 1265.33 1301.95 1276.84 1301.95 1295.64V1353.53H1289.9Z" fill="#636363"/>
</g>
<defs>
<clipPath id="clip0_368_169">
<rect width="1627" height="1627" fill="white"/>
</clipPath>
</defs>
</svg>
