<svg width="2067" height="2067" viewBox="0 0 2067 2067" fill="none" xmlns="http://www.w3.org/2000/svg">
<circle cx="1033.5" cy="1033.5" r="1033.5" fill="#84C0D1"/>
<path d="M1386.75 1171.09L1278.11 1232.34C1265.07 1239.68 1249.98 1242.56 1235.16 1240.52C1220.34 1238.48 1206.59 1231.65 1196.01 1221.06L833.398 858.188C822.822 847.599 815.996 833.841 813.961 819.009C811.925 804.178 814.792 789.087 822.123 776.037L883.329 667.317C894.347 647.75 898.66 625.111 895.611 602.86C892.562 580.608 882.317 559.968 866.443 544.091L703.607 381.14C694.063 371.585 682.731 364.005 670.259 358.833C657.787 353.662 644.419 351 630.918 351C617.418 351 604.049 353.662 591.577 358.833C579.105 364.005 567.773 371.585 558.229 381.14L484.293 455.076C441.057 498.341 413.517 554.829 406.052 615.558C398.586 676.287 411.623 737.77 443.09 790.232L480.188 852.105C669.639 1168.07 937.043 1430.02 1256.75 1612.83L1264.08 1617.05C1373.29 1679.49 1508.23 1661.29 1595.67 1573.84L1672.88 1496.57C1682.43 1487.02 1690 1475.68 1695.17 1463.2C1700.34 1450.72 1703 1437.34 1703 1423.83C1703 1410.32 1700.34 1396.95 1695.17 1384.47C1690 1371.98 1682.43 1360.65 1672.88 1351.09L1509.94 1188.04C1494.08 1172.13 1473.44 1161.87 1451.2 1158.8C1428.95 1155.74 1406.31 1160.06 1386.75 1171.09Z" fill="black"/>
</svg>
