<svg width="2067" height="2067" viewBox="0 0 2067 2067" fill="none" xmlns="http://www.w3.org/2000/svg">
<circle cx="1033.5" cy="1033.5" r="1033.5" fill="#84C0D1"/>
<path d="M1709.44 762.661V583.834C1709.44 527.469 1687.05 473.412 1647.19 433.555C1607.34 393.699 1553.28 371.307 1496.92 371.307H1318.09L1191.79 245.005C1172.05 225.268 1148.62 209.612 1122.84 198.93C1097.05 188.248 1069.41 182.75 1041.5 182.75C1013.59 182.75 985.951 188.248 960.164 198.93C934.378 209.612 910.948 225.268 891.213 245.005L764.911 371.307H586.084C529.719 371.307 475.662 393.699 435.805 433.555C395.949 473.412 373.557 527.469 373.557 583.834V762.661L247.255 888.963C227.518 908.698 211.862 932.128 201.18 957.914C190.498 983.701 185 1011.34 185 1039.25C185 1067.16 190.498 1094.8 201.18 1120.59C211.862 1146.37 227.518 1169.8 247.255 1189.54L373.557 1315.84V1494.67C373.557 1551.03 395.949 1605.09 435.805 1644.94C475.662 1684.8 529.719 1707.19 586.084 1707.19H764.911L891.213 1833.49C910.948 1853.23 934.378 1868.89 960.164 1879.57C985.951 1890.25 1013.59 1895.75 1041.5 1895.75C1069.41 1895.75 1097.05 1890.25 1122.84 1879.57C1148.62 1868.89 1172.05 1853.23 1191.79 1833.49L1318.09 1707.19H1496.92C1553.28 1707.19 1607.34 1684.8 1647.19 1644.94C1687.05 1605.09 1709.44 1551.03 1709.44 1494.67V1315.84L1835.74 1189.54C1855.48 1169.8 1871.14 1146.37 1881.82 1120.59C1892.5 1094.8 1898 1067.16 1898 1039.25C1898 1011.34 1892.5 983.701 1881.82 957.914C1871.14 932.128 1855.48 908.698 1835.74 888.963L1709.44 762.661ZM1792.94 1146.73L1657.53 1282.14C1654.71 1284.98 1652.49 1288.34 1650.97 1292.04C1649.46 1295.74 1648.7 1299.7 1648.72 1303.69V1494.67C1648.72 1534.93 1632.73 1573.54 1604.26 1602.01C1575.79 1630.48 1537.18 1646.47 1496.92 1646.47H1305.64C1301.65 1646.45 1297.68 1647.21 1293.99 1648.72C1290.29 1650.24 1286.92 1652.46 1284.08 1655.28L1148.67 1790.69C1120.21 1819.14 1081.6 1835.13 1041.35 1835.13C1001.09 1835.13 962.49 1819.14 934.022 1790.69L798.612 1655.28C792.957 1649.67 785.324 1646.5 777.359 1646.47H586.084C545.823 1646.47 507.211 1630.48 478.742 1602.01C450.273 1573.54 434.279 1534.93 434.279 1494.67V1303.39C434.302 1299.4 433.537 1295.43 432.026 1291.74C430.515 1288.04 428.289 1284.67 425.475 1281.83L290.064 1146.73C261.605 1118.26 245.618 1079.66 245.618 1039.4C245.618 999.149 261.605 960.543 290.064 932.076L425.475 796.362C431.084 790.707 434.246 783.074 434.279 775.109V583.834C434.279 543.573 450.273 504.961 478.742 476.492C507.211 448.023 545.823 432.029 586.084 432.029H777.359C781.355 432.052 785.316 431.287 789.015 429.776C792.714 428.265 796.078 426.039 798.915 423.225L934.326 287.814C962.793 259.355 1001.4 243.368 1041.65 243.368C1081.91 243.368 1120.51 259.355 1148.98 287.814L1284.39 423.225C1287.23 426.039 1290.59 428.265 1294.29 429.776C1297.99 431.287 1301.95 432.052 1305.94 432.029H1496.92C1537.18 432.029 1575.79 448.023 1604.26 476.492C1632.73 504.961 1648.72 543.573 1648.72 583.834V775.109C1648.7 779.105 1649.46 783.066 1650.97 786.765C1652.49 790.464 1654.71 793.828 1657.53 796.665L1792.94 932.076C1821.39 960.543 1837.38 999.149 1837.38 1039.4C1837.38 1079.66 1821.39 1118.26 1792.94 1146.73Z" fill="black"/>
<path d="M1667.16 780.346V612.873C1667.16 560.086 1646.19 509.46 1608.87 472.134C1571.54 434.808 1520.92 413.838 1468.13 413.838H1300.65L1182.37 295.555C1163.89 277.071 1141.95 262.408 1117.8 252.405C1093.65 242.401 1067.76 237.252 1041.63 237.252C1015.49 237.252 989.603 242.401 965.454 252.405C941.304 262.408 919.362 277.071 900.88 295.555L782.596 413.838H615.123C562.336 413.838 511.71 434.808 474.384 472.134C437.058 509.46 416.088 560.086 416.088 612.873V780.346L297.805 898.63C279.321 917.112 264.658 939.054 254.655 963.204C244.651 987.353 239.502 1013.24 239.502 1039.38C239.502 1065.51 244.651 1091.4 254.655 1115.55C264.658 1139.7 279.321 1161.64 297.805 1180.12L416.088 1298.4V1465.88C416.088 1518.67 437.058 1569.29 474.384 1606.62C511.71 1643.94 562.336 1664.91 615.123 1664.91H782.596L900.88 1783.2C919.362 1801.68 941.304 1816.34 965.454 1826.35C989.603 1836.35 1015.49 1841.5 1041.63 1841.5C1067.76 1841.5 1093.65 1836.35 1117.8 1826.35C1141.95 1816.34 1163.89 1801.68 1182.37 1783.2L1300.65 1664.91H1468.13C1520.92 1664.91 1571.54 1643.94 1608.87 1606.62C1646.19 1569.29 1667.16 1518.67 1667.16 1465.88V1298.4L1785.45 1180.12C1803.93 1161.64 1818.59 1139.7 1828.6 1115.55C1838.6 1091.4 1843.75 1065.51 1843.75 1039.38C1843.75 1013.24 1838.6 987.353 1828.6 963.204C1818.59 939.054 1803.93 917.112 1785.45 898.63L1667.16 780.346ZM1745.35 1140.03L1618.54 1266.84C1615.91 1269.5 1613.82 1272.65 1612.41 1276.12C1610.99 1279.58 1610.27 1283.29 1610.3 1287.03V1465.88C1610.3 1503.58 1595.32 1539.74 1568.66 1566.41C1541.99 1593.07 1505.83 1608.05 1468.13 1608.05H1289C1285.25 1608.02 1281.55 1608.74 1278.08 1610.16C1274.62 1611.57 1271.47 1613.66 1268.81 1616.29L1142 1743.1C1115.34 1769.76 1079.18 1784.73 1041.48 1784.73C1003.79 1784.73 967.631 1769.76 940.971 1743.1L814.157 1616.29C808.861 1611.04 801.713 1608.08 794.254 1608.05H615.123C577.418 1608.05 541.257 1593.07 514.595 1566.41C487.934 1539.74 472.955 1503.58 472.955 1465.88V1286.75C472.977 1283 472.26 1279.3 470.845 1275.83C469.43 1272.37 467.345 1269.22 464.71 1266.56L337.896 1140.03C311.244 1113.37 296.272 1077.22 296.272 1039.52C296.272 1001.82 311.244 965.666 337.896 939.005L464.71 811.907C469.963 806.611 472.924 799.463 472.955 792.004V612.873C472.955 575.168 487.934 539.007 514.595 512.345C541.257 485.684 577.418 470.705 615.123 470.705H794.254C797.996 470.727 801.706 470.01 805.17 468.595C808.634 467.18 811.785 465.095 814.442 462.46L941.255 335.646C967.916 308.994 1004.07 294.022 1041.77 294.022C1079.47 294.022 1115.62 308.994 1142.28 335.646L1269.09 462.46C1271.75 465.095 1274.9 467.18 1278.37 468.595C1281.83 470.01 1285.54 470.727 1289.28 470.705H1468.13C1505.83 470.705 1541.99 485.684 1568.66 512.345C1595.32 539.007 1610.3 575.168 1610.3 612.873V792.004C1610.27 795.746 1610.99 799.456 1612.41 802.92C1613.82 806.384 1615.91 809.535 1618.54 812.192L1745.35 939.005C1772.01 965.666 1786.98 1001.82 1786.98 1039.52C1786.98 1077.22 1772.01 1113.37 1745.35 1140.03Z" fill="black"/>
<path d="M1639.26 791.975V631.939C1639.26 581.496 1619.22 533.119 1583.55 497.451C1547.88 461.782 1499.5 441.744 1449.06 441.744H1289.03L1176 328.714C1158.33 311.05 1137.37 297.039 1114.29 287.48C1091.21 277.92 1066.48 273 1041.5 273C1016.52 273 991.788 277.92 968.711 287.48C945.634 297.039 924.666 311.05 907.005 328.714L793.975 441.744H633.939C583.496 441.744 535.119 461.782 499.451 497.451C463.782 533.119 443.744 581.496 443.744 631.939V791.975L330.714 905.005C313.05 922.666 299.039 943.634 289.48 966.711C279.92 989.788 275 1014.52 275 1039.5C275 1064.48 279.92 1089.21 289.48 1112.29C299.039 1135.37 313.05 1156.33 330.714 1174L443.744 1287.03V1447.06C443.744 1497.5 463.782 1545.88 499.451 1581.55C535.119 1617.22 583.496 1637.26 633.939 1637.26H793.975L907.005 1750.29C924.666 1767.95 945.634 1781.96 968.711 1791.52C991.788 1801.08 1016.52 1806 1041.5 1806C1066.48 1806 1091.21 1801.08 1114.29 1791.52C1137.37 1781.96 1158.33 1767.95 1176 1750.29L1289.03 1637.26H1449.06C1499.5 1637.26 1547.88 1617.22 1583.55 1581.55C1619.22 1545.88 1639.26 1497.5 1639.26 1447.06V1287.03L1752.29 1174C1769.95 1156.33 1783.96 1135.37 1793.52 1112.29C1803.08 1089.21 1808 1064.48 1808 1039.5C1808 1014.52 1803.08 989.788 1793.52 966.711C1783.96 943.634 1769.95 922.666 1752.29 905.005L1639.26 791.975ZM1713.98 1135.68L1592.79 1256.87C1590.28 1259.4 1588.28 1262.42 1586.93 1265.73C1585.58 1269.04 1584.89 1272.58 1584.91 1276.16V1447.06C1584.91 1483.09 1570.6 1517.65 1545.12 1543.12C1519.65 1568.6 1485.09 1582.91 1449.06 1582.91H1277.89C1274.31 1582.89 1270.76 1583.58 1267.45 1584.93C1264.14 1586.28 1261.13 1588.28 1258.59 1590.79L1137.41 1711.98C1111.94 1737.44 1077.39 1751.75 1041.36 1751.75C1005.34 1751.75 970.792 1737.44 945.316 1711.98L824.134 1590.79C819.073 1585.77 812.243 1582.94 805.115 1582.91H633.939C597.908 1582.91 563.354 1568.6 537.876 1543.12C512.399 1517.65 498.085 1483.09 498.085 1447.06V1275.89C498.106 1272.31 497.421 1268.76 496.069 1265.45C494.716 1262.14 492.724 1259.13 490.206 1256.59L369.024 1135.68C343.556 1110.21 329.248 1075.66 329.248 1039.64C329.248 1003.61 343.556 969.064 369.024 943.587L490.206 822.134C495.226 817.073 498.055 810.243 498.085 803.115V631.939C498.085 595.908 512.399 561.354 537.876 535.876C563.354 510.399 597.908 496.085 633.939 496.085H805.115C808.69 496.106 812.235 495.421 815.546 494.069C818.856 492.716 821.867 490.724 824.406 488.206L945.587 367.024C971.064 341.556 1005.61 327.248 1041.64 327.248C1077.66 327.248 1112.21 341.556 1137.68 367.024L1258.87 488.206C1261.4 490.724 1264.42 492.716 1267.73 494.069C1271.04 495.421 1274.58 496.106 1278.16 496.085H1449.06C1485.09 496.085 1519.65 510.399 1545.12 535.876C1570.6 561.354 1584.91 595.908 1584.91 631.939V803.115C1584.89 806.69 1585.58 810.235 1586.93 813.546C1588.28 816.856 1590.28 819.867 1592.79 822.406L1713.98 943.587C1739.44 969.064 1753.75 1003.61 1753.75 1039.64C1753.75 1075.66 1739.44 1110.21 1713.98 1135.68Z" fill="black"/>
<path d="M1274.37 731.683L921.724 1083.57L840.692 1003.41C813.85 977.459 777.978 962.951 740.647 962.951C703.316 962.951 667.445 977.459 640.603 1003.41C614.12 1029.99 599.249 1065.98 599.249 1103.5C599.249 1141.02 614.12 1177.02 640.603 1203.59C796.328 1359.38 827.111 1409.65 921.724 1409.65C1016.34 1409.65 1017.24 1388.82 1474.46 931.858C1498.67 904.863 1511.61 869.612 1510.63 833.358C1509.65 797.105 1494.82 762.606 1469.18 736.962C1443.55 711.317 1409.07 696.477 1372.83 695.495C1336.59 694.514 1301.35 707.465 1274.37 731.683ZM1410.18 867.548L985.553 1292.35C968.59 1309.22 945.643 1318.69 921.724 1318.69C897.805 1318.69 874.858 1309.22 857.894 1292.35C701.716 1136.56 689.946 1133.39 689.946 1103.5C689.981 1093.49 692.973 1083.72 698.547 1075.41C704.12 1067.1 712.026 1060.63 721.269 1056.81C730.511 1052.98 740.678 1051.98 750.49 1053.92C760.302 1055.86 769.32 1060.66 776.41 1067.72L889.583 1180.94C893.791 1185.19 898.798 1188.56 904.314 1190.86C909.831 1193.16 915.748 1194.34 921.724 1194.34C927.7 1194.34 933.617 1193.16 939.133 1190.86C944.65 1188.56 949.656 1185.19 953.865 1180.94L1338.65 795.993C1348.34 787.578 1360.86 783.149 1373.68 783.601C1386.5 784.052 1398.67 789.35 1407.75 798.426C1416.82 807.502 1422.11 819.681 1422.56 832.508C1423.01 845.335 1418.59 857.857 1410.18 867.548Z" fill="black"/>
</svg>
