<svg width="2067" height="2067" viewBox="0 0 2067 2067" fill="none" xmlns="http://www.w3.org/2000/svg">
<circle cx="1033.5" cy="1033.5" r="1033.5" fill="#84C0D1"/>
<path d="M1021.79 295C791.661 398.901 588.541 604.383 428.162 799.403H1615.65C1455.23 604.323 1252.02 398.833 1021.79 295ZM568.214 939.379C579.833 954.868 594.789 967.544 611.974 976.465C629.159 985.387 648.132 990.326 667.486 990.916C687.038 991.306 706.398 987.001 723.941 978.36C741.484 969.719 756.698 956.996 768.306 941.258C837.683 1010.13 913.801 1003.29 967.022 941.707C991.919 970.122 1026.95 987.656 1064.62 990.554C1083.24 990.999 1101.67 986.839 1118.29 978.444C1134.91 970.05 1149.2 957.68 1159.89 942.434C1183.89 970.507 1217.94 988.042 1254.73 991.27C1272.84 992.262 1290.9 988.515 1307.12 980.398C1323.35 972.281 1337.17 960.075 1347.24 944.984C1421.15 1017.07 1492.86 1000.49 1537.23 941.717C1539.04 944.007 1540.65 946.338 1542.54 948.415C1551.35 959.917 1562.37 969.547 1574.94 976.743C1587.52 983.938 1601.4 988.555 1615.78 990.322C1640.64 990.469 1664.57 980.908 1682.49 963.674C1700.4 946.441 1710.88 922.896 1711.7 898.051C1711.94 884.241 1709.42 870.521 1704.3 857.693C1699.18 844.865 1691.56 833.184 1681.87 823.333C1672.19 813.481 1660.65 805.655 1647.91 800.311C1635.17 794.967 1621.5 792.212 1607.69 792.207C1261.25 792.51 914.819 792.332 568.384 791.673C519.955 791.636 471.469 790.362 423.116 792.284C405.588 792.246 388.487 797.694 374.211 807.863C359.935 818.033 349.198 832.414 343.506 848.992C337.379 865.118 335.883 882.635 339.186 899.567C342.489 916.498 350.459 932.169 362.198 944.809C374.733 960.298 390.664 972.695 408.759 981.038C426.854 989.381 446.627 993.448 466.546 992.923C486.465 992.398 505.995 987.295 523.626 978.01C541.256 968.725 556.513 955.507 568.214 939.379ZM1367.33 1591.31C1356.62 1577.15 1348.8 1561.03 1344.32 1543.85C1341.71 1533.61 1340.3 1523.09 1340.11 1512.52H924.8V1036.94H567.171V1511.81H463.223V1042.27H416.75V1643H1430.85C1405.8 1631.18 1383.99 1613.44 1367.33 1591.31ZM887.865 1585.05C794.387 1568.52 700.012 1557.55 605.236 1552.2V1071.04H887.955L887.865 1585.05Z" fill="black"/>
<path d="M1501.33 1276.09C1458.08 1302.82 1423.76 1341.82 1402.77 1388.14C1379.51 1432.57 1352.87 1487.07 1365.98 1538.3C1369.76 1552.65 1376.31 1566.12 1385.26 1577.96C1426.07 1632.81 1497.42 1647.93 1564.38 1641.67C1587.55 1639.49 1610.41 1634.81 1632.57 1627.7C1661.67 1619.01 1687.77 1602.37 1707.92 1579.66C1776.83 1498.38 1712.08 1385.62 1651.48 1320.46C1612.8 1278.86 1557.11 1246.47 1501.33 1276.09ZM1450.42 1289.33C1482.07 1268.35 1482.68 1222.97 1473.13 1190.18C1470.89 1182.46 1467.88 1174.97 1464.16 1167.85C1459.8 1158.02 1452.97 1149.49 1444.32 1143.1C1435.67 1136.71 1425.51 1132.68 1414.83 1131.41C1365.37 1129.94 1353.47 1198.51 1360.29 1235.2C1363.33 1254.95 1373.02 1273.08 1387.77 1286.56C1396.52 1293.71 1407.35 1297.84 1418.63 1298.34C1429.92 1298.84 1441.07 1295.68 1450.42 1289.33ZM1600.43 1094.66C1585.2 1104.25 1574.22 1119.3 1569.72 1136.72C1568.3 1140.79 1567.03 1144.92 1565.87 1149.07C1560.98 1164.08 1559.79 1180.06 1562.41 1195.63C1565.03 1211.2 1571.37 1225.91 1580.9 1238.5C1586.43 1244.65 1593.29 1249.46 1600.95 1252.58C1608.62 1255.69 1616.89 1257.03 1625.14 1256.48C1633.84 1255.33 1642.15 1252.13 1649.39 1247.15C1656.62 1242.18 1662.57 1235.56 1666.76 1227.84C1677.8 1208.09 1681.83 1185.19 1678.21 1162.86C1673.43 1128.7 1643.07 1073.25 1600.43 1094.66ZM1340.58 1291.32C1335.27 1286.28 1328.65 1282.82 1321.48 1281.35C1314.3 1279.89 1306.86 1280.46 1300 1283.02C1294.03 1286.25 1288.76 1290.62 1284.48 1295.88C1280.21 1301.15 1277.01 1307.21 1275.08 1313.71C1270.4 1326.52 1268.46 1340.17 1269.36 1353.78C1271.7 1385.01 1291.88 1430.99 1328.25 1430.92C1330.55 1430.91 1332.84 1430.73 1335.11 1430.37C1345.41 1428.35 1354.89 1423.34 1362.36 1415.96C1369.82 1408.58 1374.95 1399.16 1377.09 1388.88C1380 1370.85 1378.17 1352.37 1371.77 1335.26C1365.37 1318.15 1354.61 1303.01 1340.58 1291.32ZM1805.83 1274.41C1802.04 1261.31 1794.61 1249.57 1784.4 1240.54C1778.45 1235.9 1771.28 1233.11 1763.76 1232.51C1756.24 1231.91 1748.72 1233.54 1742.11 1237.19C1717.24 1250.84 1704.59 1291.06 1703.3 1317.47C1702.71 1328.78 1705.15 1340.05 1710.39 1350.1C1715.62 1360.14 1723.45 1368.61 1733.06 1374.6C1744.43 1379.78 1757.32 1380.51 1769.2 1376.64C1781.07 1372.78 1791.07 1364.6 1797.21 1353.73C1804.14 1341.86 1808.49 1328.66 1809.98 1314.99C1811.46 1301.32 1810.05 1287.49 1805.83 1274.41Z" fill="black"/>
<g clip-path="url(#clip0_183_59)">
<path d="M838.908 727.142C836.107 710.786 822.623 697.603 806.134 695.086C797.695 693.78 789.061 695.253 781.534 699.283L771.529 675.93L814.142 569.394C815.262 566.617 815.822 563.69 815.822 560.692C815.838 556.34 814.634 552.071 812.347 548.369C810.06 544.666 806.782 541.679 802.883 539.745L797.865 537.244C797.384 537.002 796.859 536.862 796.322 536.831C795.784 536.8 795.246 536.879 794.741 537.064C794.235 537.249 793.773 537.535 793.382 537.905C792.992 538.275 792.681 538.721 792.469 539.216L752.704 631.999L712.94 539.216C712.728 538.722 712.418 538.277 712.027 537.908C711.637 537.538 711.176 537.253 710.671 537.068C710.167 536.883 709.63 536.803 709.093 536.834C708.557 536.864 708.032 537.003 707.552 537.244L702.526 539.745C698.627 541.679 695.349 544.666 693.062 548.369C690.775 552.071 689.571 556.34 689.587 560.692C689.587 563.69 690.139 566.617 691.259 569.387L733.872 675.922L723.867 699.275C718.181 696.216 711.823 694.617 705.366 694.62C683.614 694.62 665.917 712.317 665.917 734.069C665.917 755.821 683.614 773.518 705.366 773.518C727.118 773.518 744.815 755.821 744.815 734.069C744.815 718.684 748.641 707.97 752.736 700.83C756.815 707.946 760.31 718.069 760.578 732.27C761.004 754.33 777.439 772.429 797.992 773.462C803.907 773.781 809.817 772.757 815.281 770.469C820.744 768.18 825.62 764.686 829.543 760.247C833.495 755.79 836.39 750.498 838.012 744.766C839.633 739.033 839.94 733.009 838.908 727.142ZM705.366 757.738C692.316 757.738 681.697 747.119 681.697 734.069C681.697 721.019 692.316 710.4 705.366 710.4C718.416 710.4 729.035 721.011 729.035 734.069C729.035 747.127 718.416 757.738 705.366 757.738ZM752.704 678.841C751.658 678.841 750.655 678.425 749.915 677.685C749.175 676.946 748.76 675.942 748.76 674.896C748.76 673.85 749.175 672.846 749.915 672.107C750.655 671.367 751.658 670.951 752.704 670.951C753.751 670.951 754.754 671.367 755.494 672.107C756.234 672.846 756.649 673.85 756.649 674.896C756.649 675.942 756.234 676.946 755.494 677.685C754.754 678.425 753.751 678.841 752.704 678.841ZM800.043 757.738C786.993 757.738 776.374 747.119 776.374 734.069C776.374 721.019 786.993 710.4 800.043 710.4C813.093 710.4 823.712 721.011 823.712 734.069C823.712 747.127 813.093 757.738 800.043 757.738Z" fill="white"/>
</g>
<path d="M1066.23 623.215H980.77C978.451 623.212 976.228 622.29 974.588 620.65C972.948 619.011 972.026 616.787 972.024 614.468V552.241H909.797C907.478 552.239 905.254 551.317 903.615 549.677C901.975 548.037 901.053 545.814 901.05 543.495V458.04C901.053 455.721 901.975 453.498 903.615 451.858C905.254 450.218 907.478 449.296 909.797 449.294H972.024V387.067C972.026 384.748 972.948 382.524 974.588 380.885C976.228 379.245 978.451 378.323 980.77 378.32H1066.23C1068.54 378.323 1070.77 379.245 1072.41 380.885C1074.05 382.524 1074.97 384.748 1074.97 387.067V449.294H1137.2C1139.52 449.296 1141.74 450.218 1143.38 451.858C1145.02 453.498 1145.94 455.721 1145.94 458.04V543.495C1145.94 545.814 1145.02 548.037 1143.38 549.677C1141.74 551.317 1139.52 552.239 1137.2 552.241H1074.97V614.468C1074.97 616.787 1074.05 619.011 1072.41 620.65C1070.77 622.29 1068.54 623.212 1066.23 623.215Z" fill="white"/>
<path d="M1066.23 623.215H980.77C978.451 623.212 976.228 622.29 974.588 620.65C972.948 619.011 972.026 616.787 972.024 614.468V552.241H909.797C907.478 552.239 905.254 551.317 903.615 549.677C901.975 548.037 901.053 545.814 901.05 543.495V458.04C901.053 455.721 901.975 453.498 903.615 451.858C905.254 450.218 907.478 449.296 909.797 449.294H972.024V387.067C972.026 384.748 972.948 382.524 974.588 380.885C976.228 379.245 978.451 378.323 980.77 378.32H1066.23C1068.54 378.323 1070.77 379.245 1072.41 380.885C1074.05 382.524 1074.97 384.748 1074.97 387.067V449.294H1137.2C1139.52 449.296 1141.74 450.218 1143.38 451.858C1145.02 453.498 1145.94 455.721 1145.94 458.04V543.495C1145.94 545.814 1145.02 548.037 1143.38 549.677C1141.74 551.317 1139.52 552.239 1137.2 552.241H1074.97V614.468C1074.97 616.787 1074.05 619.011 1072.41 620.65C1070.77 622.29 1068.54 623.212 1066.23 623.215ZM909.797 458.04V543.495H976.397C977.557 543.495 978.669 543.956 979.489 544.776C980.309 545.596 980.77 546.708 980.77 547.868V614.468H1066.23V547.868C1066.23 546.708 1066.69 545.596 1067.51 544.776C1068.33 543.956 1069.44 543.495 1070.6 543.495H1137.2V458.04H1070.6C1069.44 458.04 1068.33 457.579 1067.51 456.759C1066.69 455.939 1066.23 454.827 1066.23 453.667V387.067H980.77V453.667C980.77 454.827 980.309 455.939 979.489 456.759C978.669 457.579 977.557 458.04 976.397 458.04H909.797Z" fill="white"/>
<path d="M1277.83 739.307V668.249H1329.28V739.307C1329.28 747.123 1335.07 753.518 1342.15 753.518H1380.74C1387.81 753.518 1393.6 747.123 1393.6 739.307V639.826H1415.47C1421.39 639.826 1424.22 631.726 1419.71 627.463L1312.17 520.45C1307.29 515.618 1299.83 515.618 1294.94 520.45L1187.4 627.463C1183.02 631.726 1185.73 639.826 1191.64 639.826H1213.51V739.307C1213.51 747.123 1219.3 753.518 1226.37 753.518H1264.97C1272.04 753.518 1277.83 747.123 1277.83 739.307Z" fill="white"/>
<path fill-rule="evenodd" clip-rule="evenodd" d="M894.206 879.831C894.206 875.81 894.997 871.829 896.533 868.114C898.07 864.399 900.322 861.024 903.161 858.181C906 855.338 909.37 853.082 913.079 851.544C916.789 850.005 920.764 849.213 924.779 849.213C928.794 849.213 932.77 850.005 936.479 851.544C940.189 853.082 943.559 855.338 946.398 858.181C949.237 861.024 951.489 864.399 953.026 868.114C954.562 871.829 955.353 875.81 955.353 879.831C955.353 887.951 952.132 895.739 946.398 901.481C940.664 907.223 932.888 910.449 924.779 910.449C916.671 910.449 908.894 907.223 903.161 901.481C897.427 895.739 894.206 887.951 894.206 879.831ZM937.882 879.831C937.882 876.351 936.502 873.013 934.045 870.552C931.587 868.091 928.255 866.709 924.779 866.709C921.304 866.709 917.971 868.091 915.514 870.552C913.057 873.013 911.676 876.351 911.676 879.831C911.676 883.311 913.057 886.649 915.514 889.11C917.971 891.57 921.304 892.953 924.779 892.953C928.255 892.953 931.587 891.57 934.045 889.11C936.502 886.649 937.882 883.311 937.882 879.831ZM1077.65 879.831C1077.65 875.81 1078.44 871.829 1079.97 868.114C1081.51 864.399 1083.76 861.024 1086.6 858.181C1089.44 855.338 1092.81 853.082 1096.52 851.544C1100.23 850.005 1104.21 849.213 1108.22 849.213C1112.24 849.213 1116.21 850.005 1119.92 851.544C1123.63 853.082 1127 855.338 1129.84 858.181C1132.68 861.024 1134.93 864.399 1136.47 868.114C1138 871.829 1138.79 875.81 1138.79 879.831C1138.79 887.951 1135.57 895.739 1129.84 901.481C1124.11 907.223 1116.33 910.449 1108.22 910.449C1100.11 910.449 1092.34 907.223 1086.6 901.481C1080.87 895.739 1077.65 887.951 1077.65 879.831ZM1121.32 879.831C1121.32 876.351 1119.94 873.013 1117.49 870.552C1115.03 868.091 1111.7 866.709 1108.22 866.709C1104.75 866.709 1101.41 868.091 1098.96 870.552C1096.5 873.013 1095.12 876.351 1095.12 879.831C1095.12 883.311 1096.5 886.649 1098.96 889.11C1101.41 891.57 1104.75 892.953 1108.22 892.953C1111.7 892.953 1115.03 891.57 1117.49 889.11C1119.94 886.649 1121.32 883.311 1121.32 879.831Z" fill="white"/>
<path fill-rule="evenodd" clip-rule="evenodd" d="M1143.16 735.488H1007.76C1005.66 735.488 1003.63 736.248 1002.04 737.627C1000.45 739.007 999.414 740.914 999.117 742.998L992.849 786.931C992.107 792.175 986.861 796.724 981.563 796.724H907.309C905.516 796.725 903.767 797.278 902.299 798.308C900.591 799.502 898.303 801.151 895.311 803.329C892.207 805.591 889.111 807.866 886.025 810.152C875.792 817.326 868 832.329 868 844.843V871.082C868 873.402 868.92 875.627 870.559 877.268C872.197 878.909 874.419 879.83 876.735 879.83H885.471C885.471 869.39 889.612 859.377 896.984 851.994C904.356 844.612 914.354 840.464 924.779 840.464C935.205 840.464 945.203 844.612 952.575 851.994C959.947 859.377 964.088 869.39 964.088 879.83H1068.91C1068.91 869.39 1073.05 859.377 1080.43 851.994C1087.8 844.612 1097.8 840.464 1108.22 840.464C1118.65 840.464 1128.64 844.612 1136.02 851.994C1143.39 859.377 1147.53 869.39 1147.53 879.83H1156.26C1158.58 879.83 1160.8 878.909 1162.44 877.268C1164.08 875.627 1165 873.402 1165 871.082V827.342C1165 826.885 1164.97 826.429 1164.9 825.978L1153.36 752.862C1155.53 752.496 1157.47 751.33 1158.81 749.596C1160.15 747.862 1160.8 745.685 1160.61 743.499C1160.43 741.312 1159.43 739.275 1157.81 737.791C1156.2 736.308 1154.09 735.486 1151.9 735.488H1143.16Z" fill="white"/>
<path fill-rule="evenodd" clip-rule="evenodd" d="M942.25 752.984C949.684 743.06 964.796 735.488 977.191 735.488H1007.76C1010.08 735.488 1012.3 736.41 1013.94 738.051C1015.58 739.691 1016.5 741.916 1016.5 744.236C1016.5 746.556 1015.58 748.781 1013.94 750.422C1012.3 752.063 1010.08 752.984 1007.76 752.984H977.191C970.299 752.984 960.358 757.962 956.226 763.482L927.4 801.973C926.807 802.766 926.083 803.452 925.26 804.003L912.157 812.751C911.202 813.388 910.132 813.831 909.007 814.055C907.881 814.278 906.723 814.277 905.598 814.052C904.473 813.827 903.403 813.382 902.45 812.743C901.496 812.104 900.678 811.283 900.041 810.327C898.755 808.397 898.288 806.034 898.742 803.759C899.195 801.483 900.533 799.482 902.461 798.194L914.297 790.29L942.25 752.984Z" fill="white"/>
<path d="M1297.03 585.33C1289.2 590.113 1282.99 597.095 1279.19 605.384C1274.98 613.337 1270.16 623.091 1272.53 632.261C1273.21 634.83 1274.4 637.241 1276.02 639.36C1283.4 649.177 1296.32 651.884 1308.44 650.763C1312.63 650.373 1316.77 649.535 1320.78 648.262C1326.05 646.707 1330.77 643.73 1334.42 639.664C1346.9 625.116 1335.18 604.934 1324.21 593.271C1317.2 585.825 1307.12 580.027 1297.03 585.33ZM1287.81 587.699C1293.54 583.943 1293.65 575.822 1291.92 569.952C1291.52 568.57 1290.97 567.231 1290.3 565.955C1289.51 564.195 1288.27 562.669 1286.71 561.525C1285.14 560.382 1283.3 559.66 1281.37 559.432C1272.42 559.171 1270.26 571.443 1271.5 578.011C1272.05 581.546 1273.8 584.789 1276.47 587.203C1278.06 588.482 1280.02 589.221 1282.06 589.311C1284.1 589.4 1286.12 588.835 1287.81 587.699ZM1314.97 552.856C1312.21 554.572 1310.22 557.265 1309.41 560.384C1309.15 561.112 1308.92 561.851 1308.71 562.593C1307.82 565.281 1307.61 568.14 1308.08 570.928C1308.56 573.715 1309.71 576.348 1311.43 578.602C1312.43 579.702 1313.67 580.563 1315.06 581.121C1316.45 581.678 1317.94 581.917 1319.44 581.819C1321.01 581.613 1322.52 581.041 1323.83 580.15C1325.14 579.259 1326.21 578.074 1326.97 576.692C1328.97 573.158 1329.7 569.059 1329.05 565.062C1328.18 558.948 1322.69 549.024 1314.97 552.856ZM1267.93 588.055C1266.97 587.152 1265.77 586.534 1264.47 586.271C1263.17 586.008 1261.83 586.112 1260.58 586.569C1259.5 587.147 1258.55 587.929 1257.78 588.872C1257 589.814 1256.42 590.899 1256.07 592.063C1255.23 594.356 1254.88 596.799 1255.04 599.235C1255.46 604.824 1259.12 613.054 1265.7 613.041C1266.11 613.04 1266.53 613.007 1266.94 612.943C1268.8 612.582 1270.52 611.684 1271.87 610.363C1273.22 609.042 1274.15 607.356 1274.54 605.517C1275.07 602.289 1274.73 598.981 1273.58 595.919C1272.42 592.857 1270.47 590.147 1267.93 588.055ZM1352.15 585.028C1351.46 582.684 1350.11 580.582 1348.27 578.967C1347.19 578.136 1345.89 577.636 1344.53 577.529C1343.17 577.422 1341.81 577.713 1340.61 578.366C1336.11 580.81 1333.82 588.008 1333.59 592.735C1333.48 594.76 1333.92 596.776 1334.87 598.575C1335.82 600.373 1337.23 601.888 1338.97 602.961C1341.03 603.888 1343.37 604.018 1345.51 603.327C1347.66 602.635 1349.47 601.172 1350.59 599.226C1351.84 597.101 1352.63 594.738 1352.9 592.291C1353.17 589.845 1352.91 587.37 1352.15 585.028Z" fill="black"/>
<defs>
<clipPath id="clip0_183_59">
<rect width="236.692" height="236.692" fill="white" transform="translate(634.358 536.826)"/>
</clipPath>
</defs>
</svg>
