<svg width="2067" height="2067" viewBox="0 0 2067 2067" fill="none" xmlns="http://www.w3.org/2000/svg">
<circle cx="1033.5" cy="1033.5" r="1033.5" fill="#84C0D1"/>
<path fill-rule="evenodd" clip-rule="evenodd" d="M706.932 1757.62C706.932 1747.86 708.853 1738.19 712.585 1729.16C716.318 1720.14 721.788 1711.94 728.684 1705.03C735.581 1698.13 743.768 1692.65 752.778 1688.91C761.789 1685.17 771.446 1683.25 781.199 1683.25C790.952 1683.25 800.609 1685.17 809.62 1688.91C818.63 1692.65 826.817 1698.13 833.714 1705.03C840.61 1711.94 846.081 1720.14 849.813 1729.16C853.545 1738.19 855.466 1747.86 855.466 1757.62C855.466 1777.35 847.642 1796.27 833.714 1810.22C819.786 1824.16 800.896 1832 781.199 1832C761.502 1832 742.612 1824.16 728.684 1810.22C714.757 1796.27 706.932 1777.35 706.932 1757.62ZM813.028 1757.62C813.028 1749.17 809.674 1741.06 803.705 1735.09C797.736 1729.11 789.641 1725.75 781.199 1725.75C772.758 1725.75 764.662 1729.11 758.693 1735.09C752.724 1741.06 749.37 1749.17 749.37 1757.62C749.37 1766.08 752.724 1774.19 758.693 1780.16C764.662 1786.14 772.758 1789.5 781.199 1789.5C789.641 1789.5 797.736 1786.14 803.705 1780.16C809.674 1774.19 813.028 1766.08 813.028 1757.62ZM1152.53 1757.62C1152.53 1747.86 1154.45 1738.19 1158.19 1729.16C1161.92 1720.14 1167.39 1711.94 1174.29 1705.03C1181.18 1698.13 1189.37 1692.65 1198.38 1688.91C1207.39 1685.17 1217.05 1683.25 1226.8 1683.25C1236.55 1683.25 1246.21 1685.17 1255.22 1688.91C1264.23 1692.65 1272.42 1698.13 1279.32 1705.03C1286.21 1711.94 1291.68 1720.14 1295.41 1729.16C1299.15 1738.19 1301.07 1747.86 1301.07 1757.62C1301.07 1777.35 1293.24 1796.27 1279.32 1810.22C1265.39 1824.16 1246.5 1832 1226.8 1832C1207.1 1832 1188.21 1824.16 1174.29 1810.22C1160.36 1796.27 1152.53 1777.35 1152.53 1757.62ZM1258.63 1757.62C1258.63 1749.17 1255.28 1741.06 1249.31 1735.09C1243.34 1729.11 1235.24 1725.75 1226.8 1725.75C1218.36 1725.75 1210.26 1729.11 1204.29 1735.09C1198.33 1741.06 1194.97 1749.17 1194.97 1757.62C1194.97 1766.08 1198.33 1774.19 1204.29 1780.16C1210.26 1786.14 1218.36 1789.5 1226.8 1789.5C1235.24 1789.5 1243.34 1786.14 1249.31 1780.16C1255.28 1774.19 1258.63 1766.08 1258.63 1757.62Z" fill="black"/>
<path fill-rule="evenodd" clip-rule="evenodd" d="M1311.68 1407H982.781C977.673 1407 972.737 1408.84 968.878 1412.2C965.019 1415.55 962.497 1420.18 961.774 1425.24L946.549 1531.96C944.746 1544.7 932.003 1555.75 919.134 1555.75H738.761C734.406 1555.75 730.158 1557.09 726.592 1559.6C722.443 1562.5 716.884 1566.5 709.616 1571.79C702.076 1577.29 694.557 1582.81 687.06 1588.37C662.202 1605.79 643.275 1642.24 643.275 1672.64V1736.37C643.275 1742.01 645.51 1747.42 649.49 1751.4C653.469 1755.39 658.866 1757.62 664.494 1757.62H685.713C685.713 1732.26 695.773 1707.94 713.68 1690.01C731.587 1672.07 755.875 1662 781.199 1662C806.524 1662 830.811 1672.07 848.718 1690.01C866.625 1707.94 876.685 1732.26 876.685 1757.62H1131.31C1131.31 1732.26 1141.37 1707.94 1159.28 1690.01C1177.19 1672.07 1201.48 1662 1226.8 1662C1252.13 1662 1276.41 1672.07 1294.32 1690.01C1312.23 1707.94 1322.29 1732.26 1322.29 1757.62H1343.51C1349.13 1757.62 1354.53 1755.39 1358.51 1751.4C1362.49 1747.42 1364.73 1742.01 1364.73 1736.37V1630.13C1364.73 1629.02 1364.64 1627.91 1364.47 1626.81L1336.46 1449.2C1341.71 1448.31 1346.43 1445.48 1349.69 1441.27C1352.95 1437.06 1354.52 1431.77 1354.07 1426.46C1353.62 1421.15 1351.19 1416.2 1347.27 1412.59C1343.35 1408.99 1338.22 1406.99 1332.9 1407H1311.68Z" fill="black"/>
<path fill-rule="evenodd" clip-rule="evenodd" d="M823.637 1449.5C841.695 1425.39 878.404 1407 908.514 1407H982.781C988.409 1407 993.806 1409.24 997.785 1413.22C1001.76 1417.21 1004 1422.61 1004 1428.25C1004 1433.89 1001.76 1439.29 997.785 1443.28C993.806 1447.26 988.409 1449.5 982.781 1449.5H908.514C891.772 1449.5 867.625 1461.59 857.588 1475L787.565 1568.5C786.123 1570.43 784.365 1572.09 782.366 1573.43L750.537 1594.68C748.219 1596.23 745.619 1597.31 742.885 1597.85C740.151 1598.39 737.338 1598.39 734.605 1597.84C731.872 1597.29 729.273 1596.21 726.957 1594.66C724.641 1593.11 722.653 1591.12 721.107 1588.79C717.983 1584.1 716.848 1578.37 717.95 1572.84C719.052 1567.31 722.302 1562.45 726.984 1559.32L755.736 1540.12L823.637 1449.5Z" fill="black"/>
<path d="M641.257 1304.61C633.092 1256.86 593.789 1218.37 545.722 1211.02C521.125 1207.21 495.957 1211.51 474.014 1223.28L444.853 1155.1L569.066 844.084C572.331 835.977 573.964 827.431 573.964 818.679C574.01 805.975 570.5 793.512 563.834 782.703C557.167 771.894 547.611 763.172 536.247 757.526L521.62 750.225C520.218 749.52 518.687 749.109 517.121 749.019C515.555 748.929 513.986 749.16 512.513 749.7C511.039 750.239 509.692 751.075 508.553 752.155C507.414 753.236 506.507 754.539 505.89 755.983L389.979 1026.85L274.069 755.983C273.451 754.542 272.546 753.242 271.408 752.163C270.271 751.085 268.926 750.25 267.455 749.711C265.984 749.172 264.419 748.939 262.855 749.028C261.291 749.116 259.762 749.523 258.361 750.225L243.711 757.526C232.348 763.172 222.791 771.894 216.125 782.703C209.458 793.512 205.949 805.975 205.994 818.679C205.994 827.431 207.604 835.977 210.87 844.061L335.083 1155.08L305.921 1223.25C289.345 1214.32 270.813 1209.65 251.991 1209.67C188.585 1209.67 137 1261.33 137 1324.83C137 1388.33 188.585 1440 251.991 1440C315.396 1440 366.981 1388.33 366.981 1324.83C366.981 1279.92 378.135 1248.64 390.071 1227.79C401.961 1248.57 412.149 1278.12 412.931 1319.58C414.173 1383.98 462.078 1436.82 521.988 1439.83C539.23 1440.76 556.459 1437.78 572.385 1431.09C588.312 1424.41 602.524 1414.21 613.958 1401.25C625.479 1388.24 633.918 1372.79 638.645 1356.06C643.372 1339.32 644.264 1321.74 641.257 1304.61ZM251.991 1393.93C213.952 1393.93 182.996 1362.93 182.996 1324.83C182.996 1286.73 213.952 1255.73 251.991 1255.73C290.029 1255.73 320.985 1286.71 320.985 1324.83C320.985 1362.95 290.029 1393.93 251.991 1393.93ZM389.979 1163.6C386.93 1163.6 384.005 1162.39 381.848 1160.23C379.692 1158.07 378.48 1155.14 378.48 1152.08C378.48 1149.03 379.692 1146.1 381.848 1143.94C384.005 1141.78 386.93 1140.57 389.979 1140.57C393.029 1140.57 395.954 1141.78 398.11 1143.94C400.267 1146.1 401.478 1149.03 401.478 1152.08C401.478 1155.14 400.267 1158.07 398.11 1160.23C395.954 1162.39 393.029 1163.6 389.979 1163.6ZM527.968 1393.93C489.929 1393.93 458.974 1362.93 458.974 1324.83C458.974 1286.73 489.929 1255.73 527.968 1255.73C566.007 1255.73 596.962 1286.71 596.962 1324.83C596.962 1362.95 566.007 1393.93 527.968 1393.93Z" fill="black"/>
<path d="M1145.14 844H920.07C913.963 843.994 908.107 841.565 903.789 837.246C899.47 832.928 897.041 827.072 897.035 820.964V657.071H733.141C727.034 657.065 721.178 654.636 716.859 650.317C712.541 645.999 710.112 640.143 710.106 634.035V408.965C710.112 402.857 712.541 397.002 716.859 392.683C721.178 388.364 727.034 385.935 733.141 385.929H897.035V222.036C897.041 215.928 899.47 210.072 903.788 205.754C908.107 201.435 913.963 199.006 920.07 199H1145.14C1151.25 199.006 1157.1 201.435 1161.42 205.754C1165.74 210.072 1168.17 215.928 1168.18 222.036V385.929H1332.07C1338.18 385.935 1344.03 388.364 1348.35 392.683C1352.67 397.001 1355.1 402.857 1355.11 408.965V634.035C1355.1 640.143 1352.67 645.998 1348.35 650.317C1344.03 654.636 1338.18 657.065 1332.07 657.071H1168.18V820.964C1168.17 827.072 1165.74 832.928 1161.42 837.246C1157.1 841.565 1151.25 843.994 1145.14 844Z" fill="black"/>
<path d="M1145.14 844H920.07C913.963 843.994 908.107 841.565 903.789 837.246C899.47 832.928 897.041 827.072 897.035 820.964V657.071H733.141C727.034 657.065 721.178 654.636 716.859 650.317C712.541 645.999 710.112 640.143 710.106 634.035V408.965C710.112 402.857 712.541 397.002 716.859 392.683C721.178 388.364 727.034 385.935 733.141 385.929H897.035V222.036C897.041 215.928 899.47 210.072 903.788 205.754C908.107 201.435 913.963 199.006 920.07 199H1145.14C1151.25 199.006 1157.1 201.435 1161.42 205.754C1165.74 210.072 1168.17 215.928 1168.18 222.036V385.929H1332.07C1338.18 385.935 1344.03 388.364 1348.35 392.683C1352.67 397.001 1355.1 402.857 1355.11 408.965V634.035C1355.1 640.143 1352.67 645.998 1348.35 650.317C1344.03 654.636 1338.18 657.065 1332.07 657.071H1168.18V820.964C1168.17 827.072 1165.74 832.928 1161.42 837.246C1157.1 841.565 1151.25 843.994 1145.14 844ZM733.141 408.965V634.035H908.552C911.607 634.035 914.537 635.249 916.697 637.409C918.857 639.569 920.07 642.498 920.07 645.553V820.964H1145.14V645.553C1145.14 642.499 1146.35 639.569 1148.51 637.409C1150.67 635.249 1153.6 634.035 1156.66 634.035H1332.07V408.965H1156.66C1153.6 408.965 1150.67 407.751 1148.51 405.591C1146.35 403.431 1145.14 400.502 1145.14 397.447V222.036H920.07V397.447C920.07 400.502 918.857 403.431 916.697 405.591C914.537 407.751 911.607 408.965 908.553 408.965H733.141Z" fill="black"/>
<path d="M1593.71 1328.21V1134.28H1734.14V1328.21C1734.14 1349.55 1749.94 1367 1769.25 1367H1874.57C1893.88 1367 1909.68 1349.55 1909.68 1328.21V1056.7H1969.37C1985.52 1056.7 1993.24 1034.59 1980.95 1022.96L1687.44 730.891C1674.1 717.703 1653.74 717.703 1640.4 730.891L1346.89 1022.96C1334.96 1034.59 1342.33 1056.7 1358.48 1056.7H1418.16V1328.21C1418.16 1349.55 1433.96 1367 1453.27 1367H1558.6C1577.91 1367 1593.71 1349.55 1593.71 1328.21Z" fill="black"/>
<path d="M1646.64 893.473C1627.7 905.165 1612.68 922.231 1603.49 942.493C1593.31 961.936 1581.65 985.779 1587.39 1008.19C1589.04 1014.47 1591.91 1020.37 1595.83 1025.55C1613.69 1049.54 1644.93 1056.16 1674.24 1053.42C1684.38 1052.47 1694.39 1050.42 1704.09 1047.31C1716.83 1043.51 1728.25 1036.23 1737.08 1026.29C1767.24 990.728 1738.9 941.395 1712.37 912.884C1695.43 894.683 1671.06 880.511 1646.64 893.473ZM1624.35 899.265C1638.21 890.083 1638.47 870.231 1634.29 855.883C1633.31 852.504 1632 849.23 1630.37 846.112C1628.46 841.811 1625.47 838.079 1621.68 835.284C1617.9 832.488 1613.45 830.725 1608.77 830.168C1587.12 829.528 1581.91 859.527 1584.9 875.582C1586.23 884.224 1590.47 892.152 1596.93 898.052C1600.76 901.179 1605.5 902.986 1610.44 903.204C1615.38 903.422 1620.26 902.041 1624.35 899.265ZM1690.02 814.092C1683.35 818.287 1678.55 824.871 1676.58 832.494C1675.95 834.274 1675.4 836.079 1674.89 837.895C1672.75 844.464 1672.23 851.454 1673.38 858.267C1674.52 865.081 1677.3 871.517 1681.47 877.026C1683.89 879.716 1686.89 881.822 1690.25 883.184C1693.6 884.546 1697.22 885.13 1700.84 884.891C1704.65 884.387 1708.28 882.989 1711.45 880.811C1714.62 878.633 1717.22 875.737 1719.06 872.359C1723.89 863.719 1725.65 853.7 1724.07 843.93C1721.98 828.983 1708.69 804.724 1690.02 814.092ZM1576.27 900.135C1573.94 897.927 1571.05 896.416 1567.91 895.774C1564.77 895.132 1561.51 895.384 1558.51 896.503C1555.89 897.914 1553.58 899.827 1551.71 902.131C1549.84 904.435 1548.44 907.086 1547.6 909.931C1545.55 915.537 1544.7 921.509 1545.09 927.463C1546.12 941.125 1554.95 961.242 1570.87 961.211C1571.88 961.208 1572.88 961.128 1573.87 960.973C1578.38 960.089 1582.53 957.895 1585.8 954.666C1589.07 951.437 1591.31 947.316 1592.25 942.818C1593.53 934.929 1592.73 926.843 1589.92 919.358C1587.12 911.874 1582.41 905.248 1576.27 900.135ZM1779.93 892.734C1778.28 887.006 1775.02 881.868 1770.55 877.919C1767.95 875.887 1764.81 874.665 1761.52 874.404C1758.23 874.143 1754.93 874.854 1752.04 876.449C1741.16 882.424 1735.62 900.02 1735.05 911.574C1734.79 916.524 1735.86 921.453 1738.15 925.85C1740.44 930.246 1743.87 933.949 1748.08 936.572C1753.06 938.837 1758.7 939.156 1763.9 937.465C1769.1 935.775 1773.47 932.198 1776.16 927.441C1779.2 922.246 1781.1 916.47 1781.75 910.49C1782.4 904.51 1781.78 898.46 1779.93 892.734Z" fill="white"/>
</svg>
