<svg width="2067" height="2067" viewBox="0 0 2067 2067" fill="none" xmlns="http://www.w3.org/2000/svg">
<circle cx="1033.5" cy="1033.5" r="1033.5" fill="#84C0D1"/>
<path d="M1437.04 776.167H1283.35C1269.96 725.526 1246.29 678.183 1213.81 637.083H1437.04C1455.48 637.083 1473.17 629.757 1486.21 616.715C1499.25 603.673 1506.58 585.985 1506.58 567.542C1506.58 549.098 1499.25 531.41 1486.21 518.368C1473.17 505.327 1455.48 498 1437.04 498H672.08C653.636 498 635.948 505.327 622.906 518.368C609.865 531.41 602.538 549.098 602.538 567.542C602.538 585.985 609.865 603.673 622.906 616.715C635.948 629.757 653.636 637.083 672.08 637.083H915.476C961.39 637.245 1006.32 650.389 1045.08 675C1083.84 699.61 1114.85 734.683 1134.53 776.167H672.08C653.636 776.167 635.948 783.493 622.906 796.535C609.865 809.577 602.538 827.265 602.538 845.708C602.538 864.152 609.865 881.84 622.906 894.882C635.948 907.923 653.636 915.25 672.08 915.25H1158.87C1150.53 973.011 1121.72 1025.85 1077.68 1064.15C1033.64 1102.44 977.312 1123.64 918.953 1123.88H672.08C668.843 1123.55 665.581 1123.55 662.344 1123.88C657.736 1123.16 653.044 1123.16 648.436 1123.88C643.695 1125.49 639.237 1127.84 635.223 1130.83L626.878 1135.7C623.068 1139.14 619.788 1143.12 617.142 1147.52C614.813 1150.6 612.721 1153.86 610.883 1157.26C610.264 1161.4 610.264 1165.62 610.883 1169.77C605.927 1176.71 603.035 1184.91 602.538 1193.42C602.213 1196.65 602.213 1199.92 602.538 1203.15C601.821 1207.76 601.821 1212.45 602.538 1217.06C604.153 1221.8 606.499 1226.26 609.492 1230.27C609.492 1230.27 609.492 1235.84 614.36 1238.62L1031.61 1725.41C1043.6 1739.43 1060.66 1748.11 1079.05 1749.54C1097.44 1750.98 1115.65 1745.05 1129.66 1733.06C1143.68 1721.07 1152.36 1704.01 1153.8 1685.62C1155.23 1667.23 1149.3 1649.02 1137.31 1635.01L823.681 1262.96H915.476C1011.17 1263.35 1103.53 1227.86 1174.34 1163.49C1245.15 1099.12 1289.26 1010.55 1297.95 915.25H1437.04C1455.48 915.25 1473.17 907.923 1486.21 894.882C1499.25 881.84 1506.58 864.152 1506.58 845.708C1506.58 827.265 1499.25 809.577 1486.21 796.535C1473.17 783.493 1455.48 776.167 1437.04 776.167Z" fill="black"/>
</svg>
