<svg width="2067" height="2067" viewBox="0 0 2067 2067" fill="none" xmlns="http://www.w3.org/2000/svg">
<circle cx="1033.5" cy="1033.5" r="1033.5" fill="#84C0D1"/>
<path d="M1422.84 739.825C1422.84 634.05 1380.82 532.607 1306.03 457.813C1231.23 383.019 1129.79 341 1024.02 341C918.241 341 816.798 383.019 742.004 457.813C667.21 532.607 625.191 634.05 625.191 739.825C625.191 960.045 1024.02 1516.88 1024.02 1516.88C1024.02 1516.88 1422.84 960.045 1422.84 739.825ZM763.913 739.825C763.913 688.381 779.167 638.093 807.748 595.319C836.328 552.545 876.951 519.207 924.478 499.521C972.006 479.834 1024.3 474.683 1074.76 484.719C1125.21 494.756 1171.56 519.528 1207.94 555.904C1244.31 592.28 1269.08 638.626 1279.12 689.081C1289.16 739.536 1284.01 791.834 1264.32 839.362C1244.63 886.889 1211.29 927.512 1168.52 956.092C1125.75 984.673 1075.46 999.928 1024.02 999.928C955.032 999.928 888.874 972.524 840.095 923.745C791.316 874.966 763.913 808.808 763.913 739.825Z" fill="#1E252D"/>
<path d="M1224.73 1272.82C1194.82 1321.59 1165.77 1366.67 1140.2 1405.26C1248.57 1420 1324.43 1454.68 1324.43 1495.43C1324.43 1549.18 1190.05 1592.96 1024.02 1592.96C857.983 1592.96 723.597 1549.61 723.597 1495.43C723.597 1454.46 799.894 1419.78 908.053 1405.26C882.476 1366.67 853.431 1321.37 823.52 1272.6C561.249 1302.3 371.807 1390.3 371.807 1494.56C371.807 1623.53 663.773 1728 1024.02 1728C1384.26 1728 1676.22 1623.53 1676.22 1494.56C1676.22 1390.3 1486.78 1302.3 1224.73 1272.82Z" fill="#1E252D"/>
</svg>
