<svg width="2067" height="2067" viewBox="0 0 2067 2067" fill="none" xmlns="http://www.w3.org/2000/svg">
<circle cx="1033.5" cy="1033.5" r="1033.5" fill="#84C0D1"/>
<path fill-rule="evenodd" clip-rule="evenodd" d="M1040.77 271.236C620.082 271.236 277.097 613.736 277.097 1034.35C277.097 1454.97 620.152 1797.88 1040.77 1797.88C1461.38 1797.88 1803.74 1454.97 1803.74 1034.35C1803.74 613.736 1461.38 271.236 1040.77 271.236ZM1040.77 409.985C1122.79 409.847 1204.04 425.905 1279.84 457.235C1355.65 488.566 1424.52 534.553 1482.52 592.56C1540.51 650.567 1586.48 719.452 1617.8 795.265C1649.11 871.078 1665.15 952.327 1665 1034.35C1665.16 1116.4 1649.13 1197.67 1617.82 1273.51C1586.52 1349.35 1540.55 1418.27 1482.56 1476.31C1424.57 1534.35 1355.7 1580.38 1279.89 1611.75C1204.07 1643.12 1122.81 1659.23 1040.77 1659.14C958.685 1659.24 877.388 1643.14 801.533 1611.78C725.678 1580.42 656.753 1534.41 598.706 1476.37C540.658 1418.34 494.628 1349.42 463.25 1273.58C431.872 1197.73 415.763 1116.43 415.845 1034.35C415.845 688.73 695.145 409.985 1040.77 409.985ZM1039.66 547.762C1030.49 547.851 1021.43 549.758 1013 553.372C1004.57 556.986 996.942 562.235 990.555 568.815C984.169 575.395 979.15 583.177 975.789 591.709C972.429 600.241 970.793 609.355 970.977 618.523V1034.35C971.015 1043.48 972.855 1052.51 976.39 1060.93C979.926 1069.35 985.088 1076.98 991.581 1083.4L1269.08 1361.03C1275.5 1367.64 1283.17 1372.9 1291.64 1376.51C1300.11 1380.12 1309.22 1382.01 1318.43 1382.06C1327.64 1382.11 1336.77 1380.33 1345.28 1376.82C1353.8 1373.31 1361.53 1368.13 1368.02 1361.6C1374.52 1355.07 1379.65 1347.31 1383.11 1338.78C1386.57 1330.24 1388.3 1321.11 1388.2 1311.9C1388.09 1302.69 1386.16 1293.59 1382.5 1285.14C1378.84 1276.68 1373.54 1269.04 1366.89 1262.66L1109.86 1005.63V618.523C1110.05 609.226 1108.37 599.987 1104.91 591.354C1101.46 582.721 1096.3 574.87 1089.75 568.269C1083.2 561.668 1075.39 556.451 1066.79 552.928C1058.18 549.405 1048.96 547.648 1039.66 547.762Z" fill="black"/>
</svg>
