<svg style="content-visibility:visible;height:100%;width:100%" viewBox="0 0 800 800" xmlns="http://www.w3.org/2000/svg"><defs><clipPath id="prefix__a"><path d="M0 0h800v800H0z"/></clipPath></defs><g clip-path="url(#prefix__a)"><path d="M329.459 686.119c-2.197-.623-247.773 25.52-260.225 39.989-12.452 14.469 10.574 25.112 10.574 25.112s-62.25 32.316-28.007 39.165c34.243 6.849 306.762 5.33 301.866-4.807-4.89-10.135-31.931-32.703-31.931-32.703s410.562 7.174 435.467-10.344c24.905-17.518-99.948-35.225-137.453-31.353-37.5 3.874-290.294-25.06-290.294-25.06z" fill="#43565a" display="block"/><g display="block"><path d="M334.107 704.17H306.29v-49.295h27.817v49.296zM267.155 707.176h-27.817V657.88h27.817v49.296z" fill="#f8ca8a"/><path d="M349.395 315.23c12.255 42.606 10.756 99.025 6.193 143.273-5.328 51.667-.754 176.685-14.077 226.892h-43.55l-6.147-316.866s-9.438-32.522-7.078-47.76c27.003.349 38.918 4.099 64.659-5.535z" fill="#467580"/><path d="M226.913 332.251c-26.63 36.34-13.47 76.86-2.187 119.888 13.175 50.24 2.197 178.161 8.497 233.248l41.158.725 27.872-313.256s.89-38.088 11.99-51.52c-27.003.348-61.59 20.545-87.331 10.912zM297.65 711.628h31.132l12.621-13.748 23.087 13.748h4.972c1.714 0 3.284 1.16 3.607 2.842a3.546 3.546 0 01-3.476 4.244h-72.387a.963.963 0 01-.964-.962v-4.716c0-.777.63-1.408 1.407-1.408z" fill="#48808d"/><path d="M311.146 695.432s12.075 8.566 22.72-1.8l26.43 11.725s7.247 2.422 9.21 6.31h-71.585l3.706-11.475s1.536-8.362 9.519-4.76z" fill="#1e2628"/><path d="M298.018 711.392h71.575c2.1 0 3.808 1.707 3.808 3.807a3.8 3.8 0 01-1.345 2.904l-.342-.403a3.278 3.278 0 00-2.12-5.778h-71.576c-.833 0-1.511.678-1.511 1.511v3.532h-.53v-3.532c0-1.125.915-2.041 2.041-2.041z"/><path d="M362.913 706.137c5.41 2.308 6.86 5.278 6.919 5.404l-.48.226c-.012-.029-1.442-2.922-6.647-5.142-5.32-2.27-28.708-12.643-28.944-12.747l.215-.485c.235.104 23.62 10.476 28.937 12.744z"/><path d="M231.069 711.628H262.2l12.623-13.748 23.086 13.748h4.972c1.714 0 3.285 1.16 3.608 2.842a3.546 3.546 0 01-3.476 4.244h-72.388a.963.963 0 01-.964-.962v-4.716c0-.777.63-1.408 1.408-1.408z" fill="#37a5be"/><path d="M244.566 695.432s12.074 8.566 22.718-1.8l26.432 11.725s7.248 2.422 9.21 6.31H231.34l3.865-13.789s1.378-6.048 9.36-2.446z" fill="#2a3436"/><path d="M231.438 711.392h71.575a3.81 3.81 0 013.807 3.807 3.8 3.8 0 01-1.344 2.904l-.343-.403a3.278 3.278 0 00-2.12-5.778h-71.575c-.834 0-1.512.678-1.512 1.511v3.532h-.529v-3.532c0-1.125.915-2.041 2.04-2.041z"/><path d="M296.332 706.137c5.41 2.308 6.86 5.278 6.92 5.404l-.48.226c-.013-.029-1.441-2.922-6.648-5.142-5.32-2.27-28.708-12.643-28.944-12.747l.216-.485c.235.104 23.62 10.476 28.936 12.744z"/></g><g display="block"><path d="M339.99 301.024c12.041 1.721 22.977-2.296 21.594-18.586l-1.208-78.93c-13.3-1.812-28.524-4.647-41.433-12.323l5.763 67.014s.193 41.466 15.284 42.825z" fill="#f8d39f"/><path d="M316.489 215.264l-.11-59.147c-.78-9.02 4.964-16.422 13.678-17.623l9.374-1.29c11.44-1.577 19.54 11.482 20.433 23.317l7.502 67.599c-13.3-1.812-35.18-3.669-50.877-12.856z" fill="#37a5be"/></g><path d="M326.721 271.315c9.836-6.864 22.6-8.942 32.524 3.835l57.551 87.839c-1.328 10.275 4.423 10.525-17.272 13.82L342.148 310.3s-28.303-30.977-15.427-38.985z" fill="#f8d39f" display="block"/><path d="M332.885 63.171c-4.978-12.801 14.273-36.168-34.115-31.277-8.584 0-10.469 9.225-16.732 14.148-8.58 6.744-17.383 10.165-17.383 21.926 0 6.692 2.39 12.126 5.114 19.277 1.399 3.672 5.88 11.39 7.895 14.662 5.99 9.728 18.784-4.283 29-4.283 14.657-16.911 26.22-14.108 26.22-34.453z" display="block"/><g display="block"><path d="M281.733 86.475l-.517 43.505 29.992 8.952 1.828-44.16-31.303-8.297z" fill="#f8d39f"/><path d="M312.097 116.799l.955-21.89s-32.175-40.328-28.587-3.897c0 0 5.914 23.015 27.632 25.787z" fill="#e5bd84"/><path d="M347.716 261.325c.152-44.264 9.648-61.66 11.424-105.899.196-4.87-1.88-9.532-5.552-12.569-9.907-8.193-18.628-13.166-32.477-17.131-8.973-2.592-18.197-4.065-27.262-4.326-9.545-.286-18.77 1.497-27.65 4.658-11.606 4.16-18.355 8.444-28.648 15.909-5.255 3.812-11.786 12.955-9.803 19.287 0 0 23.982-15.157 32.983-.634 10.714 17.287 4.237 65.917-33.121 83.461-1.276 9.362-2.43 18.823-2.915 28.429-2.381 47.082-12.9 82.25-25.045 122.09-1.45 4.753 7.037 13.31 11.681 15.077 43.927 16.719 92.358-4.968 140.855-12.53 10.646-1.66-1.246-20.1-3.34-30.67-6.767-34.131-1.208-85.638-1.134-105.156" fill="#37a5be"/><path d="M260.728 160.614c-9.001-14.523-32.983.635-32.983.635 8.627 27.546 3.69 54.74-.138 82.826 37.358-17.544 43.835-66.174 33.12-83.461" fill="#37a5be"/><path d="M248.59 154.32h-.014c-9.88.005-20.831 6.929-20.831 6.929 3.521 11.244 4.783 22.43 4.782 33.642 0 16.255-2.654 32.563-4.92 49.184 26.887-12.627 37.779-41.356 37.777-62.914-.001-8.394-1.654-15.702-4.656-20.547l-.03-.047a7.853 7.853 0 00-.055-.088s0-.002-.002-.002c-2.917-4.597-7.363-6.157-12.05-6.157" fill="#4e8a97"/><path d="M327.573 127.779s-1.883 1.422-5.325 13.476c-2.985 10.449-3.815 19.114-9.556 27.692-16.515-4.98-47.568-42.5-47.568-42.5 13.736-6.697 31.45-6.832 46.38-3.573l16.07 4.905z" fill="#f8d39f"/><path d="M268.45 124.989l50.072 53.606-13.814 1.012-46.543-50.268 10.285-4.35z" fill="#426c75"/><path d="M322.246 126.15l-17.543 53.454 15.592-1.143 11.343-49.493-9.392-2.819z" fill="#48808d"/><path d="M292.716 274.526h-52.84v-10.052h52.84v10.052z" fill="#426c75"/><path d="M292.716 311.538h-52.84v-37.012h52.84v37.012z" fill="#48808d"/><path d="M339.331 187.799s-9.292-43.057-9.292-45.962c0-5.89-2.468-14.063-2.468-14.063s8.115 1.79 12.641 5.695c0 0 15.674 54.872 15.757 55.568.287 2.411-16.638-1.238-16.638-1.238z" fill="#447b87"/><path d="M361.398 343.176c-.526-13.674-2.607-57.31-2.466-65.045.142-7.736-.37-9.349.215-23.49.432-10.416 1.627-24.453-.215-38.035-.437-3.23 1.46-21.36-2.964-27.57l-89.68-6.675s-2.802 16.081-1.17 29.047c1.317 10.452-3.6 24.54-11.605 57.296l-27.836-8.883s-1.1 16.408-1.5 20.929c0 0 14.932 7.32 24.667 9.166-1.164 12.468-9.084 59.735-16.82 104.499-7.972 46.114-15.75 89.568-15.75 89.568s99.697-8.65 126.71 1.752c33.253 12.805 30.422-22.053 30.422-22.053S361.924 356.85 361.397 343.18z" fill="#447b87"/><path d="M330.72 295.248c-2.493-3.26-6.712-6.249-7.778-8.79-1.067-2.54-4.578-6.28-8.1-.308 0 0-.981 2.774-4.857 5.711-3.877 2.937-7.387 6.015-6.283 11.808 1.103 5.792 8.436 4.272 10.977 2.78 2.542-1.491 5.62-.732 6.558-.2.939.532 4.219 4.692 8.193 2.474 3.973-2.218 3.783-10.214 1.29-13.475zM301.81 290.927s1.216 2.735 5.057 1.172c3.84-1.56 3.779-9.18 1.045-11.946-2.734-2.765-8.699.383-6.101 10.774zM330.046 290.327s.543 2.942 4.642 2.32c4.1-.622 5.819-8.045 3.806-11.372-2.013-3.328-8.549-1.66-8.448 9.052zM310.508 280.616s1.26 2.752 5.435 1.25c4.175-1.503 4.255-9.123 1.359-11.93-2.897-2.806-9.396.25-6.794 10.68zM322.426 282.032c.794 2.194 3.26 3.388 5.397 2.45.289-.127.593-.282.91-.471 3.817-2.265 2.458-9.762-.916-11.971-3.163-2.07-8.458 1.511-5.39 9.992z" fill="#fff"/></g><g display="block"><path d="M195.342 766.069h-21.306V485.766h21.306V766.07z" fill="#5b757b"/><path d="M195.342 520.917l-21.306-8.522v-26.633h21.306v35.155z" fill="#43565a"/><path d="M136.127 745.689h-21.305V465.386h21.305V745.69z" fill="#5b757b"/><path d="M136.127 500.537l-21.305-8.522v-26.633h21.305v35.155z" fill="#43565a"/><path d="M676.509 747.399h-21.306V485.757h21.306V747.4z" fill="#5b757b"/><path d="M676.509 520.917l-21.306-8.522v-26.633h21.306v35.155z" fill="#43565a"/><g><path d="M575.904 718.711h-21.306V465.377h21.306v253.334z" fill="#5b757b"/><path d="M575.904 500.537l-21.306-8.522v-26.633h21.306v35.155z" fill="#43565a"/></g><g><path d="M692.842 490.593h-532.29l-59.576-20.773v-12.784l532.29 12.784 59.576 7.99v12.783z" fill="#5b757b"/></g><g><path d="M692.842 477.81h-532.29l-59.576-20.772h532.29l59.576 20.772z" fill="#43565a"/></g><g><path d="M590.993 324.402s-1.299 2.774-2.184 6.964c-.885 4.19-5.547 10.623-5.43 11.449.12.826-.236 2.714.295 2.655.458-.05 5.857-5.786 9.309-10.356a5.539 5.539 0 014.524-2.21c.913.019 1.873.096 2.633.29 2.081.536 2.715 1.3 3.069.827.354-.472-.767-7.907-12.216-9.619z" fill="#447b87"/><path d="M581.788 315.437h30.638c1.817 0 3.608.434 5.225 1.264l4.658 2.392a1.504 1.504 0 01.515 2.24c-1.755 2.346-4.972 7.123-4.8 10.393l.118 4.368h-14.4s-4.604-9.797-16.82-11.686h-5.134a1.18 1.18 0 01-1.18-1.18v-6.61c0-.652.528-1.18 1.18-1.18z" fill="#447b87"/><path d="M618.743 336.089H601.57a.678.678 0 00-.679.68v10.65c0 .587.476 1.063 1.063 1.063h16.404c.588 0 1.063-.476 1.063-1.063v-10.65a.679.679 0 00-.678-.68z" fill="#37a5be"/><path d="M602.132 345.476s-3.776 2.477-5.252 5.546c-1.476 3.07-.65 8.97-.354 10.328.295 1.358-2.656 4.013-1.358 7.141s1.77 2.951 1.062 5.43c-.708 2.478-2.183 2.596-1.003 5.606s1.18 7.2.65 9.914c-.532 2.715-14.432-.379-30.65 8.5-3.225 1.765-9.503 8.733-12.158 21.186-2.656 12.452-1.18 29.271-.65 36.294.532 7.023-.413 9.56 4.19 10.8 4.603 1.24 55.496 3.777 66.356 0 0 0 1.298-.531 2.006-1.24s2.597-12.629 3.01-18.176c.413-5.548.826-19.416-.65-35.291s-3.895-22.898-5.193-30.57c-1.298-7.672-2.124-21.246-2.478-25.024s-.354-8.616-1.004-8.675c-.65-.059-6.255-4.6-16.524-1.769z" fill="#447b87"/><path d="M574.837 445.996h30.224c8.499 0 15.388-6.89 15.388-15.388v-.385a15.37 15.37 0 00-2.694-8.7c-3.721-5.422-11.347-13.912-23.208-15.15-16.94-1.767-27.376 8.696-32.103 15.112a15.377 15.377 0 00-2.995 9.123c0 8.498 6.89 15.388 15.388 15.388z" fill="#fff"/></g></g><g display="block"><path d="M360.382 389.66s-61.042 29.49-68.708 35.977c-7.667 6.487-9.731 20.937-9.731 24.77 0 3.833 11.795 18.015 11.795 18.015s-25.36-1.404-29.783-3.664c-4.423-2.261-1.18-26.71 1.18-35.717s37.908-32.599 45.936-35.842c8.028-3.244 49.31-3.54 49.31-3.54zM493.64 380.871s-12.3 28.289-12.607 30.75c-.307 2.46-1.23 34.13 0 36.59 1.23 2.46 20.294 13.221 12.607 15.681s-23.984-.922-32.286-2.766c-8.303-1.845-8.917-18.142-9.84-35.362-.922-17.219 8.068-36.282 14.95-39.05 6.882-2.767 27.176-5.843 27.176-5.843z" fill="#d1a66a"/><path d="M246.45 404.243c4.92-5.227 8.61-9.532 10.762-15.682 2.153-6.149 4.305-51.042 8.303-59.037 3.997-7.995 20.293-31.055 25.828-33.823 5.534-2.768 19.064-4.612 28.903-4.64 5.05-.014 21.598-.67 36.513-1.303 6.071-2.265 16.138-1.477 26.831-1.185 2.948.08 5.942.125 8.915.056 15.515-.361 30.477-4.88 33.823-7.687 7.15-5.996 22.754-1.61 42.433-17.988 3.05-2.538 21.689-32.945 35.284-42.663 0 0 7.842-11.761 23.754-11.07 15.911.692 27.211 12.223 29.979 15.451 2.768 3.23 2.536 8.071 2.536 11.53 0 3.46 1.154 6.228 6.227 8.534 5.074 2.306 16.604 7.61 17.065 10.838.461 3.229-2.997 8.534-3.689 10.378-.692 1.845-3.92 7.61-8.302 10.608-4.382 2.999-13.034 3.352-19.03 3.582-5.995.23-9.324-3.173-10.476-2.02-1.153 1.152-12.235 17.58-13.619 19.193-1.383 1.614 1.307 32.517-1.922 42.663-3.229 10.147-6.035 29.908-17.219 40.896-8.763 8.61-40.434 13.76-43.663 18.833-3.229 5.074-7.148 36.206-7.84 39.665-.692 3.46 1.153 12.915 1.383 13.607.23.691 13.376 7.15 14.529 10.378 1.153 3.229-25.367 4.843-32.978 2.075-7.61-2.768-15.008-33.088-15.681-40.28-1.18-12.608-.92-33.566-.92-33.566a54.744 54.744 0 01-3.078-.258c-7.994-.922-40.894 0-57.499-.307-16.604-.308-47.353 9.84-57.5 15.99-10.147 6.149-37.82 15.065-47.045 22.138-9.225 7.072-3.69 23.369-2.46 27.366s7.995 7.38 9.532 10.332c1.538 2.951-22.446 1.045-26.136 0-3.69-1.046-2.767-23.246-3.074-31.548-.308-8.302 4.612-25.829 9.532-31.056z" fill="#ffbe66"/><path d="M557.798 224.672c2.767 3.23 2.536 8.072 2.536 11.532 0 3.459 1.154 6.227 6.227 8.532 5.074 2.307 16.604 7.61 17.065 10.839.461 3.229-2.998 8.533-3.69 10.377-.692 1.845-3.92 7.61-8.301 10.61-3.909 2.674-11.214 3.243-17.002 3.498 3.73-6.363 9.183-18.428 9.87-20.608.89-2.82-3.052-8.091-4.625-11.925-1.572-3.833-.463-11.29-1.572-14.842-3.46-11.076-9.169-14.906-8.046-14.924 3.786 2.822 6.394 5.576 7.538 6.911z" fill="#f1d2a6"/><path d="M530.202 260.541c1.43 0 2.826-.305 4.106-1.036 4.606-2.632 4.301-7.463 3.947-13.055a109.77 109.77 0 01-.178-3.365c-.235-7.077-8.528-23.29-8.881-23.977a1.074 1.074 0 00-1.911.982c.084.164 8.425 16.468 8.646 23.067.04 1.184.111 2.325.181 3.428.367 5.803.415 9.178-2.87 11.055-4.266 2.438-11.177-1.689-13.928-4.44-.816-.816-1.982-2.104-3.332-3.597-4.776-5.277-8.31-9.054-10.29-9.594-2.467-.672-4.74-1.487-4.762-1.495a1.075 1.075 0 00-.727 2.022c.096.035 2.376.85 4.924 1.546 1.527.416 6.368 5.766 9.261 8.963 1.37 1.514 2.553 2.82 3.407 3.674 2.282 2.283 7.535 5.821 12.407 5.822z" fill="#d1a66a"/><path d="M573.383 251.562c1.103-.662 4.778-.157 8.547 1.694.942.833 1.553 1.62 1.651 2.311.461 3.229-2.998 8.533-3.69 10.378-.349.93-1.345 2.86-2.808 4.928-1.362-.595 1.008-7.454.69-8.167-.812-1.814-4.364-1.565-5.146-2.641-1.09-1.5-.973-7.465.756-8.503zM539.312 268.636c.782-1.135 1.444-.825 2.53 1.215 1.08 2.026 2.87 3.71 2.87 3.71s1.238 1.327 2.638 2.235c1.401.909 2.78 1.244 2.78 1.244s-2.7-.269-6.44-2.564c-.66-.208-1.474-.846-2.484-1.736-2.397-2.117-2.675-2.968-1.894-4.104zM571.982 267.034c.217-.502.811-.723 1.326-.538.344.124.656.315.61.592-.099.59-.54.984-1.081.885-.541-.098-.887-.624-.886-.828 0-.03.012-.067.03-.111zM568.01 265.738c.218-.502.811-.723 1.326-.537.343.124.655.314.61.592-.099.59-.541.983-1.082.885-.54-.099-.887-.625-.886-.828 0-.03.012-.068.031-.112zM564.9 264.067c.159-.366.592-.527.968-.391.25.09.478.229.444.43-.071.431-.393.719-.788.647-.395-.072-.648-.456-.647-.605 0-.021.009-.049.023-.08zM570.514 270.68c.146-.526.703-.829 1.239-.716.357.075.693.219.686.5-.015.597-.398 1.048-.947 1.026-.55-.022-.965-.494-.993-.696a.292.292 0 01.015-.114zM566.369 269.955c.146-.527.703-.83 1.239-.717.357.075.693.22.686.5-.015.598-.398 1.05-.947 1.027-.55-.022-.965-.494-.993-.696a.292.292 0 01.015-.114zM563.086 268.738c.106-.384.514-.605.904-.523.261.054.506.16.501.365-.011.436-.29.766-.692.75-.4-.017-.703-.361-.723-.509-.003-.02 0-.05.01-.083z" fill="#43565a"/><path d="M525.757 293.816a1.073 1.073 0 001.054-1.285c-2.296-11.497-8.018-33.138-8.076-33.356a1.073 1.073 0 00-2.076.55c.057.217 5.763 21.794 8.045 33.227.102.51.551.864 1.053.864zM508.678 367.14a1.076 1.076 0 001.022-1.404c-.255-.787-6.297-19.372-11.623-27.521-2.326-3.56-10.055-11.035-19.004-19.69-11.824-11.435-25.225-24.397-29.026-31.131a1.073 1.073 0 10-1.87 1.056c3.954 7.005 17.475 20.082 29.403 31.619 8.488 8.209 16.504 15.963 18.699 19.321 5.168 7.91 11.317 26.817 11.378 27.007.147.455.568.744 1.021.744z" fill="#d1a66a"/><path d="M464.917 265.91s6.896 10.744 16.359 20.602c16.59 17.282 46.943 32.937 46.943 32.937v7.541s-33.954-19.767-46.432-30.54c-18.135-15.658-20.264-28.254-20.264-28.254l3.394-2.287z" fill="#43565a"/><path d="M543.204 241.097h0a6.048 6.048 0 018.076-1.584l.612.379" stroke="#43565a" stroke-linecap="round" stroke-linejoin="round" stroke-width="1.72712" fill="none"/></g><g display="block"><path d="M294.49 294.476s-21.904 3.69-46.195 12.607c-24.29 8.917-38.128 20.99-55.962 25.561-17.834 4.572-15.989.574-23.676 7.647-7.688 7.072 9.533 12.914 15.99 17.22 6.456 4.304 10.454 7.07 25.52 4.61a196.03 196.03 0 015.188-.768c.838-.114 2.226-13.114 3.048-13.22 1.207-.154 1.943 11.94 2.998 12.445 6.564 3.15 16.824-1.569 18.196-5.682 1.844-5.534 2.76-14.55 5.52-14.55 1.318 0-1.94 15.473 2.366 14.55 4.304-.922 18.032-14.605 26.641-24.445 8.61-9.839 20.367-35.975 20.367-35.975z" fill="#ffbe66"/><path d="M262.515 344.37a1.074 1.074 0 01-1.04-1.109c.008-.215.22-5.433 4.152-17.626 2.123-6.583 7.487-13.286 11.611-17.748a91.322 91.322 0 016.085-6.001c2.86-2.552 3.208-2.552 3.575-2.552a1.074 1.074 0 01.367 2.084c-1.795 1.08-15.957 13.599-19.594 24.876-3.818 11.837-4.047 16.99-4.048 17.037a1.074 1.074 0 01-1.073 1.04c-.012 0-.023 0-.035-.002zm24.383-42.888h.001zm.003 0z" fill="#d1a66a"/></g><g display="block"><path d="M281.564 82.692l.472-22.154s9.72-17.184 18.193-18.22c20.207-2.474 25.953 19.888 25.953 19.888s4.54 23.766-2.078 37.897c-2.957 6.315-10.125 9.466-16.886 7.763-3.787-.954-8.557-2.439-13.148-4.653-7.83-3.777-12.69-11.83-12.506-20.52z" fill="#f8d39f"/><path d="M314.08 79.423c-.568-3.282 1.769-6.183 1.792-6.213a.28.28 0 00-.039-.393.28.28 0 00-.394.04c-.103.124-2.521 3.121-1.91 6.657.375 2.17 1.81 4.047 4.27 5.581-.375.7-1.658 2.836-3.48 3.099a.28.28 0 00.02.556l.06-.003c2.47-.356 3.957-3.503 4.02-3.637l.106-.228-.216-.128c-2.447-1.472-3.869-3.266-4.228-5.331z" fill="#f0b460"/><path d="M306.67 74.51a1.557 1.557 0 10-.212 3.105 1.557 1.557 0 00.212-3.106zM322.352 76.08a1.557 1.557 0 10-.21 3.108 1.557 1.557 0 00.21-3.107zM311.152 68.708c-4.363-1.86-8.831.366-9.018.462a.555.555 0 00.501.989c.042-.021 4.204-2.083 8.081-.43a.555.555 0 00.436-1.021zM317.915 69.615a.555.555 0 10.081 1.107c4.22-.309 7.472 2.992 7.505 3.025a.554.554 0 10.796-.773c-.147-.15-3.653-3.705-8.382-3.359z"/><path d="M313.08 54.7l2.01-1.026-7.05-7.63 5.04 8.655zM282.63 69.804a8.731 8.731 0 10-1.181 17.423 8.731 8.731 0 001.182-17.423z" fill="#f9d199"/><path d="M282.676 74.735c-1.847-1.184-4.163-.602-4.26-.576a.28.28 0 00.14.542c.022-.005 2.174-.548 3.818.505.73.468 1.254 1.185 1.566 2.137-.89-.646-2.552-1.444-4.51-.406-1.376.73-2.03 2.272-1.664 3.928.308 1.4 1.437 2.856 3.266 2.98l.051.004a.28.28 0 10.03-.56c-1.675-.093-2.554-1.427-2.8-2.545-.236-1.066-.016-2.573 1.378-3.313 2.524-1.339 4.442.795 4.522.886l.662.754-.176-.987c-.275-1.539-.956-2.666-2.023-3.35z" fill="#f0b460"/><path d="M323.805 60.152s-3.33-2.6-14.672-5.692-13.543-3.601-13.913-6.006c-4 3.248-3.37 7.77-.9 11.124 0 0 .497 3.624-5.694 6.827-6.192 3.203-3.04 11.225-3.04 11.225l-.085 1.154c-.41 5.505-3.313 10.596-8.834 10.596-1.98 0-1.926.459-1.982-.636-.166-3.285 4.642-8.722-1.38-14.756-6.023-6.032.196-17.735 1.733-26.5 2.624-14.971 24.026-17.622 38.11-14.359 4.497 4.443 8.992 9.262 12.392 13 4.063 4.467 10.619 9.897 10.396 15.931-.198 5.364-5.403 16.975-8.032 19.188.751-7.246-4.1-21.096-4.1-21.096z"/><path d="M307.759 90.51l-.711.55c1.706 2.2 5.124 3.638 5.269 3.698l.344-.83c-.033-.013-3.342-1.408-4.902-3.417z" fill="#f0b460"/><path d="M287.027 41.158c0-9.985-8.094-18.08-18.08-18.08s-18.079 8.095-18.079 18.08c0 9.985 8.094 18.08 18.08 18.08s18.08-8.095 18.08-18.08z"/></g><g display="block"><path d="M368.946 221.396l10.44 13.951s-2.32 5.94-8.772 13.057l-2.1-.082.024 1.76s-7.393 7.368-13.147 11.888l-2.55-.483.323 2.289s-9.798 8.795-15.528 11.77c-5.73 2.976-10.535 5.84-13.774 6.55l-9.995-14.422 55.08-46.278z" fill="#fff"/><path d="M308.671 265.645c-2.538-3.143 8.627-16.37 24.938-29.545 16.312-13.174 31.594-21.305 34.132-18.162 0 0 2.042 1.553 2.392 2.961 2.538 3.143-8.627 16.37-24.938 29.545-16.312 13.173-31.594 21.306-34.132 18.162 0 0-1.531-.479-2.392-2.96z" fill="#5d787e"/><path d="M309.698 262.516s-63.715 44.094-63.1 51.562c.614 7.468 8.21 5.917 13.054 2.467 11.533-8.217 54.748-48.207 54.748-48.207l-4.702-5.822z" fill="#5d787e"/><path d="M368.327 248.617a.91.91 0 00.59-1.573l-7.518-7.025a.91.91 0 00-1.243 1.329l7.519 7.024a.907.907 0 00.652.245zM352.514 261.979a.91.91 0 00.612-1.553l-7.535-7.524a.909.909 0 00-1.285 1.286l7.535 7.525c.186.186.43.274.673.266zM338.695 273.66a.91.91 0 00.685-1.469l-6.659-8.532a.91.91 0 00-1.434 1.119l6.66 8.533a.906.906 0 00.748.35z" fill="#fff2e0"/><path d="M249.485 294.673s11.715-8.841 16.869-11.407c5.153-2.566 17.405-6.11 22.298-10.854 4.894-4.745 5.805 2.881 1.045 6.57-4.759 3.688-7.96 3.55-9.072 7.03-1.112 3.481 11.225 6.496 10.723 10.456-.502 3.96-5.854 5.52-5.854 5.52s1.75 2.393-3.197 3.383l-4.945.992s-.768 4.23-4.565 5.474c-3.797 1.244-8.068 3.108-12.683-1.618-4.614-4.725-10.62-15.546-10.62-15.546z" fill="#f8d39f"/><path d="M157.708 263.854c4.12-11.264 13.386-20.287 28.842-15.513l83.801 34.264c4.805 9.179 9.66 6.084-6.221 21.228l-71.423-16.891s-40.953-9.143-35-23.088z" fill="#f8d39f"/></g><g display="block"><path d="M169.52 277.78c-10.851-5.496-17.506-15.059-7.029-27.61l46.262-63.964c11.935 6.145 26.031 12.555 41.009 13.671l-43.16 51.59s-23.941 33.856-37.083 26.313z" fill="#f8d39f"/><path d="M237.96 221.01l34.017-48.388c5.812-6.942 5.352-16.3-1.097-22.281l-6.939-6.434c-8.467-7.853-25.306-3.98-32.827 5.202l-42.203 53.25c11.934 6.144 30.921 17.172 49.05 18.65z" fill="#37a5be"/></g><path d="M266.288 185.688l-12.18-54.871s11.105-4.835 12.082-4.763c.977.072 15.842 63.813 15.842 63.813l-15.744-4.179z" fill="#447b87" display="block"/></g></svg>