<svg width="2710" height="665" viewBox="0 0 2710 665" fill="none" xmlns="http://www.w3.org/2000/svg">
<path d="M1075 154.5C1075 106.5 1101 77 1157.5 77H1209.5V126.5H1169.5C1148.5 126.5 1139.5 137.5 1139.5 158V172H1206V221.5H1139.5V432H1075V221.5H1037V172H1075V154.5ZM1350.82 438C1296.32 438 1262.82 400.5 1262.82 337V165H1326.82V321C1326.82 366 1341.32 386 1372.32 386C1406.82 386 1426.82 362.5 1426.82 318.5V165H1490.82V432H1432.32L1431.32 387.5C1417.82 421 1390.32 438 1350.82 438ZM1561.16 432V165H1621.16L1622.66 216.5C1633.16 180.5 1654.16 165 1686.66 165H1711.16V220H1686.16C1645.16 220 1625.16 237 1625.16 278V432H1561.16Z" fill="#423030"/>
<path d="M1874.71 438C1800.21 438 1756.21 380.5 1756.21 299.5C1756.21 218.5 1800.21 161 1874.71 161C1935.21 161 1974.71 196 1985.21 252L1950.71 254C1942.71 215 1915.21 192.5 1874.71 192.5C1822.21 192.5 1790.71 233 1790.71 299.5C1790.71 366 1822.21 406.5 1874.71 406.5C1915.21 406.5 1943.71 383 1951.21 339.5L1985.71 342C1975.71 399.5 1935.21 438 1874.71 438ZM2092.71 432C2063.21 432 2044.21 417.5 2044.21 385.5V77H2077.21V383C2077.21 396 2084.21 402.5 2097.71 402.5H2118.21V432H2092.71ZM2261.09 438C2208.09 438 2174.09 400.5 2174.09 337.5V167H2207.09V327.5C2207.09 382 2228.09 408.5 2269.59 408.5C2315.09 408.5 2343.59 376.5 2343.59 325V167H2376.59V432H2345.59L2345.09 384C2332.09 418.5 2302.09 438 2261.09 438ZM2568.91 438C2528.91 438 2497.41 416 2482.91 383L2481.41 432H2452.41V77H2485.41V213.5C2498.41 185 2529.41 161 2568.91 161C2638.41 161 2681.91 215 2681.91 299.5C2681.91 384.5 2638.41 438 2568.91 438ZM2567.41 406.5C2616.41 406.5 2646.91 365 2646.91 299.5C2646.91 233.5 2616.41 192.5 2567.91 192.5C2516.91 192.5 2485.41 234.5 2485.41 299.5C2485.41 364 2516.91 406.5 2567.41 406.5Z" fill="#636363"/>
<path d="M1054.02 569.76C1030.81 569.76 1016.73 554.25 1016.73 529.06C1016.73 503.87 1030.81 488.14 1054.02 488.14C1077.34 488.14 1091.31 503.87 1091.31 529.06C1091.31 554.25 1077.34 569.76 1054.02 569.76ZM1054.02 557.33C1068.1 557.33 1076.46 546.88 1076.46 529.06C1076.46 511.24 1068.1 500.57 1054.02 500.57C1039.94 500.57 1031.58 511.24 1031.58 529.06C1031.58 546.88 1039.94 557.33 1054.02 557.33ZM1102.33 568V489.9H1119.05L1152.71 548.64V489.9H1167.01V568H1149.85L1116.63 510.91V568H1102.33ZM1182.04 568V489.9H1234.62V502.33H1196.34V522.68H1233.3V535H1196.34V555.57H1235.5V568H1182.04ZM1275.71 568V489.9H1305.96C1324.22 489.9 1335.11 499.25 1335.11 514.76C1335.11 530.38 1324.22 539.84 1305.96 539.84H1290.01V568H1275.71ZM1305.3 527.41C1314.98 527.41 1320.37 523.12 1320.37 514.76C1320.37 506.62 1315.09 502.33 1305.3 502.33H1290.01V527.41H1305.3ZM1348.76 568V489.9H1363.06V555.57H1400.13V568H1348.76ZM1408.77 568L1436.93 489.9H1454.42L1482.58 568H1467.62L1461.13 549.52H1430.22L1423.73 568H1408.77ZM1434.4 537.31H1456.95L1445.73 504.31L1434.4 537.31ZM1521.82 569.76C1500.59 569.76 1485.63 554.58 1485.63 529.06C1485.63 503.98 1500.04 488.14 1522.04 488.14C1541.95 488.14 1552.62 498.59 1555.92 516.3L1540.96 517.07C1539.09 506.84 1532.82 500.57 1522.04 500.57C1508.73 500.57 1500.48 511.68 1500.48 529.06C1500.48 546.66 1508.95 557.33 1521.93 557.33C1533.48 557.33 1539.64 550.62 1541.4 539.4L1556.36 540.17C1553.28 558.54 1541.62 569.76 1521.82 569.76ZM1569.4 568V489.9H1621.98V502.33H1583.7V522.68H1620.66V535H1583.7V555.57H1622.86V568H1569.4ZM1663.08 568V489.9H1715.33V502.33H1677.38V523.67H1713.35V535.99H1677.38V568H1663.08ZM1762.25 569.76C1739.04 569.76 1724.96 554.25 1724.96 529.06C1724.96 503.87 1739.04 488.14 1762.25 488.14C1785.57 488.14 1799.54 503.87 1799.54 529.06C1799.54 554.25 1785.57 569.76 1762.25 569.76ZM1762.25 557.33C1776.33 557.33 1784.69 546.88 1784.69 529.06C1784.69 511.24 1776.33 500.57 1762.25 500.57C1748.17 500.57 1739.81 511.24 1739.81 529.06C1739.81 546.88 1748.17 557.33 1762.25 557.33ZM1810.57 568V489.9H1843.24C1860.07 489.9 1870.85 499.03 1870.85 513.33C1870.85 522.68 1865.02 529.5 1857.43 531.92C1864.8 533.02 1868.87 537.42 1869.53 545.45L1871.51 568H1856.99L1855.34 547.54C1854.9 541.27 1851.71 538.52 1843.57 538.52H1824.87V568H1810.57ZM1842.36 525.98C1850.94 525.98 1856.11 521.8 1856.11 514.21C1856.11 506.51 1850.94 502.33 1841.7 502.33H1824.87V525.98H1842.36ZM1906.13 568L1934.29 489.9H1951.78L1979.94 568H1964.98L1958.49 549.52H1927.58L1921.09 568H1906.13ZM1931.76 537.31H1954.31L1943.09 504.31L1931.76 537.31ZM1989.53 568V489.9H2003.83V555.57H2040.9V568H1989.53ZM2054.31 568V489.9H2068.61V555.57H2105.68V568H2054.31ZM2144.76 568V489.9H2175.01C2193.27 489.9 2204.16 499.25 2204.16 514.76C2204.16 530.38 2193.27 539.84 2175.01 539.84H2159.06V568H2144.76ZM2174.35 527.41C2184.03 527.41 2189.42 523.12 2189.42 514.76C2189.42 506.62 2184.14 502.33 2174.35 502.33H2159.06V527.41H2174.35ZM2217.8 568V489.9H2270.38V502.33H2232.1V522.68H2269.06V535H2232.1V555.57H2271.26V568H2217.8ZM2303.3 568V502.33H2279.65V489.9H2341.36V502.33H2317.6V568H2303.3ZM2411.16 569.76C2389.93 569.76 2374.97 554.58 2374.97 529.06C2374.97 503.98 2389.38 488.14 2411.38 488.14C2431.29 488.14 2441.96 498.59 2445.26 516.3L2430.3 517.07C2428.43 506.84 2422.16 500.57 2411.38 500.57C2398.07 500.57 2389.82 511.68 2389.82 529.06C2389.82 546.66 2398.29 557.33 2411.27 557.33C2422.82 557.33 2428.98 550.62 2430.74 539.4L2445.7 540.17C2442.62 558.54 2430.96 569.76 2411.16 569.76ZM2449.36 568L2477.52 489.9H2495.01L2523.17 568H2508.21L2501.72 549.52H2470.81L2464.32 568H2449.36ZM2474.99 537.31H2497.54L2486.32 504.31L2474.99 537.31ZM2534.59 568V489.9H2567.26C2584.09 489.9 2594.87 499.03 2594.87 513.33C2594.87 522.68 2589.04 529.5 2581.45 531.92C2588.82 533.02 2592.89 537.42 2593.55 545.45L2595.53 568H2581.01L2579.36 547.54C2578.92 541.27 2575.73 538.52 2567.59 538.52H2548.89V568H2534.59ZM2566.38 525.98C2574.96 525.98 2580.13 521.8 2580.13 514.21C2580.13 506.51 2574.96 502.33 2565.72 502.33H2548.89V525.98H2566.38ZM2610.43 568V489.9H2663.01V502.33H2624.73V522.68H2661.69V535H2624.73V555.57H2663.89V568H2610.43Z" fill="#0490B4"/>
<path d="M225.899 150.67C177.513 186.401 174.536 235.531 182.724 286.893C130.617 302.525 112.358 349.401 100.841 390.363C92.6533 434.282 111.263 487.878 111.263 487.878C111.263 487.878 146.413 568.993 193.146 594.326C231.534 615.135 295.127 606.98 295.127 606.98C295.127 606.98 332.346 653.132 397.852 652.388C463.359 651.644 515.466 587.626 515.466 587.626C515.466 587.626 609.277 643.377 674.021 619.635C728.531 599.646 802.055 517.654 802.055 517.654C802.055 517.654 911.467 531.106 932.323 481.179C957.51 420.883 872.772 379.942 872.772 379.942C872.772 379.942 844.496 260.59 798.333 222.876C763.294 194.249 710.495 197.567 710.495 197.567C710.495 197.567 718.443 151.932 691.141 126.85C643.617 83.189 515.466 107.495 515.466 107.495C515.466 107.495 444.256 86.137 409.763 94.8413C374.176 103.821 354.678 150.67 354.678 150.67C354.678 150.67 281.728 109.442 225.899 150.67Z" fill="#DDDDDD" stroke="#0490B4" stroke-width="25"/>
<path d="M106.864 252.351C98.4637 273.317 77.6971 282.03 62.0361 275.755C46.3751 269.481 37.3695 248.839 45.7695 227.874C54.1695 206.908 74.9362 198.195 90.5972 204.47C106.258 210.744 115.264 231.386 106.864 252.351Z" fill="#DDDDDD" stroke="#0490B4" stroke-width="25"/>
<path d="M829.822 37.6115C859.174 50.0414 871.404 79.008 862.334 100.427C853.264 121.846 823.951 133.221 794.598 120.791C765.245 108.361 753.015 79.3944 762.086 57.9753C771.156 36.5561 800.469 25.1816 829.822 37.6115Z" fill="#DDDDDD" stroke="#0490B4" stroke-width="25"/>
<path d="M279.992 258.058C362.541 189.025 473.726 191.755 529.137 258.015C584.549 324.275 567.564 434.189 485.016 503.222C402.467 572.255 291.282 569.525 235.871 503.265C180.459 437.005 197.444 327.091 279.992 258.058Z" fill="#9F634A" stroke="black" stroke-width="25"/>
<path d="M209.521 376.962L217.71 343.465C217.71 343.465 112.751 348.676 64.3657 386.639C31.1246 412.721 8.53658 447.679 13.7473 482.665C18.4357 514.144 45.2609 531.968 77.0203 534.028C125.145 537.15 131.832 464.97 154.437 422.37C173.791 385.895 209.521 376.962 209.521 376.962Z" fill="#9F634A" stroke="black" stroke-width="25"/>
<path d="M432.28 199.609L397.871 197.349C397.871 197.349 434.392 98.8108 485.145 64.0761C520.013 40.213 560.145 29.1788 591.947 44.6658C620.56 58.6004 629.496 89.5429 621.913 120.453C610.423 167.29 539.571 151.969 492.147 160.722C451.541 168.216 432.28 199.609 432.28 199.609Z" fill="#9F634A" stroke="black" stroke-width="25"/>
<path d="M330.856 483.411C330.856 483.411 331.117 459.155 339.789 447.68C349.12 435.334 374.775 429.07 374.775 429.07" stroke="black" stroke-width="20" stroke-linecap="round"/>
<path d="M442.112 375.579C442.112 375.579 451.079 355.869 462.302 349.631C474.376 342.919 497.583 347.065 497.583 347.065" stroke="black" stroke-width="20" stroke-linecap="round"/>
<path d="M488.279 439.045C491.909 443.933 491.366 451.363 487.287 459.56C483.222 467.728 475.707 476.513 465.689 483.951C455.671 491.389 445.089 496.043 436.093 497.571C427.067 499.105 419.798 497.476 416.168 492.588C412.539 487.699 413.082 480.27 417.161 472.073C421.226 463.904 428.741 455.12 438.759 447.682C448.776 440.244 459.359 435.59 468.355 434.061C477.381 432.528 484.65 434.157 488.279 439.045Z" fill="black" stroke="black"/>
<path d="M741.759 289.867C720.84 283.722 695.607 292.845 685.93 289.867C676.253 286.89 636.056 243.715 636.056 243.715C636.056 243.715 604.614 212.839 577.993 221.383C523.981 238.719 551.94 318.154 546.729 374.728C543.653 408.119 540.808 429.265 553.428 460.332C572.274 506.723 615.213 531.37 650.199 544.448C674.764 553.631 743.459 567.046 790.888 539.238C829.007 516.888 843.74 496.063 859.372 449.167C877.638 394.369 952.197 356.558 915.201 312.199C882.423 272.897 799.077 322.62 784.189 315.177C769.301 307.733 760.27 295.306 741.759 289.867Z" fill="#FEB422" stroke="black" stroke-width="25" stroke-linecap="round"/>
<path d="M676.67 514.103C671.358 511.31 650.875 496.311 661.727 491.521C665.394 489.902 672.839 490.994 682.662 493.784C691.68 496.345 702.165 500.278 703.909 504.958C707.197 513.779 681.878 513.921 676.67 514.103Z" fill="black" stroke="black" stroke-linecap="round"/>
<path d="M609.029 432.949C609.029 432.949 623.94 423.936 634.226 424.892C645.294 425.922 658.821 439.22 658.821 439.22" stroke="black" stroke-width="20" stroke-linecap="round"/>
<path d="M733.563 458.369C733.563 458.369 750.544 454.466 760.017 458.59C770.209 463.026 778.902 479.885 778.902 479.885" stroke="black" stroke-width="20" stroke-linecap="round"/>
</svg>
