<svg width="631" height="177" viewBox="0 0 631 177" fill="none" xmlns="http://www.w3.org/2000/svg">
<path d="M15.5 175.25C10.8333 175.25 7.41667 174.583 5.25 173.25C3.08333 171.917 1.75 170.083 1.25 167.75C0.750001 165.25 0.500001 162.667 0.500001 160V15.75C0.500001 13.0833 0.750001 10.6667 1.25 8.49999C1.91667 6.16665 3.33333 4.33332 5.5 3C7.66667 1.5 11.0833 0.749997 15.75 0.749997H68.75C76.0833 0.749997 83.25 2 90.25 4.49999C97.25 6.99999 103.5 10.75 109 15.75C114.667 20.75 119.083 26.9167 122.25 34.25C125.583 41.5833 127.25 50.1667 127.25 60C127.25 69.6667 125.583 78.1667 122.25 85.5C119.083 92.6667 114.667 98.75 109 103.75C103.333 108.75 97 112.5 90 115C83.1667 117.5 76 118.75 68.5 118.75H30.75V160.25C30.75 162.917 30.4167 165.417 29.75 167.75C29.25 170.083 27.9167 171.917 25.75 173.25C23.75 174.583 20.3333 175.25 15.5 175.25ZM30.75 88.25H68.75C73.9167 88.25 78.5833 87.25 82.75 85.25C87.0833 83.0833 90.5833 79.9167 93.25 75.75C95.9167 71.4167 97.25 66 97.25 59.5C97.25 53.6667 96 48.6667 93.5 44.5C91.1667 40.1667 87.8333 36.8333 83.5 34.5C79.3333 32.1667 74.3333 31 68.5 31H30.75V88.25ZM208.158 177C197.325 177 187.825 175.25 179.658 171.75C171.658 168.25 164.908 163.5 159.408 157.5C154.075 151.333 149.992 144.5 147.158 137C144.492 129.333 143.158 121.417 143.158 113.25C143.158 101.25 145.908 90.5833 151.408 81.25C156.908 71.9167 164.492 64.5833 174.158 59.25C183.992 53.9167 195.242 51.25 207.908 51.25C216.908 51.25 224.825 52.6667 231.658 55.5C238.492 58.3333 244.158 62.0833 248.658 66.75C253.325 71.25 256.825 76.25 259.158 81.75C261.658 87.25 262.908 92.5833 262.908 97.75C262.908 106.583 260.742 113 256.408 117C252.242 121 246.992 123 240.658 123H174.658C174.825 128.667 176.575 133.583 179.908 137.75C183.408 141.917 187.742 145.167 192.908 147.5C198.242 149.667 203.658 150.75 209.158 150.75C213.325 150.75 216.992 150.5 220.158 150C223.492 149.5 226.325 148.917 228.658 148.25C230.992 147.417 232.992 146.583 234.658 145.75C236.492 144.917 238.158 144.167 239.658 143.5C241.158 142.833 242.575 142.417 243.908 142.25C245.742 142.083 247.575 142.5 249.408 143.5C251.242 144.5 252.742 146.25 253.908 148.75C254.908 150.417 255.575 152 255.908 153.5C256.408 154.833 256.658 156.167 256.658 157.5C256.658 160.833 254.658 164 250.658 167C246.658 169.833 240.992 172.167 233.658 174C226.492 176 217.992 177 208.158 177ZM174.658 105.25H225.908C228.742 105.25 230.908 104.833 232.408 104C233.908 103 234.658 101 234.658 98C234.658 94.1667 233.492 90.75 231.158 87.75C228.825 84.5833 225.658 82.1667 221.658 80.5C217.658 78.6667 212.992 77.75 207.658 77.75C201.492 77.75 195.908 79 190.908 81.5C185.908 83.8333 181.908 87.0833 178.908 91.25C176.075 95.4167 174.658 100.083 174.658 105.25ZM341.732 175.5C333.566 175.5 326.566 174.667 320.732 173C314.899 171.333 310.149 168.75 306.482 165.25C302.816 161.75 300.066 157.25 298.232 151.75C296.566 146.083 295.732 139.417 295.732 131.75V25.75C295.732 22.75 295.982 20.1667 296.482 18C297.149 15.8333 298.482 14.1667 300.482 13C302.649 11.6667 305.982 11 310.482 11C315.149 11 318.482 11.6667 320.482 13C322.649 14.3333 323.982 16.1667 324.482 18.5C325.149 20.6667 325.482 23.0833 325.482 25.75V130.75C325.482 134.25 325.732 137.083 326.232 139.25C326.899 141.417 327.816 143.083 328.982 144.25C330.316 145.25 331.982 146 333.982 146.5C336.149 146.833 338.732 147 341.732 147C344.899 147 347.566 147.25 349.732 147.75C352.066 148.25 353.816 149.5 354.982 151.5C356.149 153.333 356.732 156.417 356.732 160.75C356.732 165.417 355.982 168.833 354.482 171C353.149 173 351.316 174.25 348.982 174.75C346.816 175.25 344.399 175.5 341.732 175.5ZM285.482 54.75L311.232 55L345.732 54C348.566 54 351.066 54.3333 353.232 55C355.566 55.5 357.399 56.8333 358.732 59C360.066 61 360.732 64.3333 360.732 69C360.732 73.3333 360.066 76.5833 358.732 78.75C357.399 80.9167 355.649 82.3333 353.482 83C351.316 83.5 348.816 83.75 345.982 83.75L312.482 83.25L284.732 83.5C280.566 83.3333 277.649 82.1667 275.982 80C274.482 77.6667 273.732 73.9167 273.732 68.75C273.732 63.9167 274.649 60.4167 276.482 58.25C278.482 55.9167 281.482 54.75 285.482 54.75ZM386.18 175.5C381.68 175.5 378.096 174.167 375.43 171.5C372.763 168.667 371.43 165.083 371.43 160.75C371.43 158.417 371.763 156.333 372.43 154.5C373.263 152.667 374.43 151 375.93 149.5L441.18 82.25H391.93C389.263 82.25 386.763 82 384.43 81.5C382.096 80.8333 380.18 79.5 378.68 77.5C377.346 75.3333 376.68 71.9167 376.68 67.25C376.68 62.5833 377.346 59.25 378.68 57.25C380.18 55.0833 382.096 53.75 384.43 53.25C386.763 52.5833 389.263 52.25 391.93 52.25H472.68C477.013 52.25 480.513 53.5833 483.18 56.25C486.013 58.9167 487.43 62.4167 487.43 66.75C487.43 68.9167 487.013 71 486.18 73C485.513 74.8333 484.596 76.3333 483.43 77.5L418.93 145.5H475.68C478.513 145.5 481.013 145.833 483.18 146.5C485.513 147 487.346 148.333 488.68 150.5C490.013 152.667 490.68 156.083 490.68 160.75C490.68 165.25 489.93 168.583 488.43 170.75C487.096 172.917 485.263 174.25 482.93 174.75C480.763 175.25 478.263 175.5 475.43 175.5H386.18ZM568.463 177C560.463 177 552.63 175.5 544.963 172.5C537.463 169.333 530.63 164.917 524.463 159.25C518.463 153.583 513.63 146.917 509.963 139.25C506.463 131.583 504.713 123.167 504.713 114C504.713 105.167 506.38 96.9167 509.713 89.25C513.046 81.5833 517.63 74.8333 523.463 69C529.296 63.1667 535.963 58.6667 543.463 55.5C551.13 52.1667 559.296 50.5 567.963 50.5C579.63 50.5 590.213 53.3333 599.713 59C609.213 64.5 616.796 72 622.463 81.5C628.13 91 630.963 101.75 630.963 113.75C630.963 123.25 629.213 131.917 625.713 139.75C622.213 147.417 617.463 154.083 611.463 159.75C605.463 165.25 598.713 169.5 591.213 172.5C583.88 175.5 576.296 177 568.463 177ZM567.963 147.5C573.463 147.5 578.713 146.167 583.713 143.5C588.88 140.667 593.046 136.667 596.213 131.5C599.546 126.333 601.213 120.25 601.213 113.25C601.213 106.75 599.713 101 596.713 96C593.88 91 589.963 87.0833 584.963 84.25C579.963 81.4167 574.213 80 567.713 80C561.546 80 555.963 81.5 550.963 84.5C545.963 87.3333 541.963 91.3333 538.963 96.5C536.13 101.5 534.713 107.167 534.713 113.5C534.713 120.5 536.296 126.583 539.463 131.75C542.63 136.75 546.713 140.667 551.713 143.5C556.88 146.167 562.296 147.5 567.963 147.5Z" fill="#219EBC"/>
</svg>
