<svg width="917" height="325" viewBox="0 0 917 325" fill="none" xmlns="http://www.w3.org/2000/svg">
<path d="M294.5 246.25C289.833 246.25 286.417 245.583 284.25 244.25C282.083 242.917 280.75 241.083 280.25 238.75C279.75 236.25 279.5 233.667 279.5 231V86.75C279.5 84.0833 279.75 81.6667 280.25 79.5C280.917 77.1667 282.333 75.3333 284.5 74C286.667 72.5 290.083 71.75 294.75 71.75H347.75C355.083 71.75 362.25 73 369.25 75.5C376.25 78 382.5 81.75 388 86.75C393.667 91.75 398.083 97.9167 401.25 105.25C404.583 112.583 406.25 121.167 406.25 131C406.25 140.667 404.583 149.167 401.25 156.5C398.083 163.667 393.667 169.75 388 174.75C382.333 179.75 376 183.5 369 186C362.167 188.5 355 189.75 347.5 189.75H309.75V231.25C309.75 233.917 309.417 236.417 308.75 238.75C308.25 241.083 306.917 242.917 304.75 244.25C302.75 245.583 299.333 246.25 294.5 246.25ZM309.75 159.25H347.75C352.917 159.25 357.583 158.25 361.75 156.25C366.083 154.083 369.583 150.917 372.25 146.75C374.917 142.417 376.25 137 376.25 130.5C376.25 124.667 375 119.667 372.5 115.5C370.167 111.167 366.833 107.833 362.5 105.5C358.333 103.167 353.333 102 347.5 102H309.75V159.25ZM487.158 248C476.325 248 466.825 246.25 458.658 242.75C450.658 239.25 443.908 234.5 438.408 228.5C433.075 222.333 428.992 215.5 426.158 208C423.492 200.333 422.158 192.417 422.158 184.25C422.158 172.25 424.908 161.583 430.408 152.25C435.908 142.917 443.492 135.583 453.158 130.25C462.992 124.917 474.242 122.25 486.908 122.25C495.908 122.25 503.825 123.667 510.658 126.5C517.492 129.333 523.158 133.083 527.658 137.75C532.325 142.25 535.825 147.25 538.158 152.75C540.658 158.25 541.908 163.583 541.908 168.75C541.908 177.583 539.742 184 535.408 188C531.242 192 525.992 194 519.658 194H453.658C453.825 199.667 455.575 204.583 458.908 208.75C462.408 212.917 466.742 216.167 471.908 218.5C477.242 220.667 482.658 221.75 488.158 221.75C492.325 221.75 495.992 221.5 499.158 221C502.492 220.5 505.325 219.917 507.658 219.25C509.992 218.417 511.992 217.583 513.658 216.75C515.492 215.917 517.158 215.167 518.658 214.5C520.158 213.833 521.575 213.417 522.908 213.25C524.742 213.083 526.575 213.5 528.408 214.5C530.242 215.5 531.742 217.25 532.908 219.75C533.908 221.417 534.575 223 534.908 224.5C535.408 225.833 535.658 227.167 535.658 228.5C535.658 231.833 533.658 235 529.658 238C525.658 240.833 519.992 243.167 512.658 245C505.492 247 496.992 248 487.158 248ZM453.658 176.25H504.908C507.742 176.25 509.908 175.833 511.408 175C512.908 174 513.658 172 513.658 169C513.658 165.167 512.492 161.75 510.158 158.75C507.825 155.583 504.658 153.167 500.658 151.5C496.658 149.667 491.992 148.75 486.658 148.75C480.492 148.75 474.908 150 469.908 152.5C464.908 154.833 460.908 158.083 457.908 162.25C455.075 166.417 453.658 171.083 453.658 176.25ZM620.732 246.5C612.566 246.5 605.566 245.667 599.732 244C593.899 242.333 589.149 239.75 585.482 236.25C581.816 232.75 579.066 228.25 577.232 222.75C575.566 217.083 574.732 210.417 574.732 202.75V96.75C574.732 93.75 574.982 91.1667 575.482 89C576.149 86.8333 577.482 85.1667 579.482 84C581.649 82.6667 584.982 82 589.482 82C594.149 82 597.482 82.6667 599.482 84C601.649 85.3333 602.982 87.1667 603.482 89.5C604.149 91.6667 604.482 94.0833 604.482 96.75V201.75C604.482 205.25 604.732 208.083 605.232 210.25C605.899 212.417 606.816 214.083 607.982 215.25C609.316 216.25 610.982 217 612.982 217.5C615.149 217.833 617.732 218 620.732 218C623.899 218 626.566 218.25 628.732 218.75C631.066 219.25 632.816 220.5 633.982 222.5C635.149 224.333 635.732 227.417 635.732 231.75C635.732 236.417 634.982 239.833 633.482 242C632.149 244 630.316 245.25 627.982 245.75C625.816 246.25 623.399 246.5 620.732 246.5ZM564.482 125.75L590.232 126L624.732 125C627.566 125 630.066 125.333 632.232 126C634.566 126.5 636.399 127.833 637.732 130C639.066 132 639.732 135.333 639.732 140C639.732 144.333 639.066 147.583 637.732 149.75C636.399 151.917 634.649 153.333 632.482 154C630.316 154.5 627.816 154.75 624.982 154.75L591.482 154.25L563.732 154.5C559.566 154.333 556.649 153.167 554.982 151C553.482 148.667 552.732 144.917 552.732 139.75C552.732 134.917 553.649 131.417 555.482 129.25C557.482 126.917 560.482 125.75 564.482 125.75ZM665.18 246.5C660.68 246.5 657.096 245.167 654.43 242.5C651.763 239.667 650.43 236.083 650.43 231.75C650.43 229.417 650.763 227.333 651.43 225.5C652.263 223.667 653.43 222 654.93 220.5L720.18 153.25H670.93C668.263 153.25 665.763 153 663.43 152.5C661.096 151.833 659.18 150.5 657.68 148.5C656.346 146.333 655.68 142.917 655.68 138.25C655.68 133.583 656.346 130.25 657.68 128.25C659.18 126.083 661.096 124.75 663.43 124.25C665.763 123.583 668.263 123.25 670.93 123.25H751.68C756.013 123.25 759.513 124.583 762.18 127.25C765.013 129.917 766.43 133.417 766.43 137.75C766.43 139.917 766.013 142 765.18 144C764.513 145.833 763.596 147.333 762.43 148.5L697.93 216.5H754.68C757.513 216.5 760.013 216.833 762.18 217.5C764.513 218 766.346 219.333 767.68 221.5C769.013 223.667 769.68 227.083 769.68 231.75C769.68 236.25 768.93 239.583 767.43 241.75C766.096 243.917 764.263 245.25 761.93 245.75C759.763 246.25 757.263 246.5 754.43 246.5H665.18ZM847.463 248C839.463 248 831.63 246.5 823.963 243.5C816.463 240.333 809.63 235.917 803.463 230.25C797.463 224.583 792.63 217.917 788.963 210.25C785.463 202.583 783.713 194.167 783.713 185C783.713 176.167 785.38 167.917 788.713 160.25C792.046 152.583 796.63 145.833 802.463 140C808.296 134.167 814.963 129.667 822.463 126.5C830.13 123.167 838.296 121.5 846.963 121.5C858.63 121.5 869.213 124.333 878.713 130C888.213 135.5 895.796 143 901.463 152.5C907.13 162 909.963 172.75 909.963 184.75C909.963 194.25 908.213 202.917 904.713 210.75C901.213 218.417 896.463 225.083 890.463 230.75C884.463 236.25 877.713 240.5 870.213 243.5C862.88 246.5 855.296 248 847.463 248ZM846.963 218.5C852.463 218.5 857.713 217.167 862.713 214.5C867.88 211.667 872.046 207.667 875.213 202.5C878.546 197.333 880.213 191.25 880.213 184.25C880.213 177.75 878.713 172 875.713 167C872.88 162 868.963 158.083 863.963 155.25C858.963 152.417 853.213 151 846.713 151C840.546 151 834.963 152.5 829.963 155.5C824.963 158.333 820.963 162.333 817.963 167.5C815.13 172.5 813.713 178.167 813.713 184.5C813.713 191.5 815.296 197.583 818.463 202.75C821.63 207.75 825.713 211.667 830.713 214.5C835.88 217.167 841.296 218.5 846.963 218.5Z" fill="#37A5BF"/>
<path d="M196.618 153.103C189.618 189.103 211.618 254.603 181.618 264.103C163.118 269.961 147.679 266.67 125.118 241.603C93.6181 206.603 71.2609 157.78 87.6182 112.603C99.2045 80.6026 149.618 65.1027 149.618 65.1027C149.618 65.1027 189.618 51.1003 205.618 66.6014C235.121 95.1844 204.708 111.497 196.618 153.103Z" fill="#1E6A7C"/>
<path d="M21.6153 152.802C28.6153 188.802 6.61533 254.302 36.6153 263.802C55.1153 269.66 70.5547 266.369 93.1153 241.302C124.615 206.302 146.973 157.479 130.615 112.302C119.029 80.3018 68.6153 64.8019 68.6153 64.8019C68.6153 64.8019 28.6153 50.7995 12.6153 66.3007C-16.8874 94.8836 13.5253 111.196 21.6153 152.802Z" fill="#11ACD1" fill-opacity="0.8"/>
</svg>
