<svg width="261" height="276" viewBox="0 0 261 276" fill="none" xmlns="http://www.w3.org/2000/svg">
<rect x="136" width="125" height="125" rx="62.5" fill="#2A9D8F"/>
<path fill-rule="evenodd" clip-rule="evenodd" d="M199.023 24.075C200.092 21.5837 202.107 19.6193 204.625 18.6138C207.143 17.6084 209.957 17.6444 212.448 18.7138L221.841 22.7459C224.333 23.8153 226.297 25.8306 227.303 28.3484C228.308 30.8661 228.272 33.6802 227.203 36.1715L219.138 54.9582L237.925 63.0226C240.416 64.092 242.381 66.1072 243.386 68.625C244.392 71.1428 244.356 73.9568 243.286 76.4481L239.254 85.8415C238.185 88.3328 236.169 90.2972 233.652 91.3026C231.134 92.308 228.32 92.2721 225.828 91.2027L207.042 83.1383L198.977 101.925C197.908 104.416 195.893 106.381 193.375 107.386C190.857 108.392 188.043 108.356 185.552 107.286L176.158 103.254C173.667 102.185 171.703 100.169 170.697 97.6516C169.692 95.1339 169.728 92.3198 170.797 89.8285L178.862 71.0418L160.075 62.9774C157.584 61.908 155.619 59.8928 154.614 57.375C153.608 54.8572 153.644 52.0432 154.714 49.5519L158.746 40.1585C159.815 37.6673 161.831 35.7028 164.348 34.6974C166.866 33.692 169.68 33.7279 172.171 34.7973L190.958 42.8617L199.023 24.075Z" fill="white"/>
<rect width="125" height="125" rx="25" fill="#DDB145"/>
<path d="M36.3987 104.844C34.8987 119.344 38 125 38 125C38 125 108.5 127 117.5 123C126.5 119 124.5 102.5 124.5 102.5C124.5 102.5 109.688 95.0895 103.899 85.8437C99.3382 78.5599 95.8765 73.2068 93.8987 64.8437C91.8685 56.2591 93.3987 50.3437 91.8987 42.3437C90.3987 34.3438 84.3987 23.3437 84.3987 23.3437C84.3987 23.3437 86.3987 36.8437 82.3987 42.3437C78.3987 47.8438 67.0559 49.7105 65.3987 45.8437C63.8987 42.3438 66.3987 22.8437 63.8987 20.3437C61.3987 17.8438 59.3987 17.3437 51.3987 18.8438C43.3987 20.3438 41.8987 32.3438 34.8987 35.3437C27.8987 38.3437 17.4826 38.8437 18.3987 42.3437C19.3148 45.8437 18.3987 49.5 24.3987 54.8438C30.3987 60.1875 46.8987 59.3438 46.8987 59.3438C46.8987 59.3438 48.3987 68.8438 46.8987 76.3438C45.3987 83.8438 37.8987 90.3438 36.3987 104.844Z" fill="white"/>
<rect y="148" width="125" height="125" rx="62.5" fill="#E76F51"/>
<path d="M99.1574 179.286C114.218 205.119 87.9805 248.432 86.8474 250.25C86.5509 250.733 86.1394 251.135 85.6496 251.42C85.1598 251.706 84.6071 251.866 84.041 251.886C81.901 251.976 31.2827 253.469 16.2222 227.636C12.6924 221.566 11.7225 214.338 13.5252 207.54C15.328 200.742 19.7561 194.927 25.8381 191.372C33.4837 186.915 42.0883 186.29 49.4904 189.396C50.4336 181.424 55.2172 174.245 62.8627 169.787C68.9527 166.246 76.1942 165.257 82.9984 167.038C89.8026 168.819 95.6139 173.223 99.1574 179.286Z" fill="white"/>
<rect x="136" y="148" width="125" height="125" rx="25" fill="#264653"/>
<path d="M155.5 242C148.8 246.112 136 247 136 247C136 247 135.676 256.175 140 262.5C145.811 271 158.5 273.5 158.5 273.5H217C217 273.5 224.048 257.5 222.5 245.5C220.5 230 210.5 211.5 211 209C211.5 206.5 219.51 203.888 221.5 198C222.876 193.93 223.5 188 222.5 187C221.5 186 219.5 188 218.5 187C217.5 186 218.5 184.5 217.5 183.5C216.5 182.5 206 183.5 206 183.5C206 183.5 201.5 177.5 194 176.5C188.495 175.766 181 179.5 180 179C179 178.5 176.5 170 175 170C173.5 170 171 175 171 175C171 175 167.5 170.5 166 170.5C164.5 170.5 162.225 180.295 162.5 187C162.779 193.814 166.5 204 166.5 204C166.5 204 171.781 218.894 168.5 227.5C165.791 234.606 161.982 238.022 155.5 242Z" fill="white"/>
</svg>
