<svg width="1245" height="1245" viewBox="0 0 1245 1245" fill="none" xmlns="http://www.w3.org/2000/svg">
<rect width="1245" height="1245" rx="200" fill="white"/>
<path d="M299.123 353.227C236.75 399.288 232.912 462.62 243.467 528.832C176.296 548.983 152.759 609.41 137.912 662.214C127.357 718.83 151.347 787.92 151.347 787.92C151.347 787.92 196.658 892.485 256.901 925.141C306.387 951.966 388.365 941.454 388.365 941.454C388.365 941.454 436.344 1000.95 520.788 999.989C605.231 999.029 672.402 916.505 672.402 916.505C672.402 916.505 793.334 988.372 876.794 957.767C947.064 931.999 1041.84 826.304 1041.84 826.304C1041.84 826.304 1182.89 843.646 1209.77 779.284C1242.24 701.557 1133 648.78 1133 648.78C1133 648.78 1096.55 494.924 1037.05 446.307C991.876 409.405 923.814 413.681 923.814 413.681C923.814 413.681 934.059 354.854 898.865 322.521C837.601 266.238 672.402 297.571 672.402 297.571C672.402 297.571 580.607 270.038 536.141 281.259C490.266 292.835 465.132 353.227 465.132 353.227C465.132 353.227 371.092 300.08 299.123 353.227Z" fill="#DDDDDD" stroke="#0490B4" stroke-width="25"/>
<path d="M149.03 485.648C137.608 514.158 108.936 526.8 86.5448 517.829C64.1539 508.858 52.1428 479.915 63.5652 451.406C74.9875 422.897 103.66 410.255 126.051 419.226C148.442 428.197 160.453 457.139 149.03 485.648Z" fill="#DDDDDD" stroke="#0490B4" stroke-width="25"/>
<path d="M1079.05 204.156C1118.24 220.753 1135.54 259.971 1122.88 289.868C1110.21 319.766 1070.01 334.635 1030.82 318.038C991.627 301.44 974.33 262.223 986.99 232.325C999.651 202.428 1039.85 187.559 1079.05 204.156Z" fill="#DDDDDD" stroke="#0490B4" stroke-width="25"/>
<path d="M366.538 488.889C474.029 398.997 619.741 401.925 692.8 489.288C765.859 576.65 742.96 720.581 635.469 810.473C527.977 900.365 382.266 897.438 309.207 810.075C236.148 722.712 259.046 578.781 366.538 488.889Z" fill="#9F634A" stroke="black" stroke-width="25"/>
<path d="M278.012 644.941L288.568 601.76C288.568 601.76 153.266 608.477 90.893 657.416C48.042 691.037 18.924 736.102 25.6411 781.202C31.6848 821.782 66.265 844.759 107.206 847.414C169.243 851.438 177.864 758.391 207.003 703.476C231.952 656.456 278.012 644.941 278.012 644.941Z" fill="#9F634A" stroke="black" stroke-width="25"/>
<path d="M565.169 416.316L520.811 413.402C520.811 413.402 567.892 286.378 633.317 241.601C678.265 210.839 729.999 196.615 770.994 216.58C807.879 234.543 819.398 274.43 809.623 314.276C794.811 374.653 703.477 354.904 642.342 366.187C589.997 375.848 565.169 416.316 565.169 416.316Z" fill="#9F634A" stroke="black" stroke-width="25"/>
<path d="M434.425 782.163C434.425 782.163 434.761 750.895 445.94 736.103C457.969 720.188 491.041 712.113 491.041 712.113" stroke="black" stroke-width="20" stroke-linecap="round"/>
<path d="M577.844 643.158C577.844 643.158 589.404 617.75 603.87 609.708C619.436 601.056 649.352 606.401 649.352 606.401" stroke="black" stroke-width="20" stroke-linecap="round"/>
<path d="M637.474 724.885C642.203 731.253 641.475 740.899 636.209 751.481C630.957 762.036 621.251 773.376 608.323 782.975C595.395 792.575 581.732 798.585 570.11 800.56C558.456 802.54 549.013 800.447 544.284 794.079C539.556 787.711 540.284 778.066 545.55 767.483C550.802 756.929 560.508 745.588 573.436 735.989C586.364 726.39 600.027 720.379 611.649 718.404C623.302 716.424 632.746 718.517 637.474 724.885Z" fill="black" stroke="black"/>
<path d="M964.117 532.669C937.151 524.747 904.623 536.507 892.148 532.669C879.673 528.831 827.856 473.174 827.856 473.174C827.856 473.174 787.325 433.372 753.008 444.387C683.382 466.734 719.422 569.133 712.705 642.062C708.741 685.107 705.073 712.366 721.342 752.415C745.635 812.217 800.987 843.989 846.088 860.848C877.754 872.685 966.309 889.979 1027.45 854.131C1076.59 825.32 1095.58 798.474 1115.73 738.021C1139.28 667.381 1235.39 618.64 1187.7 561.457C1145.45 510.793 1038.01 574.89 1018.81 565.295C999.622 555.7 987.98 539.68 964.117 532.669Z" fill="#FFC146" stroke="black" stroke-width="25" stroke-linecap="round"/>
<path d="M880.212 821.73C873.364 818.129 846.959 798.794 860.949 792.619C865.676 790.533 875.273 791.939 887.936 795.536C899.561 798.838 913.076 803.907 915.325 809.94C919.564 821.312 886.925 821.495 880.212 821.73Z" fill="black" stroke="black" stroke-linecap="round"/>
<path d="M793.017 717.114C793.017 717.114 812.239 705.495 825.499 706.728C839.767 708.056 857.203 725.199 857.203 725.199" stroke="black" stroke-width="20" stroke-linecap="round"/>
<path d="M953.553 749.886C953.553 749.886 975.443 744.855 987.653 750.17C1000.79 755.889 1012 777.622 1012 777.622" stroke="black" stroke-width="20" stroke-linecap="round"/>
</svg>
