<svg width="778" height="180" viewBox="0 0 778 180" fill="none" xmlns="http://www.w3.org/2000/svg">
<path d="M19.5 177.25C13.3333 177.25 8.91667 176.333 6.25 174.5C3.75 172.667 2.16667 170.25 1.5 167.25C0.833334 164.25 0.500001 161.167 0.500001 158V21.5C0.500001 18.3333 0.833334 15.3333 1.5 12.5C2.16667 9.49999 3.83333 7.08332 6.5 5.24999C9.16667 3.41666 13.5833 2.49999 19.75 2.49999H71C78 2.49999 85 3.74999 92 6.25C99.1667 8.74999 105.75 12.6667 111.75 18C117.917 23.1667 122.833 29.5833 126.5 37.25C130.333 44.9167 132.25 53.9167 132.25 64.25C132.25 74.4167 130.333 83.3333 126.5 91C122.833 98.6667 117.917 105.083 111.75 110.25C105.75 115.25 99.1667 119.083 92 121.75C84.8333 124.25 77.75 125.5 70.75 125.5H38.75V158.25C38.75 161.417 38.4167 164.5 37.75 167.5C37.0833 170.333 35.4167 172.667 32.75 174.5C30.0833 176.333 25.6667 177.25 19.5 177.25ZM38.75 87.5H71C74.6667 87.5 78.25 86.75 81.75 85.25C85.4167 83.5833 88.4167 81 90.75 77.5C93.25 74 94.5 69.5 94.5 64C94.5 59.3333 93.5 55.25 91.5 51.75C89.5 48.25 86.6667 45.5 83 43.5C79.5 41.5 75.4167 40.5 70.75 40.5H38.75V87.5ZM692.078 179.75C680.078 179.75 668.745 177.5 658.078 173C647.578 168.333 638.328 162 630.328 154C622.495 145.833 616.245 136.417 611.578 125.75C607.078 115.083 604.828 103.583 604.828 91.25C604.828 78.75 606.995 67.0833 611.328 56.25C615.828 45.25 621.911 35.5833 629.578 27.25C637.411 18.9167 646.495 12.4167 656.828 7.74999C667.161 3.08333 678.245 0.749993 690.078 0.749993C702.078 0.749993 713.328 3.08333 723.828 7.74999C734.495 12.25 743.745 18.5833 751.578 26.75C759.411 34.9167 765.578 44.4167 770.078 55.25C774.745 66.0833 777.078 77.8333 777.078 90.5C777.078 102.667 774.828 114.167 770.328 125C765.995 135.667 759.911 145.167 752.078 153.5C744.245 161.667 735.161 168.083 724.828 172.75C714.661 177.417 703.745 179.75 692.078 179.75ZM690.828 141.75C697.495 141.75 703.745 140.417 709.578 137.75C715.411 135.083 720.495 131.5 724.828 127C729.328 122.333 732.745 116.917 735.078 110.75C737.578 104.417 738.828 97.5833 738.828 90.25C738.828 83.25 737.578 76.6667 735.078 70.5C732.578 64.1667 729.078 58.6667 724.578 54C720.245 49.1667 715.161 45.4167 709.328 42.75C703.661 40.0833 697.495 38.75 690.828 38.75C684.328 38.75 678.161 40.0833 672.328 42.75C666.661 45.4167 661.578 49.1667 657.078 54C652.745 58.6667 649.245 64.1667 646.578 70.5C644.078 76.6667 642.828 83.3333 642.828 90.5C642.828 97.5 644.078 104.167 646.578 110.5C649.245 116.667 652.745 122.083 657.078 126.75C661.578 131.417 666.661 135.083 672.328 137.75C677.995 140.417 684.161 141.75 690.828 141.75Z" fill="#DDB145"/>
<path d="M169.67 177.25C163.67 177.25 159.337 176.417 156.67 174.75C154.003 172.917 152.337 170.5 151.67 167.5C151.17 164.5 150.92 161.417 150.92 158.25V21.5C150.92 14.1667 152.337 9.16666 155.17 6.49999C158.003 3.83332 163.087 2.49999 170.42 2.49999H264.92C268.253 2.49999 271.337 2.83332 274.17 3.49999C277.003 3.99999 279.337 5.58332 281.17 8.24999C283.003 10.9167 283.92 15.4167 283.92 21.75C283.92 27.75 283.003 32.0833 281.17 34.75C279.337 37.4167 276.92 39.0833 273.92 39.75C271.087 40.25 268.003 40.5 264.67 40.5H188.92V72.75H240.42C243.753 72.75 246.67 73 249.17 73.5C251.837 74 253.92 75.4167 255.42 77.75C256.92 80.0833 257.67 84 257.67 89.5C257.67 94.6667 256.92 98.4167 255.42 100.75C253.92 103.083 251.837 104.5 249.17 105C246.503 105.5 243.42 105.75 239.92 105.75H188.92V139.25H264.92C268.253 139.25 271.337 139.583 274.17 140.25C277.003 140.917 279.337 142.583 281.17 145.25C283.003 147.75 283.92 152.167 283.92 158.5C283.92 164.5 283.003 168.833 281.17 171.5C279.337 174.167 276.92 175.75 273.92 176.25C271.087 176.917 268.003 177.25 264.67 177.25H169.67Z" fill="#2A9D8F"/>
<path d="M431.258 2.24999C434.091 2.24999 436.674 2.49999 439.008 2.99999C441.341 3.49999 443.258 4.91666 444.758 7.25C446.424 9.41666 447.258 13.25 447.258 18.75C447.258 23.9167 446.424 27.6667 444.758 30C443.258 32.3333 441.258 33.75 438.758 34.25C436.258 34.75 433.591 35 430.758 35H390.508V158.75C390.508 161.917 390.174 164.917 389.508 167.75C389.008 170.583 387.424 172.917 384.758 174.75C382.258 176.417 377.924 177.25 371.758 177.25C365.758 177.25 361.424 176.417 358.758 174.75C356.091 172.917 354.508 170.583 354.008 167.75C353.508 164.75 353.258 161.667 353.258 158.5V35H312.508C309.841 35 307.258 34.75 304.758 34.25C302.258 33.5833 300.258 32.1667 298.758 30C297.258 27.6667 296.508 23.8333 296.508 18.5C296.508 13.1667 297.258 9.41666 298.758 7.25C300.258 4.91666 302.258 3.49999 304.758 2.99999C307.258 2.49999 309.841 2.24999 312.508 2.24999H431.258Z" fill="#264653"/>
<path d="M476.617 177.75C471.284 177.75 466.784 176 463.117 172.5C459.451 168.833 457.617 164.167 457.617 158.5C457.617 156.5 457.867 154.667 458.367 153C458.867 151.333 459.534 150 460.367 149L537.367 39.5H477.617C474.451 39.5 471.284 39.25 468.117 38.75C465.117 38.25 462.617 36.75 460.617 34.25C458.617 31.5833 457.617 27.3333 457.617 21.5C457.617 15.1667 458.534 10.75 460.367 8.24999C462.201 5.58332 464.617 3.91666 467.617 3.24999C470.617 2.58332 473.701 2.24999 476.867 2.24999H573.367C578.701 2.24999 583.117 4.16666 586.617 7.99999C590.284 11.6667 592.117 16.1667 592.117 21.5C592.117 23.6667 591.867 25.6667 591.367 27.5C590.867 29.1667 590.117 30.6667 589.117 32L512.617 140.75H576.867C580.201 140.75 583.284 141.083 586.117 141.75C588.951 142.25 591.201 143.833 592.867 146.5C594.701 149 595.617 153.083 595.617 158.75C595.617 164.917 594.701 169.333 592.867 172C591.034 174.667 588.701 176.25 585.867 176.75C583.034 177.417 579.867 177.75 576.367 177.75H476.617Z" fill="#E76F51"/>
</svg>
