<svg width="1627" height="1627" viewBox="0 0 1627 1627" fill="none" xmlns="http://www.w3.org/2000/svg">
<g clip-path="url(#clip0_499_40)">
<path d="M1365.63 0H261.365C117.017 0 0 117.017 0 261.365V1365.63C0 1509.98 117.017 1627 261.365 1627H1365.63C1509.98 1627 1627 1509.98 1627 1365.63V261.365C1627 117.017 1509.98 0 1365.63 0Z" fill="white"/>
<path d="M401.229 445.74C322.173 504.085 317.308 584.307 330.686 668.177C245.548 693.702 215.715 770.244 196.897 837.13C183.519 908.845 213.926 996.36 213.926 996.36C213.926 996.36 271.357 1128.81 347.714 1170.18C410.436 1204.16 514.342 1190.84 514.342 1190.84C514.342 1190.84 575.155 1266.2 682.186 1264.99C789.216 1263.77 874.354 1159.24 874.354 1159.24C874.354 1159.24 1027.63 1250.27 1133.42 1211.5C1222.48 1178.86 1342.61 1044.98 1342.61 1044.98C1342.61 1044.98 1521.39 1066.95 1555.46 985.421C1596.61 886.965 1458.15 820.113 1458.15 820.113C1458.15 820.113 1411.95 625.226 1336.54 563.643C1279.28 516.9 1193.01 522.316 1193.01 522.316C1193.01 522.316 1206 447.801 1161.39 406.845C1083.74 335.552 874.354 375.241 874.354 375.241C874.354 375.241 758.005 340.366 701.645 354.579C643.5 369.242 611.643 445.74 611.643 445.74C611.643 445.74 492.449 378.42 401.229 445.74Z" fill="#BBE2EC"/>
<path d="M210.629 613.124C196.201 649.075 159.981 665.017 131.696 653.705C103.411 642.392 88.2378 605.894 102.667 569.944C117.096 533.994 153.316 518.052 181.601 529.365C209.887 540.677 225.059 577.174 210.629 613.124Z" fill="#BBE2EC"/>
<path d="M1390.14 256.766C1439.79 277.839 1461.71 327.636 1445.67 365.597C1429.62 403.559 1378.69 422.439 1329.03 401.365C1279.38 380.29 1257.46 330.495 1273.5 292.533C1289.54 254.571 1340.47 235.692 1390.14 256.766Z" fill="#BBE2EC"/>
<path d="M486.634 617.602C622.992 503.821 807.835 507.527 900.515 618.107C993.194 728.686 964.146 910.866 827.787 1024.65C691.428 1138.43 506.586 1134.72 413.906 1024.14C321.227 913.564 350.274 731.383 486.634 617.602Z" fill="#9F634A" stroke="#333333" stroke-width="25"/>
<path d="M373.992 815.246L387.371 760.468C387.371 760.468 215.884 768.989 136.83 831.071C82.519 873.722 45.6137 930.89 54.1272 988.102C61.7873 1039.58 105.616 1068.73 157.506 1072.1C236.134 1077.2 247.061 959.165 283.992 889.502C315.614 829.853 373.992 815.246 373.992 815.246Z" fill="#9F634A" stroke="#333333" stroke-width="25"/>
<path d="M738.448 525.776L682.152 522.077C682.152 522.077 741.904 360.816 824.935 303.97C881.979 264.917 947.636 246.859 999.663 272.205C1046.47 295.01 1061.09 345.647 1048.69 396.233C1029.89 472.884 913.976 447.812 836.389 462.136C769.957 474.401 738.448 525.776 738.448 525.776Z" fill="#9F634A" stroke="#333333" stroke-width="25"/>
<path d="M572.176 989.491C572.176 989.491 572.606 949.511 586.934 930.597C602.351 910.248 644.738 899.923 644.738 899.923" stroke="#333333" stroke-width="20" stroke-linecap="round"/>
<path d="M754.715 812.622C754.715 812.622 769.378 780.355 787.727 770.142C807.471 759.155 845.417 765.943 845.417 765.943" stroke="#333333" stroke-width="20" stroke-linecap="round"/>
<path d="M830.092 916.941C836.074 924.973 835.153 937.14 828.492 950.488C821.849 963.802 809.572 978.105 793.219 990.213C776.867 1002.32 759.585 1009.9 744.884 1012.39C730.143 1014.89 718.199 1012.25 712.217 1004.22C706.237 996.187 707.158 984.021 713.819 970.672C720.462 957.36 732.739 943.055 749.091 930.947C765.444 918.839 782.726 911.257 797.426 908.766C812.166 906.269 824.112 908.909 830.092 916.941Z" fill="#333333" stroke="#333333"/>
<path d="M1244.13 672.947C1209.98 662.91 1168.79 677.809 1152.99 672.947C1137.2 668.084 1071.58 597.569 1071.58 597.569C1071.58 597.569 1020.26 547.141 976.807 561.097C888.643 589.409 934.279 719.145 925.773 811.543C920.754 866.08 916.109 900.616 936.71 951.356C967.471 1027.12 1037.56 1067.38 1094.67 1088.74C1134.77 1103.73 1246.9 1125.64 1324.32 1080.23C1386.55 1043.72 1410.59 1009.71 1436.11 933.12C1465.93 843.621 1587.63 781.868 1527.24 709.42C1473.74 645.231 1337.69 726.439 1313.38 714.282C1289.08 702.126 1274.34 681.829 1244.13 672.947Z" fill="#FFC146" stroke="#333333" stroke-width="25" stroke-linecap="round"/>
<path d="M1137.65 1039.38C1129.07 1034.76 1095.96 1009.99 1113.5 1002.08C1119.43 999.402 1131.46 1001.2 1147.34 1005.81C1161.91 1010.04 1178.85 1016.54 1181.67 1024.27C1186.99 1038.84 1146.07 1039.08 1137.65 1039.38Z" fill="#333333" stroke="#333333" stroke-linecap="round"/>
<path d="M1026.82 906.56C1026.82 906.56 1051.27 891.657 1068.13 893.239C1086.28 894.942 1108.45 916.93 1108.45 916.93" stroke="#333333" stroke-width="20" stroke-linecap="round"/>
<path d="M1230.91 948.053C1230.91 948.053 1258.51 941.564 1273.9 948.419C1290.47 955.794 1304.6 983.823 1304.6 983.823" stroke="#333333" stroke-width="20" stroke-linecap="round"/>
</g>
<defs>
<clipPath id="clip0_499_40">
<rect width="1627" height="1627" fill="white"/>
</clipPath>
</defs>
</svg>
