<svg width="2566" height="665" viewBox="0 0 2566 665" fill="none" xmlns="http://www.w3.org/2000/svg">
<path d="M1067.7 165.25C1067.7 122.05 1091.1 95.5 1141.95 95.5H1188.75V140.05H1152.75C1133.85 140.05 1125.75 149.95 1125.75 168.4V181H1185.6V225.55H1125.75V415H1067.7V225.55H1033.5V181H1067.7V165.25ZM1315.94 420.4C1266.89 420.4 1236.74 386.65 1236.74 329.5V174.7H1294.34V315.1C1294.34 355.6 1307.39 373.6 1335.29 373.6C1366.34 373.6 1384.34 352.45 1384.34 312.85V174.7H1441.94V415H1389.29L1388.39 374.95C1376.24 405.1 1351.49 420.4 1315.94 420.4ZM1505.24 415V174.7H1559.24L1560.59 221.05C1570.04 188.65 1588.94 174.7 1618.19 174.7H1640.24V224.2H1617.74C1580.84 224.2 1562.84 239.5 1562.84 276.4V415H1505.24Z" fill="#FBFBFB"/>
<path d="M1787.44 420.4C1720.39 420.4 1680.79 368.65 1680.79 295.75C1680.79 222.85 1720.39 171.1 1787.44 171.1C1841.89 171.1 1877.44 202.6 1886.89 253L1855.84 254.8C1848.64 219.7 1823.89 199.45 1787.44 199.45C1740.19 199.45 1711.84 235.9 1711.84 295.75C1711.84 355.6 1740.19 392.05 1787.44 392.05C1823.89 392.05 1849.54 370.9 1856.29 331.75L1887.34 334C1878.34 385.75 1841.89 420.4 1787.44 420.4ZM1983.64 415C1957.09 415 1939.99 401.95 1939.99 373.15V95.5H1969.69V370.9C1969.69 382.6 1975.99 388.45 1988.14 388.45H2006.59V415H1983.64ZM2135.18 420.4C2087.48 420.4 2056.88 386.65 2056.88 329.95V176.5H2086.58V320.95C2086.58 370 2105.48 393.85 2142.83 393.85C2183.78 393.85 2209.43 365.05 2209.43 318.7V176.5H2239.13V415H2211.23L2210.78 371.8C2199.08 402.85 2172.08 420.4 2135.18 420.4ZM2412.22 420.4C2376.22 420.4 2347.87 400.6 2334.82 370.9L2333.47 415H2307.37V95.5H2337.07V218.35C2348.77 192.7 2376.67 171.1 2412.22 171.1C2474.77 171.1 2513.92 219.7 2513.92 295.75C2513.92 372.25 2474.77 420.4 2412.22 420.4ZM2410.87 392.05C2454.97 392.05 2482.42 354.7 2482.42 295.75C2482.42 236.35 2454.97 199.45 2411.32 199.45C2365.42 199.45 2337.07 237.25 2337.07 295.75C2337.07 353.8 2365.42 392.05 2410.87 392.05Z" fill="#D8D8D8"/>
<path d="M1049.2 559.6C1028.1 559.6 1015.3 545.5 1015.3 522.6C1015.3 499.7 1028.1 485.4 1049.2 485.4C1070.4 485.4 1083.1 499.7 1083.1 522.6C1083.1 545.5 1070.4 559.6 1049.2 559.6ZM1049.2 548.3C1062 548.3 1069.6 538.8 1069.6 522.6C1069.6 506.4 1062 496.7 1049.2 496.7C1036.4 496.7 1028.8 506.4 1028.8 522.6C1028.8 538.8 1036.4 548.3 1049.2 548.3ZM1093.12 558V487H1108.32L1138.92 540.4V487H1151.92V558H1136.32L1106.12 506.1V558H1093.12ZM1165.58 558V487H1213.38V498.3H1178.58V516.8H1212.18V528H1178.58V546.7H1214.18V558H1165.58ZM1250.74 558V487H1278.24C1294.84 487 1304.74 495.5 1304.74 509.6C1304.74 523.8 1294.84 532.4 1278.24 532.4H1263.74V558H1250.74ZM1277.64 521.1C1286.44 521.1 1291.34 517.2 1291.34 509.6C1291.34 502.2 1286.54 498.3 1277.64 498.3H1263.74V521.1H1277.64ZM1317.14 558V487H1330.14V546.7H1363.84V558H1317.14ZM1371.7 558L1397.3 487H1413.2L1438.8 558H1425.2L1419.3 541.2H1391.2L1385.3 558H1371.7ZM1395 530.1H1415.5L1405.3 500.1L1395 530.1ZM1474.47 559.6C1455.17 559.6 1441.57 545.8 1441.57 522.6C1441.57 499.8 1454.67 485.4 1474.67 485.4C1492.77 485.4 1502.47 494.9 1505.47 511L1491.87 511.7C1490.17 502.4 1484.47 496.7 1474.67 496.7C1462.57 496.7 1455.07 506.8 1455.07 522.6C1455.07 538.6 1462.77 548.3 1474.57 548.3C1485.07 548.3 1490.67 542.2 1492.27 532L1505.87 532.7C1503.07 549.4 1492.47 559.6 1474.47 559.6ZM1517.73 558V487H1565.53V498.3H1530.73V516.8H1564.33V528H1530.73V546.7H1566.33V558H1517.73ZM1602.89 558V487H1650.39V498.3H1615.89V517.7H1648.59V528.9H1615.89V558H1602.89ZM1693.05 559.6C1671.95 559.6 1659.15 545.5 1659.15 522.6C1659.15 499.7 1671.95 485.4 1693.05 485.4C1714.25 485.4 1726.95 499.7 1726.95 522.6C1726.95 545.5 1714.25 559.6 1693.05 559.6ZM1693.05 548.3C1705.85 548.3 1713.45 538.8 1713.45 522.6C1713.45 506.4 1705.85 496.7 1693.05 496.7C1680.25 496.7 1672.65 506.4 1672.65 522.6C1672.65 538.8 1680.25 548.3 1693.05 548.3ZM1736.97 558V487H1766.67C1781.97 487 1791.77 495.3 1791.77 508.3C1791.77 516.8 1786.47 523 1779.57 525.2C1786.27 526.2 1789.97 530.2 1790.57 537.5L1792.37 558H1779.17L1777.67 539.4C1777.27 533.7 1774.37 531.2 1766.97 531.2H1749.97V558H1736.97ZM1765.87 519.8C1773.67 519.8 1778.37 516 1778.37 509.1C1778.37 502.1 1773.67 498.3 1765.27 498.3H1749.97V519.8H1765.87ZM1823.85 558L1849.45 487H1865.35L1890.95 558H1877.35L1871.45 541.2H1843.35L1837.45 558H1823.85ZM1847.15 530.1H1867.65L1857.45 500.1L1847.15 530.1ZM1899.66 558V487H1912.66V546.7H1946.36V558H1899.66ZM1958.55 558V487H1971.55V546.7H2005.25V558H1958.55ZM2040.78 558V487H2068.28C2084.88 487 2094.78 495.5 2094.78 509.6C2094.78 523.8 2084.88 532.4 2068.28 532.4H2053.78V558H2040.78ZM2067.68 521.1C2076.48 521.1 2081.38 517.2 2081.38 509.6C2081.38 502.2 2076.58 498.3 2067.68 498.3H2053.78V521.1H2067.68ZM2107.18 558V487H2154.98V498.3H2120.18V516.8H2153.78V528H2120.18V546.7H2155.78V558H2107.18ZM2184.91 558V498.3H2163.41V487H2219.51V498.3H2197.91V558H2184.91ZM2282.97 559.6C2263.67 559.6 2250.07 545.8 2250.07 522.6C2250.07 499.8 2263.17 485.4 2283.17 485.4C2301.27 485.4 2310.97 494.9 2313.97 511L2300.37 511.7C2298.67 502.4 2292.97 496.7 2283.17 496.7C2271.07 496.7 2263.57 506.8 2263.57 522.6C2263.57 538.6 2271.27 548.3 2283.07 548.3C2293.57 548.3 2299.17 542.2 2300.77 532L2314.37 532.7C2311.57 549.4 2300.97 559.6 2282.97 559.6ZM2317.69 558L2343.29 487H2359.19L2384.79 558H2371.19L2365.29 541.2H2337.19L2331.29 558H2317.69ZM2340.99 530.1H2361.49L2351.29 500.1L2340.99 530.1ZM2395.17 558V487H2424.87C2440.17 487 2449.97 495.3 2449.97 508.3C2449.97 516.8 2444.67 523 2437.77 525.2C2444.47 526.2 2448.17 530.2 2448.77 537.5L2450.57 558H2437.37L2435.87 539.4C2435.47 533.7 2432.57 531.2 2425.17 531.2H2408.17V558H2395.17ZM2424.07 519.8C2431.87 519.8 2436.57 516 2436.57 509.1C2436.57 502.1 2431.87 498.3 2423.47 498.3H2408.17V519.8H2424.07ZM2464.12 558V487H2511.92V498.3H2477.12V516.8H2510.72V528H2477.12V546.7H2512.72V558H2464.12Z" fill="#D8D8D8"/>
<path d="M224.899 150.669C176.513 186.4 173.536 235.53 181.724 286.892C129.617 302.524 111.358 349.4 99.8414 390.362C91.6533 434.281 110.263 487.877 110.263 487.877C110.263 487.877 145.413 568.992 192.146 594.325C230.534 615.134 294.127 606.979 294.127 606.979C294.127 606.979 331.346 653.131 396.852 652.387C462.359 651.643 514.466 587.625 514.466 587.625C514.466 587.625 608.277 643.376 673.02 619.634C727.531 599.645 801.055 517.653 801.055 517.653C801.055 517.653 910.467 531.105 931.323 481.178C956.51 420.882 871.772 379.941 871.772 379.941C871.772 379.941 843.496 260.589 797.333 222.875C762.294 194.248 709.495 197.566 709.495 197.566C709.495 197.566 717.443 151.931 690.141 126.849C642.617 83.188 514.466 107.495 514.466 107.495C514.466 107.495 443.256 86.136 408.763 94.8403C373.176 103.82 353.678 150.669 353.678 150.669C353.678 150.669 280.728 109.441 224.899 150.669Z" fill="#BBE2EC" stroke="#BBE2EC" stroke-width="25"/>
<path d="M105.864 252.351C97.4637 273.317 76.6971 282.03 61.0361 275.755C45.3751 269.481 36.3695 248.839 44.7695 227.874C53.1695 206.908 73.9362 198.195 89.5972 204.47C105.258 210.744 114.264 231.386 105.864 252.351Z" fill="#BBE2EC" stroke="#BBE2EC" stroke-width="25"/>
<path d="M828.823 37.6105C858.175 50.0404 870.405 79.0071 861.335 100.426C852.265 121.845 822.952 133.22 793.599 120.79C764.246 108.36 752.016 79.3934 761.086 57.9743C770.157 36.5552 799.47 25.1806 828.823 37.6105Z" fill="#BBE2EC" stroke="#BBE2EC" stroke-width="25"/>
<path d="M278.351 257.291C361.198 188.008 473.042 190.574 528.905 257.373C584.767 324.172 567.504 434.707 484.657 503.989C401.81 573.272 289.966 570.706 234.104 503.907C178.242 437.108 195.504 326.573 278.351 257.291Z" fill="#9F634A" stroke="#333333" stroke-width="23"/>
<path d="M208.521 376.964L216.71 343.467C216.71 343.467 111.751 348.678 63.3657 386.641C30.1246 412.723 7.53658 447.681 12.7473 482.667C17.4357 514.146 44.2609 531.97 76.0203 534.03C124.145 537.151 130.832 464.972 153.437 422.372C172.791 385.897 208.521 376.964 208.521 376.964Z" fill="#9F634A" stroke="#333333" stroke-width="23"/>
<path d="M431.279 199.61L396.87 197.349C396.87 197.349 433.391 98.8118 484.144 64.0771C519.012 40.214 559.144 29.1797 590.946 44.6668C619.559 58.6014 628.495 89.5439 620.912 120.454C609.422 167.291 538.57 151.97 491.146 160.723C450.54 168.217 431.279 199.61 431.279 199.61Z" fill="#9F634A" stroke="#333333" stroke-width="23"/>
<path d="M329.857 483.412C329.857 483.412 330.118 459.156 338.79 447.681C348.121 435.335 373.776 429.071 373.776 429.071" stroke="#333333" stroke-width="20" stroke-linecap="round"/>
<path d="M441.113 375.58C441.113 375.58 450.08 355.87 461.302 349.632C473.377 342.92 496.584 347.066 496.584 347.066" stroke="#333333" stroke-width="20" stroke-linecap="round"/>
<path d="M487.279 439.046C490.909 443.934 490.366 451.364 486.287 459.561C482.222 467.729 474.707 476.514 464.689 483.952C454.671 491.39 444.089 496.044 435.093 497.572C426.067 499.106 418.798 497.477 415.168 492.589C411.539 487.7 412.082 480.271 416.161 472.074C420.226 463.905 427.741 455.121 437.759 447.683C447.776 440.245 458.359 435.591 467.355 434.062C476.381 432.529 483.65 434.158 487.279 439.046Z" fill="#333333" stroke="#333333"/>
<path d="M740.759 289.868C719.84 283.723 694.607 292.846 684.93 289.868C675.253 286.891 635.056 243.716 635.056 243.716C635.056 243.716 603.614 212.84 576.993 221.384C522.981 238.72 550.94 318.155 545.729 374.729C542.653 408.12 539.808 429.266 552.428 460.333C571.274 506.724 614.213 531.371 649.199 544.449C673.764 553.632 742.459 567.047 789.888 539.239C828.007 516.889 842.74 496.064 858.372 449.168C876.638 394.37 951.197 356.559 914.201 312.2C881.423 272.898 798.077 322.621 783.189 315.178C768.301 307.734 759.27 295.307 740.759 289.868Z" fill="#FEB422" stroke="#333333" stroke-width="23" stroke-linecap="round"/>
<path d="M675.669 514.104C670.357 511.311 649.874 496.312 660.726 491.522C664.393 489.903 671.838 490.995 681.661 493.785C690.679 496.346 701.164 500.279 702.908 504.959C706.196 513.78 680.877 513.922 675.669 514.104Z" fill="#333333" stroke="#333333" stroke-linecap="round"/>
<path d="M608.029 432.95C608.029 432.95 622.94 423.937 633.226 424.893C644.294 425.923 657.821 439.221 657.821 439.221" stroke="#333333" stroke-width="20" stroke-linecap="round"/>
<path d="M732.563 458.371C732.563 458.371 749.543 454.468 759.016 458.592C769.208 463.028 777.901 479.887 777.901 479.887" stroke="#333333" stroke-width="20" stroke-linecap="round"/>
</svg>
