<svg width="219" height="208" viewBox="0 0 219 208" fill="none" xmlns="http://www.w3.org/2000/svg">
<path d="M196.618 94.1025C189.618 130.103 211.618 195.603 181.618 205.103C163.118 210.961 147.679 207.67 125.118 182.603C93.6181 147.603 71.2609 98.7797 87.6182 53.6026C99.2045 21.6026 149.618 6.1027 149.618 6.1027C149.618 6.1027 189.618 -7.89974 205.618 7.60144C235.121 36.1844 204.708 52.4966 196.618 94.1025Z" fill="#1E6A7C"/>
<path d="M21.6153 93.8018C28.6153 129.802 6.61533 195.302 36.6153 204.802C55.1153 210.66 70.5547 207.369 93.1153 182.302C124.615 147.302 146.973 98.4789 130.615 53.3018C119.029 21.3018 68.6153 5.80192 68.6153 5.80192C68.6153 5.80192 28.6153 -8.20053 12.6153 7.30066C-16.8874 35.8836 13.5253 52.1959 21.6153 93.8018Z" fill="#11ACD1" fill-opacity="0.8"/>
</svg>
