<svg width="24" height="24" viewBox="0 0 24 24" fill="none" xmlns="http://www.w3.org/2000/svg">
<g clip-path="url(#clip0_254_2)">
<mask id="mask0_254_2" style="mask-type:luminance" maskUnits="userSpaceOnUse" x="0" y="-1" width="24" height="24">
<path d="M0 -0.999999H24V23H0V-0.999999Z" fill="white"/>
</mask>
<g mask="url(#mask0_254_2)">
<path d="M21.4731 10.3685C22.1502 6.52599 22.2702 0.86452 21.4731 0.349152C20.6761 -0.165585 15.1119 1.74936 13.9485 4.30473C13.3138 4.1361 11.9995 4.05273 11.9995 4.05273C11.9995 4.05273 10.7275 4.1361 10.0934 4.30473C8.92999 1.74936 3.3222 -0.165585 2.52578 0.349152C1.72872 0.86452 1.84746 6.52599 2.52578 10.3685C2.52578 10.3685 1.91504 11.6184 1.91504 16.0212L12.0203 13.5157V12.987L22.1256 16.042C22.1256 11.6184 21.4731 10.3685 21.4731 10.3685Z" fill="#F4D8B2"/>
<path d="M15.7548 11.809C14.438 11.809 13.0561 12.1103 12.0203 12.6181C10.9851 12.1103 9.60325 11.809 8.28641 11.809C2.01357 11.809 1.91504 15.0301 1.91504 16.0179C1.91504 17.0025 3.15735 22.3545 11.9995 22.3545C20.8416 22.3545 22.1256 17.0233 22.1256 16.0387C22.1256 15.0509 22.027 11.809 15.7548 11.809Z" fill="#FFBA32"/>
<path d="M15.5003 4.74795C16.9144 3.21615 19.8539 2.06618 20.4574 2.2121C20.9474 2.32845 20.8711 6.31702 20.4782 8.59961C18.808 5.86771 15.5003 4.74795 15.5003 4.74795ZM8.49779 4.74795C7.08503 3.21615 4.14483 2.06618 3.54206 2.2121C3.05072 2.32845 3.12697 6.31702 3.52121 8.59961C5.19136 5.86771 8.49779 4.74795 8.49779 4.74795Z" fill="#E99900"/>
<path d="M10.1174 10.3671C10.1174 11.065 9.54641 11.6302 8.84156 11.6302C8.50499 11.6317 8.18159 11.4995 7.94246 11.2626C7.70334 11.0258 7.56808 10.7036 7.56641 10.3671C7.56641 9.66979 8.13735 9.10516 8.84156 9.10516C9.54641 9.10516 10.1174 9.66979 10.1174 10.3671ZM16.4458 10.3677C16.4458 11.0656 15.8748 11.6308 15.17 11.6308C14.8334 11.6324 14.51 11.5001 14.2709 11.2633C14.0318 11.0264 13.8965 10.7043 13.8948 10.3677C13.8948 9.67043 14.4658 9.10579 15.17 9.10579C15.8748 9.10579 16.4458 9.67043 16.4458 10.3677Z" fill="#2E2E2E"/>
<path d="M12.0124 17.8672C11.8449 17.8672 11.6843 17.8006 11.5658 17.6822C11.4474 17.5638 11.3809 17.4031 11.3809 17.2356V15.4198C11.3809 15.2523 11.4474 15.0917 11.5658 14.9732C11.6843 14.8548 11.8449 14.7882 12.0124 14.7882C12.1799 14.7882 12.3406 14.8548 12.459 14.9732C12.5775 15.0917 12.644 15.2523 12.644 15.4198V17.2356C12.644 17.4031 12.5775 17.5638 12.459 17.6822C12.3406 17.8006 12.1799 17.8672 12.0124 17.8672Z" fill="#272A2B"/>
<path d="M14.5709 19.2627C12.0433 19.2627 11.4402 17.5189 11.4124 17.4336C11.3865 17.3548 11.3764 17.2716 11.3827 17.1889C11.389 17.1062 11.4116 17.0255 11.4491 16.9515C11.4867 16.8775 11.5385 16.8116 11.6015 16.7577C11.6646 16.7038 11.7377 16.6628 11.8166 16.6372C11.9741 16.5852 12.1457 16.5974 12.2942 16.6712C12.4428 16.745 12.5562 16.8744 12.6099 17.0313C12.637 17.1046 13.1631 18.381 15.6655 17.8808C15.7469 17.8641 15.8308 17.8637 15.9123 17.8796C15.9939 17.8955 16.0715 17.9274 16.1406 17.9736C16.2097 18.0197 16.269 18.079 16.3151 18.1482C16.3611 18.2174 16.393 18.295 16.4088 18.3766C16.4251 18.4579 16.4252 18.5416 16.4092 18.6229C16.3931 18.7042 16.3611 18.7816 16.3152 18.8506C16.2692 18.9195 16.21 18.9788 16.1412 19.0249C16.0723 19.071 15.995 19.1031 15.9137 19.1193C15.4719 19.2115 15.0222 19.2596 14.5709 19.2627Z" fill="#272A2B"/>
<path d="M9.42993 19.2627C9.03077 19.2627 8.58551 19.2197 8.08656 19.1193C8.00527 19.1031 7.92796 19.071 7.85907 19.0249C7.79018 18.9788 7.73105 18.9195 7.68507 18.8506C7.63908 18.7816 7.60714 18.7042 7.59107 18.6229C7.575 18.5416 7.57511 18.4579 7.5914 18.3766C7.60716 18.295 7.63898 18.2173 7.68499 18.1481C7.73101 18.0789 7.79032 18.0195 7.85947 17.9733C7.92862 17.9272 8.00625 17.8953 8.08784 17.8794C8.16943 17.8635 8.25337 17.864 8.33477 17.8808C10.8624 18.3848 11.3967 17.0787 11.4181 17.0225C11.4776 16.8674 11.5952 16.7417 11.746 16.672C11.8967 16.6023 12.0686 16.5941 12.2253 16.6492C12.3804 16.7041 12.5077 16.8178 12.5798 16.9657C12.6519 17.1136 12.6629 17.284 12.6106 17.44C12.5815 17.5259 11.9575 19.2627 9.42993 19.2627Z" fill="#272A2B"/>
<path d="M14.5392 13.2682C14.5392 14.3785 12.508 15.7812 12.0002 15.7812C11.4937 15.7812 9.46191 14.3785 9.46191 13.2682C9.46191 12.1566 10.8792 12.2627 12.0002 12.2627C13.1219 12.2627 14.5392 12.1566 14.5392 13.2682Z" fill="#2E2E2E"/>
<path d="M22.1188 19.7998C22.0291 19.7999 21.9403 19.7808 21.8586 19.7439C21.7768 19.707 21.7038 19.653 21.6445 19.5857C21.6255 19.5636 19.6354 17.3739 15.0697 16.6653C14.9867 16.6538 14.9067 16.626 14.8345 16.5833C14.7624 16.5406 14.6994 16.484 14.6493 16.4167C14.5993 16.3494 14.5631 16.2729 14.5429 16.1915C14.5228 16.1101 14.519 16.0255 14.5319 15.9427C14.5448 15.8598 14.574 15.7803 14.6179 15.7089C14.6618 15.6375 14.7195 15.5755 14.7876 15.5266C14.8558 15.4777 14.9329 15.4428 15.0146 15.4241C15.0964 15.4053 15.181 15.403 15.2636 15.4173C15.49 15.4522 15.7158 15.4913 15.9407 15.5348C20.5146 16.4215 22.5085 18.6548 22.595 18.7533C22.6744 18.8448 22.7258 18.9571 22.7432 19.077C22.7605 19.1969 22.7431 19.3192 22.6929 19.4294C22.6427 19.5397 22.562 19.6332 22.4602 19.6989C22.3584 19.7645 22.2399 19.7996 22.1188 19.7998Z" fill="#272A2B"/>
<path d="M15.1663 16.6722C15.0185 16.6715 14.8757 16.619 14.7626 16.5238C14.6495 16.4287 14.5733 16.2969 14.5473 16.1514C14.5212 16.006 14.547 15.856 14.62 15.7275C14.6931 15.599 14.8088 15.5002 14.9472 15.4482C18.4063 14.1699 22.6278 15.3289 22.811 15.3794C22.9724 15.4242 23.1095 15.5313 23.192 15.6772C23.2745 15.823 23.2957 15.9957 23.2509 16.1572C23.2061 16.3186 23.0989 16.4557 22.9531 16.5382C22.8072 16.6207 22.6345 16.6419 22.4731 16.5971C22.4327 16.5857 18.4575 15.4988 15.3855 16.6331C15.3153 16.6589 15.2411 16.6721 15.1663 16.6722ZM1.88675 19.7998C1.97649 19.7999 2.0652 19.7808 2.14699 19.7439C2.22878 19.707 2.30176 19.653 2.36107 19.5857C2.38002 19.5636 4.37012 17.3739 8.93581 16.6653C9.01887 16.6538 9.09883 16.626 9.171 16.5833C9.24318 16.5406 9.30614 16.484 9.3562 16.4167C9.40627 16.3494 9.44244 16.2729 9.4626 16.1915C9.48277 16.1101 9.48652 16.0255 9.47365 15.9427C9.46077 15.8598 9.43153 15.7803 9.38762 15.7089C9.34372 15.6375 9.28602 15.5755 9.21791 15.5266C9.1498 15.4777 9.07263 15.4428 8.9909 15.4241C8.90918 15.4053 8.82454 15.403 8.74191 15.4173C8.51551 15.4522 8.28978 15.4913 8.06486 15.5348C3.49097 16.4215 1.49707 18.6548 1.41054 18.7533C1.33117 18.8448 1.27974 18.9571 1.26239 19.077C1.24503 19.1969 1.26247 19.3192 1.31263 19.4294C1.3628 19.5397 1.44358 19.6332 1.54536 19.6989C1.64714 19.7645 1.76563 19.7996 1.88675 19.7998Z" fill="#272A2B"/>
<path d="M8.83996 16.6729C8.98774 16.6721 9.13059 16.6196 9.24369 16.5244C9.35678 16.4293 9.43297 16.2976 9.45902 16.1521C9.48507 16.0066 9.45932 15.8566 9.38627 15.7281C9.31321 15.5997 9.19746 15.5008 9.05911 15.4489C5.59996 14.1705 1.37848 15.3295 1.19532 15.38C1.03385 15.4248 0.896787 15.5319 0.814291 15.6778C0.731795 15.8237 0.710622 15.9963 0.755429 16.1578C0.800237 16.3193 0.907355 16.4563 1.05322 16.5388C1.19908 16.6213 1.37174 16.6425 1.53322 16.5977C1.57364 16.5863 5.5488 15.4994 8.6208 16.6337C8.69099 16.6595 8.76517 16.6727 8.83996 16.6729Z" fill="#272A2B"/>
</g>
</g>
<defs>
<clipPath id="clip0_254_2">
<rect width="24" height="24" fill="white"/>
</clipPath>
</defs>
</svg>
