<svg width="495" height="496" viewBox="0 0 495 496" fill="none" xmlns="http://www.w3.org/2000/svg">
<g clip-path="url(#clip0_134_22)">
<path d="M481.965 457.043V104.418C481.965 98.2184 479.255 92.7159 475.074 88.7634C479.333 84.8109 482.043 79.1534 482.043 72.9534V72.8759C482.043 60.8634 472.286 51.0984 460.284 51.0984H338.173V20.7959C338.173 9.0159 328.649 -0.516602 316.88 -0.516602H178.198C166.428 -0.516602 156.904 9.0159 156.904 20.7959V51.0984H34.7932C22.7912 51.0984 13.0347 60.8634 13.0347 72.8759V72.9534C13.0347 78.6109 15.2802 83.7259 18.8421 87.6784H21.32C16.2868 91.5534 13.0347 97.5984 13.0347 104.496V457.121C5.60117 457.198 -0.283691 463.243 -0.283691 470.606V481.921C-0.283691 489.361 5.75604 495.483 13.267 495.483H481.733C489.167 495.483 495.284 489.361 495.284 481.921V470.606C495.284 463.243 489.244 457.198 481.965 457.043ZM168.519 73.4184V20.7959C168.519 15.4484 172.855 11.1084 178.198 11.1084H316.88C322.222 11.1084 326.559 15.4484 326.559 20.7959V73.4184C326.559 85.1984 336.083 94.7309 347.853 94.7309H460.672C466.014 94.7309 470.351 99.0709 470.351 104.418V457.043H323.074V369.003C330.043 368.383 335.463 362.648 335.463 355.518V347.691C335.463 340.251 329.424 334.128 321.913 334.128H173.01C165.577 334.128 159.459 340.251 159.459 347.691V355.518C159.459 362.648 164.957 368.383 171.926 369.003V457.043H24.6496V104.418C24.6496 99.0709 28.9858 94.7309 34.3286 94.7309H147.225C158.917 94.7309 168.519 85.1984 168.519 73.4184ZM183.541 369.081H311.459V457.043H295.973V390.393C295.973 387.216 293.34 384.581 290.165 384.581H204.835C201.66 384.581 199.027 387.216 199.027 390.393V457.043H183.541V369.081ZM253.308 396.206H284.358V457.043H253.308V396.206ZM241.693 457.043H210.642V396.206H241.693V457.043Z" fill="#3C8EA2"/>
<path d="M369.843 433.715H435.893C439.068 433.715 441.701 431.08 441.701 427.902V342.188C441.701 339.01 439.068 336.375 435.893 336.375H369.843C366.669 336.375 364.036 339.01 364.036 342.188V427.902C364.036 431.158 366.669 433.715 369.843 433.715ZM375.651 422.09V390.858H430.086V422.09H375.651ZM430.086 348V379.233H375.651V348H430.086ZM125.079 226.403H59.0296C55.8549 226.403 53.2222 229.038 53.2222 232.215V306.305C53.2222 309.483 55.8549 312.118 59.0296 312.118H125.079C128.254 312.118 130.887 309.483 130.887 306.305V232.215C130.887 228.96 128.254 226.403 125.079 226.403ZM119.272 238.028V263.448H64.837V238.028H119.272ZM64.837 300.493V275.073H119.272V300.493H64.837ZM125.079 117.36H59.0296C55.8549 117.36 53.2222 119.995 53.2222 123.173V197.263C53.2222 200.44 55.8549 203.075 59.0296 203.075H125.079C128.254 203.075 130.887 200.44 130.887 197.263V123.173C130.887 119.918 128.254 117.36 125.079 117.36ZM119.272 128.985V154.405H64.837V128.985H119.272ZM64.837 191.45V166.03H119.272V191.45H64.837ZM369.843 203.075H435.893C439.068 203.075 441.701 200.44 441.701 197.263V123.173C441.701 119.995 439.068 117.36 435.893 117.36H369.843C366.669 117.36 364.036 119.995 364.036 123.173V197.263C364.036 200.44 366.669 203.075 369.843 203.075ZM375.651 191.45V166.03H430.086V191.45H375.651ZM430.086 128.985V154.405H375.651V128.985H430.086ZM369.843 312.118H435.893C439.068 312.118 441.701 309.483 441.701 306.305V232.215C441.701 229.038 439.068 226.403 435.893 226.403H369.843C366.669 226.403 364.036 229.038 364.036 232.215V306.305C364.036 309.483 366.669 312.118 369.843 312.118ZM375.651 300.493V275.073H430.086V300.493H375.651ZM430.086 238.028V263.448H375.651V238.028H430.086ZM125.079 336.375H59.0296C55.8549 336.375 53.2222 339.01 53.2222 342.188V427.902C53.2222 431.08 55.8549 433.715 59.0296 433.715H125.079C128.254 433.715 130.887 431.08 130.887 427.902V342.188C130.887 338.933 128.254 336.375 125.079 336.375ZM119.272 348V379.233H64.837V348H119.272ZM64.837 422.09V390.858H119.272V422.09H64.837ZM199.337 107.518L204.525 116.508C206.616 120.073 211.184 121.313 214.824 119.298L234.801 107.75V130.845C234.801 134.953 238.208 138.363 242.312 138.363H252.766C256.869 138.363 260.277 134.953 260.277 130.845V107.75L280.254 119.298C283.816 121.313 288.462 120.15 290.553 116.508L295.741 107.518C297.831 103.953 296.592 99.3025 293.03 97.21L273.053 85.6625L293.03 74.115C296.592 72.0225 297.831 67.45 295.741 63.8075L290.553 54.8175C288.462 51.2525 283.893 50.0125 280.254 52.0275L260.277 63.575V40.5575C260.277 36.45 256.869 33.04 252.766 33.04H242.312C238.208 33.04 234.801 36.45 234.801 40.5575V63.6525L214.824 52.105C211.262 50.09 206.616 51.2525 204.525 54.895L199.337 63.885C197.247 67.45 198.485 72.1 202.047 74.1925L222.025 85.74L202.047 97.2875C198.485 99.38 197.247 103.953 199.337 107.518ZM288.926 268.02C285.21 264.843 281.028 261.278 277.544 256.705C273.517 251.435 271.117 246.398 268.949 241.98C264.845 233.378 260.973 225.24 247.5 225.24C234.027 225.24 230.078 233.378 225.974 241.98C223.883 246.475 221.483 251.513 217.379 256.705C213.894 261.2 209.636 264.843 205.996 268.02C197.634 275.15 189.039 282.513 196.24 296.308C198.795 301.19 203.286 303.593 209.945 303.593C214.437 303.593 219.779 302.508 225.432 301.345C232.169 299.95 239.834 298.4 247.5 298.4C255.166 298.4 262.832 299.95 269.568 301.345C275.221 302.508 280.486 303.593 285.055 303.593C291.714 303.593 296.205 301.19 298.76 296.308C305.884 282.513 297.289 275.15 288.926 268.02ZM295.586 247.25C298.218 249.885 301.78 251.203 305.884 251.203C312.234 251.203 319.28 247.948 324.778 242.445C334.302 232.913 336.393 220.048 329.579 213.228C326.946 210.593 323.384 209.198 319.28 209.198C313.008 209.198 305.884 212.453 300.387 217.955C290.785 227.565 288.694 240.43 295.586 247.25ZM290.088 162.233C288.075 161.225 285.907 160.76 283.584 160.76C274.911 160.76 265.697 167.813 260.586 178.353C253.85 192.148 256.25 206.795 266.007 211.6C268.02 212.608 270.188 213.073 272.511 213.073C281.183 213.073 290.398 206.02 295.586 195.558C298.683 189.203 299.922 182.383 299.148 176.338C298.218 169.673 295.044 164.713 290.088 162.233ZM189.116 251.28C193.297 251.28 196.859 249.885 199.415 247.328C206.229 240.508 204.138 227.643 194.614 218.11C189.116 212.608 182.07 209.353 175.72 209.353C171.539 209.353 167.977 210.748 165.422 213.383C158.608 220.203 160.698 233.068 170.223 242.6C175.72 247.948 182.767 251.28 189.116 251.28ZM222.489 213.073C224.812 213.073 226.981 212.608 228.994 211.6C238.828 206.795 241.228 192.225 234.414 178.353C229.304 167.89 220.012 160.76 211.417 160.76C209.094 160.76 206.926 161.303 204.912 162.233C199.957 164.635 196.782 169.673 195.853 176.26C195.078 182.305 196.317 189.125 199.415 195.48C204.525 206.02 213.817 213.073 222.489 213.073Z" fill="#3C8EA2"/>
</g>
<defs>
<clipPath id="clip0_134_22">
<rect width="495" height="496" fill="white"/>
</clipPath>
</defs>
</svg>
