<svg width="24" height="24" viewBox="0 0 24 24" fill="none" xmlns="http://www.w3.org/2000/svg">
<g clip-path="url(#clip0_254_18)">
<mask id="mask0_254_18" style="mask-type:luminance" maskUnits="userSpaceOnUse" x="0" y="0" width="24" height="24">
<path d="M0 9.53674e-07H24V24H0V9.53674e-07Z" fill="white"/>
</mask>
<g mask="url(#mask0_254_18)">
<path d="M10.1064 19.5787V21.4734C10.1064 21.4734 10.1064 23.3682 12.0012 23.3682C13.8959 23.3682 13.8959 21.4734 13.8959 21.4734V19.5787H10.1064Z" fill="#E73B3B"/>
<path d="M9.47394 1.8953C9.49984 0.000567496 0.631836 0.632146 0.631836 6.94793C0.631836 9.47425 0.631836 15.79 2.52657 15.79C5.05289 15.79 9.4392 4.42162 9.47394 1.8953ZM14.5266 1.8953C14.5007 0.000567496 23.3687 0.632146 23.3687 6.94793C23.3687 9.47425 23.3687 15.79 21.4739 15.79C18.9476 15.79 14.5613 4.42162 14.5266 1.8953Z" fill="#9F634A"/>
<path d="M20.2111 14.5252C20.2111 18.9463 17.6848 18.9463 17.6848 18.9463H6.31635C6.31635 18.9463 3.79004 18.9463 3.79004 14.5252C3.79004 14.5252 4.42162 0.630499 12.0006 0.630499C19.5795 0.630499 20.2111 14.5252 20.2111 14.5252Z" fill="#F5E1C6"/>
<path d="M15.1574 14.5417V14.5259H8.84163V14.5417C8.26048 14.5943 7.70196 14.7924 7.21763 15.1179C6.73329 15.4434 6.33877 15.8856 6.07049 16.4038C5.8022 16.922 5.66881 17.4994 5.68261 18.0828C5.69642 18.6661 5.85699 19.2366 6.14949 19.7415C6.44199 20.2464 6.857 20.6695 7.35619 20.9717C7.85537 21.2739 8.42265 21.4454 9.00563 21.4704C9.58862 21.4955 10.1685 21.3732 10.6918 21.115C11.215 20.8567 11.6648 20.4708 11.9995 19.9928C12.3192 20.45 12.7445 20.8233 13.2393 21.0811C13.7341 21.3388 14.2837 21.4733 14.8416 21.4732C15.733 21.4695 16.5888 21.1232 17.232 20.506C17.8751 19.8889 18.2564 19.0481 18.297 18.1577C18.3376 17.2672 18.0343 16.3953 17.4499 15.7222C16.8655 15.0491 16.0447 14.6265 15.1574 14.5417Z" fill="#9F634A"/>
<path d="M7.5791 10.7365C7.5791 10.7365 7.5791 9.47332 8.84226 9.47332C10.1054 9.47332 10.1054 10.7365 10.1054 10.7365V11.9996C10.1054 11.9996 10.1054 13.2628 8.84226 13.2628C7.5791 13.2628 7.5791 11.9996 7.5791 11.9996V10.7365ZM13.8949 10.7365C13.8949 10.7365 13.8949 9.47332 15.158 9.47332C16.4212 9.47332 16.4212 10.7365 16.4212 10.7365V11.9996C16.4212 11.9996 16.4212 13.2628 15.158 13.2628C13.8949 13.2628 13.8949 11.9996 13.8949 11.9996V10.7365ZM10.1054 15.7891C9.47384 16.4207 11.3686 18.3154 12.0002 18.3154C12.6317 18.3154 14.5265 16.4207 13.8949 15.7891C13.2633 15.1575 10.737 15.1575 10.1054 15.7891Z" fill="#272A2B"/>
</g>
</g>
<defs>
<clipPath id="clip0_254_18">
<rect width="24" height="24" fill="white"/>
</clipPath>
</defs>
</svg>
