<svg width="525" height="502" viewBox="0 0 525 502" fill="none" xmlns="http://www.w3.org/2000/svg">
<path d="M521.102 212.89L270.205 2.62827C266.121 -0.876091 259.703 -0.876091 255.035 2.62827L4.1385 212.89C-0.529336 216.978 -1.69629 224.571 2.97154 229.244C7.0559 233.916 14.6411 235.084 19.309 230.412L64.2369 192.448V431.913V466.956C64.2369 486.23 79.9909 502 99.2457 502H425.994C445.249 502 461.003 486.23 461.003 466.956V431.913V193.032L505.931 230.996C508.265 232.748 510.599 233.916 513.516 233.916C517.017 233.916 519.935 232.748 522.269 229.828C526.353 223.987 525.77 216.978 521.102 212.89Z" fill="#CA8A03"/>
<path d="M521.102 212.89L270.205 2.62827C266.121 -0.876091 259.703 -0.876091 255.035 2.62827L4.1385 212.89C-0.529336 216.978 -1.69629 224.571 2.97154 229.244C7.0559 233.916 14.6411 235.084 19.309 230.412L64.2369 192.448V431.913V466.956C64.2369 486.23 79.9909 502 99.2457 502H425.994C445.249 502 461.003 486.23 461.003 466.956V431.913V193.032L505.931 230.996C508.265 232.748 510.599 233.916 513.516 233.916C517.017 233.916 519.935 232.748 522.269 229.828C526.353 223.987 525.77 216.978 521.102 212.89ZM437.664 478.232C304.739 478.232 246.64 478.232 87.5761 478.232V173.174L262.62 26.5748L437.664 173.174V478.232Z" fill="#CA8A03"/>
<path d="M389.381 363.062C389.876 356.622 392.405 350.506 396.604 345.598C403.762 336.464 407.735 325.238 407.916 313.635C408.508 304.698 405.955 295.836 400.7 288.584C396.816 283.352 394.986 276.877 395.559 270.387C396.336 254.21 400.314 238.349 407.264 223.721C407.81 222.628 408.019 221.397 407.865 220.186C407.712 218.974 407.202 217.835 406.402 216.912C405.601 215.99 404.545 215.325 403.367 215.002C402.189 214.679 400.942 214.713 399.783 215.099C374.198 223.627 364.52 247.652 358.115 263.551C356.578 268.143 354.453 272.517 351.795 276.565H302.885C290.908 276.565 254.46 276.565 236.878 270.704C219.948 265.062 191.675 223.482 191.675 214.782C191.675 198.443 171.245 191.161 168.916 190.385C167.988 190.076 166.999 189.992 166.031 190.14C165.063 190.288 164.145 190.664 163.351 191.236C162.556 191.808 161.91 192.561 161.463 193.432C161.017 194.303 160.784 195.268 160.783 196.247V210.586C150.803 214.445 142.355 221.456 136.722 230.554C134.889 234.371 132.207 237.718 128.882 240.339C125.556 242.959 121.675 244.784 117.535 245.674C112.697 245.913 108.12 247.943 104.695 251.368C101.27 254.794 99.2398 259.37 99 264.209C99 295.1 117.601 295.1 123.713 295.1C130.064 296.029 136.314 297.551 142.381 299.646C143.425 317.095 150.381 325.6 154.704 329.244C156.336 355.776 177.556 373.135 185.536 378.758C185.33 385.838 186.638 392.881 189.37 399.417C191.164 403.529 191.954 408.01 191.675 412.488C191.034 417.416 189.236 422.121 186.428 426.221C183.62 430.32 179.883 433.698 175.52 436.076C172.61 437.198 170.183 439.303 168.661 442.025C167.139 444.747 166.617 447.917 167.185 450.983C167.753 454.05 169.376 456.822 171.773 458.818C174.169 460.815 177.189 461.91 180.308 461.915H210.21C211.848 461.914 213.419 461.263 214.578 460.105C231.381 443.304 238.395 398.038 240.443 381.545C264.615 381.371 288.639 377.754 311.79 370.802C320.044 382.598 330.835 392.397 343.369 399.48C353.696 404.642 364.668 415.285 364.668 424.845C364.668 430.26 357.05 434.505 353.777 436.076C351.031 437.415 348.815 439.638 347.486 442.389C346.156 445.14 345.792 448.258 346.45 451.242C347.108 454.225 348.751 456.9 351.115 458.836C353.478 460.772 356.424 461.857 359.479 461.915H389.381C390.529 461.915 391.653 461.596 392.63 460.993C393.606 460.389 394.395 459.526 394.908 458.5C399.564 447.899 401.893 436.422 401.738 424.845C401.043 413.746 398.885 402.788 395.321 392.255C392.12 382.813 390.124 373.004 389.381 363.062ZM209.172 360.31C208.722 360.986 208.143 361.565 207.469 362.017C206.795 362.468 206.038 362.783 205.243 362.942C204.447 363.101 203.628 363.102 202.832 362.944C202.036 362.787 201.279 362.474 200.604 362.024C194.459 358.13 189.325 352.833 185.625 346.569C181.925 340.306 179.763 333.253 179.318 325.992C179.316 325.18 179.473 324.377 179.782 323.626C180.09 322.876 180.543 322.193 181.115 321.618C181.687 321.042 182.367 320.585 183.115 320.273C183.864 319.96 184.667 319.798 185.478 319.795C186.29 319.793 187.094 319.95 187.844 320.259C188.595 320.567 189.277 321.02 189.852 321.592C190.428 322.164 190.885 322.844 191.198 323.593C191.51 324.341 191.672 325.144 191.675 325.956C192.114 331.187 193.77 336.242 196.511 340.72C199.251 345.197 203 348.972 207.458 351.743C208.822 352.652 209.768 354.065 210.089 355.672C210.41 357.279 210.08 358.947 209.172 360.31ZM312.242 343.646C293.823 353.556 273.129 358.47 252.221 357.9C246.146 357.94 240.075 357.579 234.048 356.82C232.426 356.589 230.962 355.723 229.978 354.412C228.995 353.101 228.572 351.454 228.803 349.832C229.035 348.209 229.901 346.746 231.211 345.762C232.522 344.778 234.17 344.356 235.792 344.587C236.205 344.65 277.302 350.204 305.883 333.051C306.579 332.633 307.35 332.357 308.152 332.237C308.955 332.118 309.773 332.157 310.56 332.354C311.347 332.551 312.088 332.9 312.74 333.383C313.392 333.866 313.943 334.473 314.36 335.169C314.778 335.864 315.054 336.635 315.174 337.438C315.293 338.24 315.254 339.059 315.057 339.846C314.86 340.633 314.51 341.374 314.028 342.026C313.545 342.678 312.938 343.228 312.242 343.646ZM382.174 323.228C374.969 335.282 371.062 349.02 370.846 363.062C370.846 364.7 370.195 366.272 369.037 367.43C367.878 368.589 366.306 369.24 364.668 369.24C363.029 369.24 361.458 368.589 360.299 367.43C359.14 366.272 358.489 364.7 358.489 363.062C358.66 346.579 363.288 330.451 371.884 316.386C372.791 315.022 374.204 314.074 375.81 313.75C377.416 313.427 379.086 313.755 380.45 314.662C381.815 315.57 382.763 316.982 383.086 318.588C383.41 320.195 383.081 321.864 382.174 323.228Z" fill="white"/>
<path d="M270.327 153.932L337.682 160.252L340.717 163.697C337.01 165.045 333.694 167.234 331.049 170.077C328.405 172.919 326.509 176.334 325.522 180.031C324.535 183.728 324.486 187.6 325.379 191.319C326.272 195.038 328.08 198.496 330.652 201.4C334.959 206.252 341.072 209.28 347.675 209.832C354.277 210.384 360.84 208.415 365.95 204.351C368.482 202.335 370.573 199.855 372.102 197.054C373.63 194.253 374.565 191.187 374.853 188.035C375.141 184.883 374.775 181.707 373.778 178.692C372.78 175.677 371.17 172.883 369.042 170.472L362.051 162.539L371.622 163.437L371.691 163.44L371.717 163.445C371.916 163.463 372.111 163.458 372.308 163.47L372.458 163.477C372.941 163.504 373.429 163.537 373.906 163.537C380.158 163.544 386.186 161.301 390.81 157.248C395.433 153.195 398.319 147.625 398.9 141.629C399.194 138.498 398.839 135.343 397.857 132.345C396.874 129.347 395.284 126.568 393.178 124.166C389.989 120.516 385.752 117.853 380.998 116.512C376.244 115.172 371.185 115.213 366.456 116.63C361.726 118.048 357.536 120.778 354.411 124.48C351.286 128.182 349.364 132.69 348.888 137.44C348.693 139.933 348.908 142.44 349.526 144.868L346.204 144.556L305.088 97.8965C303.626 96.2368 301.539 95.2047 299.286 95.0273C297.034 94.8499 294.801 95.5417 293.078 96.9505C291.355 98.3593 290.283 100.37 290.099 102.539C289.915 104.709 290.633 106.861 292.096 108.52L321.836 142.27L271.984 137.592C270.869 137.485 269.743 137.591 268.67 137.903C267.598 138.216 266.6 138.729 265.733 139.414C264.867 140.098 264.15 140.941 263.622 141.893C263.094 142.845 262.766 143.888 262.657 144.963C262.548 146.037 262.66 147.121 262.987 148.154C263.314 149.186 263.849 150.147 264.561 150.98C265.274 151.813 266.15 152.502 267.139 153.009C268.128 153.516 269.212 153.829 270.327 153.932ZM355.063 191.715C353.412 193.03 351.29 193.669 349.155 193.493C347.019 193.318 345.041 192.343 343.644 190.777C342.975 190.022 342.469 189.142 342.155 188.196C341.842 187.25 341.728 186.254 341.82 185.265C341.912 184.276 342.208 183.315 342.69 182.438C343.173 181.561 343.832 180.785 344.63 180.157C346.282 178.841 348.404 178.202 350.539 178.378C352.675 178.553 354.653 179.529 356.05 181.095C356.718 181.851 357.223 182.727 357.536 183.673C357.848 184.619 357.962 185.616 357.87 186.604C357.778 187.593 357.483 188.554 357.001 189.432C356.519 190.309 355.86 191.085 355.063 191.715ZM367.664 144.343C367.004 143.593 366.505 142.724 366.197 141.787C365.888 140.85 365.776 139.863 365.866 138.883C366.065 136.973 366.998 135.203 368.481 133.92C369.965 132.638 371.892 131.936 373.886 131.952C374.123 131.952 374.36 131.96 374.602 131.98C375.665 132.063 376.7 132.349 377.648 132.82C378.596 133.291 379.438 133.939 380.124 134.726C380.783 135.476 381.281 136.344 381.589 137.281C381.898 138.217 382.011 139.203 381.921 140.182C381.696 142.206 380.654 144.065 379.021 145.356C377.387 146.648 375.292 147.27 373.187 147.089L373.177 147.088C372.115 147.004 371.081 146.719 370.135 146.247C369.189 145.776 368.349 145.129 367.664 144.343ZM234.567 198.61L246.095 187.506C247.509 186.155 249.408 185.381 251.399 185.343C253.39 185.305 255.32 186.006 256.788 187.302L239.807 203.657C239.016 204.419 238.388 205.324 237.96 206.32C237.531 207.316 237.311 208.384 237.311 209.462C237.311 210.54 237.531 211.607 237.959 212.603C238.388 213.599 239.015 214.504 239.807 215.266C240.598 216.029 241.538 216.633 242.571 217.046C243.605 217.459 244.713 217.671 245.833 217.671C246.952 217.671 248.06 217.459 249.094 217.046C250.128 216.633 251.067 216.029 251.858 215.267L268.892 198.861L274.132 203.909L257.102 220.318C256.311 221.08 255.683 221.985 255.255 222.981C254.826 223.977 254.606 225.044 254.606 226.122C254.606 227.2 254.826 228.268 255.255 229.264C255.683 230.26 256.311 231.165 257.102 231.927C257.893 232.689 258.833 233.294 259.867 233.707C260.9 234.119 262.009 234.331 263.128 234.331C264.247 234.331 265.355 234.119 266.389 233.707C267.423 233.294 268.362 232.689 269.154 231.927L286.13 215.571C287.474 216.985 288.202 218.843 288.163 220.76C288.125 222.677 287.323 224.506 285.924 225.87L274.393 236.974C273.599 237.736 272.969 238.641 272.539 239.638C272.108 240.635 271.886 241.703 271.885 242.783C271.884 243.862 272.104 244.931 272.532 245.929C272.96 246.926 273.589 247.833 274.381 248.596C275.174 249.359 276.114 249.964 277.15 250.377C278.185 250.789 279.295 251.001 280.416 251C281.536 250.999 282.646 250.785 283.68 250.37C284.715 249.955 285.654 249.348 286.445 248.583L297.981 237.479C302.626 232.988 305.234 226.907 305.234 220.567C305.233 214.227 302.623 208.146 297.977 203.657L269.154 175.888C264.492 171.414 258.179 168.902 251.598 168.902C245.017 168.903 238.705 171.416 234.044 175.892L222.517 187C221.721 187.761 221.089 188.666 220.657 189.663C220.225 190.661 220.002 191.73 220 192.81C219.998 193.891 220.218 194.961 220.646 195.959C221.074 196.958 221.703 197.865 222.496 198.629C223.289 199.393 224.23 199.999 225.267 200.411C226.303 200.824 227.414 201.035 228.536 201.034C229.657 201.032 230.767 200.817 231.802 200.401C232.837 199.985 233.777 199.376 234.567 198.61Z" fill="white"/>
</svg>
