<svg width="608" height="512" viewBox="0 0 608 512" fill="none" xmlns="http://www.w3.org/2000/svg">
<path fill-rule="evenodd" clip-rule="evenodd" d="M53.6104 422.4C53.6104 410.634 55.2282 398.982 58.3714 388.112C61.5147 377.241 66.1219 367.363 71.9299 359.043C77.7379 350.723 84.633 344.123 92.2215 339.62C99.8101 335.117 107.943 332.8 116.157 332.8C124.371 332.8 132.504 335.117 140.093 339.62C147.681 344.123 154.576 350.723 160.384 359.043C166.192 367.363 170.8 377.241 173.943 388.112C177.086 398.982 178.704 410.634 178.704 422.4C178.704 446.163 172.114 468.954 160.384 485.757C148.655 502.56 132.746 512 116.157 512C99.5687 512 83.6597 502.56 71.9299 485.757C60.2001 468.954 53.6104 446.163 53.6104 422.4ZM142.963 422.4C142.963 412.216 140.139 402.448 135.112 395.247C130.085 388.046 123.267 384 116.157 384C109.048 384 102.23 388.046 97.2026 395.247C92.1756 402.448 89.3514 412.216 89.3514 422.4C89.3514 432.584 92.1756 442.352 97.2026 449.553C102.23 456.754 109.048 460.8 116.157 460.8C123.267 460.8 130.085 456.754 135.112 449.553C140.139 442.352 142.963 432.584 142.963 422.4ZM428.891 422.4C428.891 410.634 430.509 398.982 433.652 388.112C436.796 377.241 441.403 367.363 447.211 359.043C453.019 350.723 459.914 344.123 467.503 339.62C475.091 335.117 483.224 332.8 491.438 332.8C499.652 332.8 507.785 335.117 515.374 339.62C522.962 344.123 529.857 350.723 535.665 359.043C541.473 367.363 546.081 377.241 549.224 388.112C552.367 398.982 553.985 410.634 553.985 422.4C553.985 446.163 547.395 468.954 535.665 485.757C523.936 502.56 508.027 512 491.438 512C474.85 512 458.941 502.56 447.211 485.757C435.481 468.954 428.891 446.163 428.891 422.4ZM518.244 422.4C518.244 412.216 515.42 402.448 510.393 395.247C505.366 388.046 498.548 384 491.438 384C484.329 384 477.511 388.046 472.484 395.247C467.457 402.448 464.632 412.216 464.632 422.4C464.632 432.584 467.457 442.352 472.484 449.553C477.511 456.754 484.329 460.8 491.438 460.8C498.548 460.8 505.366 456.754 510.393 449.553C515.42 442.352 518.244 432.584 518.244 422.4Z" fill="#6D6D6D"/>
<path fill-rule="evenodd" clip-rule="evenodd" d="M562.921 2.03247e-05H285.928C281.627 -0.000360157 277.469 2.22205 274.219 6.25923C270.97 10.2964 268.845 15.8774 268.237 21.9777L255.414 150.541C253.895 165.888 243.164 179.2 232.326 179.2H80.4174C76.7501 179.202 73.1721 180.82 70.1686 183.834C66.6749 187.328 61.9928 192.154 55.8722 198.529C49.5216 205.148 43.1894 211.804 36.8758 218.497C15.9405 239.489 0 283.393 0 320.014V396.801C0 403.591 1.88278 410.102 5.23416 414.903C8.58553 419.704 13.131 422.401 17.8705 422.401H35.741C35.741 391.848 44.2136 362.546 59.2947 340.942C74.3759 319.338 94.8304 307.201 116.158 307.201C137.486 307.201 157.941 319.338 173.022 340.942C188.103 362.546 196.576 391.848 196.576 422.401H411.022C411.022 391.848 419.495 362.546 434.576 340.942C449.657 319.338 470.111 307.201 491.439 307.201C512.767 307.201 533.222 319.338 548.303 340.942C563.384 362.546 571.857 391.848 571.857 422.401H589.727C594.467 422.401 599.012 419.704 602.364 414.903C605.715 410.102 607.598 403.591 607.598 396.801V268.801C607.599 267.464 607.528 266.128 607.383 264.807L583.794 50.8417C588.214 49.771 592.192 46.3598 594.938 41.2846C597.685 36.2094 598.999 29.8409 598.621 23.4422C598.244 17.0435 596.201 11.0819 592.898 6.7397C589.596 2.39752 585.275 -0.00806684 580.792 2.03247e-05H562.921Z" fill="#6D6D6D"/>
<path fill-rule="evenodd" clip-rule="evenodd" d="M151.901 51.2001C167.109 22.1569 198.025 0 223.383 0H285.93C290.669 0 295.215 2.69714 298.566 7.49809C301.917 12.299 303.8 18.8105 303.8 25.6001C303.8 32.3896 301.917 38.9011 298.566 43.702C295.215 48.503 290.669 51.2001 285.93 51.2001L332.5 212C318.4 212 224.953 202.855 216.5 219.009L121.521 194.56C120.307 196.881 118.826 198.89 117.143 200.5L90.3369 226.1C88.3843 227.966 86.1944 229.262 83.892 229.916C81.5897 230.569 79.2201 230.566 76.9184 229.908C74.6168 229.249 72.4283 227.948 70.4777 226.078C68.5272 224.208 66.8529 221.806 65.5504 219.009C62.92 213.36 61.9637 206.445 62.8921 199.786C63.8204 193.127 66.5573 187.269 70.5006 183.501L94.7151 160.372L151.901 51.2001Z" fill="#6D6D6D"/>
<path d="M416.237 250.539C416.63 245.433 418.635 240.584 421.964 236.692C427.64 229.45 430.79 220.55 430.933 211.35C431.403 204.264 429.379 197.237 425.212 191.487C422.132 187.339 420.682 182.205 421.136 177.059C421.751 164.233 424.906 151.657 430.417 140.058C430.849 139.192 431.015 138.216 430.893 137.256C430.771 136.295 430.368 135.392 429.733 134.66C429.098 133.929 428.261 133.402 427.327 133.146C426.393 132.89 425.404 132.916 424.485 133.222C404.199 139.984 396.526 159.033 391.447 171.639C390.228 175.28 388.544 178.748 386.436 181.958H347.656C338.16 181.958 309.261 181.958 295.321 177.31C281.897 172.837 259.48 139.869 259.48 132.971C259.48 120.016 243.282 114.242 241.435 113.628C240.699 113.383 239.915 113.316 239.148 113.433C238.38 113.55 237.652 113.848 237.022 114.302C236.393 114.756 235.88 115.353 235.526 116.043C235.172 116.734 234.987 117.499 234.987 118.275V129.644C227.073 132.704 220.375 138.263 215.909 145.476C214.456 148.503 212.329 151.157 209.693 153.234C207.056 155.312 203.978 156.759 200.696 157.464C196.86 157.655 193.231 159.264 190.515 161.98C187.799 164.696 186.19 168.324 186 172.16C186 196.654 200.749 196.654 205.595 196.654C210.63 197.39 215.586 198.597 220.396 200.258C221.224 214.093 226.739 220.836 230.167 223.726C231.461 244.763 248.286 258.526 254.612 262.984C254.45 268.598 255.486 274.183 257.653 279.364C259.075 282.625 259.701 286.178 259.48 289.728C258.972 293.635 257.546 297.366 255.32 300.617C253.094 303.867 250.13 306.545 246.671 308.431C244.364 309.321 242.44 310.989 241.233 313.148C240.026 315.306 239.612 317.819 240.063 320.251C240.513 322.682 241.8 324.88 243.7 326.463C245.6 328.046 247.994 328.914 250.467 328.918H274.176C275.475 328.917 276.721 328.401 277.639 327.483C290.962 314.162 296.524 278.271 298.148 265.194C317.313 265.057 336.361 262.188 354.717 256.677C361.262 266.029 369.817 273.799 379.756 279.414C387.943 283.507 396.643 291.946 396.643 299.526C396.643 303.819 390.603 307.185 388.008 308.431C385.83 309.492 384.073 311.255 383.019 313.436C381.965 315.617 381.676 318.09 382.198 320.455C382.72 322.821 384.023 324.942 385.897 326.477C387.771 328.012 390.107 328.872 392.529 328.918H416.237C417.147 328.918 418.039 328.665 418.813 328.187C419.587 327.708 420.213 327.024 420.619 326.21C424.311 317.805 426.158 308.705 426.035 299.526C425.484 290.726 423.773 282.038 420.947 273.686C418.409 266.199 416.827 258.422 416.237 250.539ZM273.353 248.358C272.996 248.893 272.537 249.353 272.003 249.711C271.468 250.069 270.869 250.318 270.238 250.444C269.607 250.57 268.958 250.571 268.327 250.446C267.695 250.321 267.095 250.073 266.56 249.716C261.688 246.629 257.617 242.429 254.683 237.463C251.749 232.496 250.036 226.905 249.683 221.147C249.681 220.504 249.806 219.866 250.05 219.271C250.295 218.676 250.654 218.135 251.107 217.679C251.561 217.223 252.1 216.86 252.693 216.612C253.287 216.365 253.924 216.236 254.567 216.234C255.21 216.232 255.848 216.357 256.443 216.602C257.038 216.846 257.579 217.205 258.035 217.659C258.491 218.112 258.854 218.651 259.102 219.245C259.35 219.838 259.478 220.475 259.48 221.118C259.828 225.266 261.141 229.275 263.314 232.825C265.487 236.375 268.46 239.368 271.995 241.565C273.075 242.286 273.826 243.406 274.08 244.68C274.335 245.954 274.073 247.277 273.353 248.358ZM355.076 235.145C340.471 243.002 324.064 246.899 307.486 246.447C302.669 246.478 297.856 246.192 293.077 245.59C291.791 245.407 290.63 244.72 289.85 243.681C289.07 242.642 288.735 241.336 288.918 240.049C289.102 238.763 289.789 237.602 290.828 236.823C291.867 236.043 293.173 235.708 294.459 235.891C294.787 235.941 327.372 240.345 350.033 226.744C350.585 226.413 351.196 226.194 351.833 226.099C352.469 226.004 353.118 226.036 353.742 226.192C354.366 226.348 354.953 226.625 355.47 227.008C355.987 227.391 356.424 227.872 356.755 228.423C357.086 228.975 357.305 229.586 357.4 230.223C357.495 230.859 357.463 231.508 357.307 232.132C357.151 232.756 356.874 233.343 356.491 233.86C356.108 234.377 355.627 234.814 355.076 235.145ZM410.523 218.956C404.81 228.514 401.713 239.406 401.541 250.539C401.541 251.838 401.025 253.084 400.107 254.003C399.188 254.922 397.942 255.438 396.643 255.438C395.344 255.438 394.098 254.922 393.179 254.003C392.26 253.084 391.744 251.838 391.744 250.539C391.879 237.471 395.549 224.682 402.364 213.531C403.084 212.449 404.203 211.697 405.477 211.441C406.751 211.185 408.074 211.445 409.156 212.164C410.238 212.884 410.99 214.003 411.246 215.277C411.503 216.551 411.242 217.874 410.523 218.956Z" fill="white"/>
<path d="M321.842 84.7229L375.246 89.7342L377.653 92.4653C374.714 93.5347 372.084 95.2697 369.987 97.5238C367.89 99.7778 366.387 102.485 365.604 105.416C364.822 108.348 364.783 111.418 365.491 114.367C366.199 117.316 367.633 120.057 369.673 122.36C373.088 126.207 377.934 128.607 383.169 129.045C388.404 129.483 393.608 127.922 397.659 124.699C399.667 123.101 401.325 121.134 402.537 118.913C403.749 116.693 404.49 114.262 404.718 111.762C404.947 109.263 404.657 106.745 403.866 104.355C403.075 101.964 401.798 99.7488 400.111 97.8377L394.568 91.5474L402.156 92.2594L402.211 92.2622L402.232 92.2657C402.39 92.2797 402.544 92.2761 402.701 92.2857L402.82 92.2912C403.202 92.3122 403.589 92.3388 403.968 92.3388C408.924 92.3441 413.704 90.5658 417.37 87.3524C421.036 84.139 423.324 79.7223 423.785 74.9684C424.018 72.4861 423.736 69.984 422.957 67.6073C422.179 65.2305 420.918 63.0263 419.248 61.1225C416.719 58.2279 413.36 56.1168 409.591 55.0538C405.821 53.9909 401.81 54.0233 398.06 55.1472C394.31 56.271 390.988 58.4362 388.51 61.3713C386.032 64.3064 384.509 67.8809 384.131 71.6465C383.976 73.6232 384.147 75.611 384.637 77.5363L382.004 77.289L349.403 40.2936C348.244 38.9777 346.589 38.1594 344.803 38.0187C343.017 37.8781 341.246 38.4266 339.88 39.5436C338.514 40.6606 337.665 42.2546 337.519 43.975C337.373 45.6953 337.942 47.4011 339.102 48.717L362.682 75.4764L323.155 71.7674C322.271 71.6825 321.378 71.7664 320.528 72.0143C319.678 72.2621 318.886 72.6691 318.2 73.2119C317.513 73.7548 316.944 74.4227 316.525 75.1777C316.107 75.9326 315.847 76.7596 315.76 77.6114C315.674 78.4632 315.763 79.323 316.022 80.1416C316.281 80.9603 316.705 81.7217 317.27 82.3822C317.835 83.0428 318.53 83.5896 319.314 83.9912C320.099 84.3929 320.958 84.6415 321.842 84.7229ZM389.027 114.68C387.718 115.723 386.036 116.23 384.343 116.091C382.65 115.952 381.081 115.178 379.974 113.937C379.443 113.338 379.041 112.64 378.793 111.891C378.545 111.141 378.454 110.351 378.527 109.567C378.6 108.783 378.834 108.02 379.217 107.325C379.6 106.629 380.123 106.015 380.755 105.516C382.065 104.473 383.747 103.966 385.44 104.106C387.133 104.245 388.702 105.018 389.81 106.26C390.339 106.859 390.74 107.554 390.988 108.304C391.236 109.054 391.326 109.844 391.253 110.628C391.18 111.412 390.946 112.174 390.564 112.87C390.182 113.566 389.659 114.181 389.027 114.68ZM399.019 77.1201C398.495 76.5254 398.1 75.8366 397.855 75.0934C397.61 74.3503 397.521 73.5677 397.593 72.7912C397.751 71.2763 398.49 69.8729 399.666 68.8562C400.843 67.8395 402.371 67.2829 403.951 67.2956C404.139 67.2956 404.328 67.3021 404.519 67.3178C405.362 67.3837 406.183 67.6101 406.935 67.9838C407.686 68.3576 408.353 68.8713 408.897 69.4951C409.42 70.0898 409.815 70.7783 410.059 71.5207C410.304 72.2632 410.394 73.0451 410.323 73.8211C410.144 75.4261 409.318 76.8994 408.023 77.9236C406.728 78.9478 405.067 79.4411 403.397 79.2972L403.39 79.2964C402.548 79.2302 401.728 79.0038 400.978 78.6302C400.227 78.2566 399.561 77.7434 399.019 77.1201ZM293.489 120.147L302.629 111.343C303.75 110.272 305.256 109.658 306.834 109.628C308.413 109.598 309.943 110.154 311.107 111.181L297.643 124.149C297.015 124.753 296.518 125.471 296.178 126.261C295.839 127.05 295.664 127.897 295.664 128.752C295.664 129.606 295.839 130.453 296.178 131.242C296.518 132.032 297.015 132.75 297.643 133.354C298.27 133.958 299.015 134.438 299.835 134.765C300.655 135.092 301.533 135.26 302.421 135.26C303.308 135.26 304.187 135.092 305.006 134.765C305.826 134.438 306.571 133.958 307.198 133.354L320.704 120.346L324.859 124.349L311.356 137.359C310.728 137.963 310.231 138.681 309.891 139.471C309.552 140.26 309.377 141.107 309.377 141.961C309.377 142.816 309.552 143.663 309.891 144.452C310.231 145.242 310.728 145.959 311.356 146.564C311.983 147.168 312.728 147.648 313.548 147.975C314.368 148.302 315.246 148.47 316.134 148.47C317.021 148.47 317.9 148.302 318.719 147.975C319.539 147.648 320.284 147.168 320.911 146.564L334.372 133.595C335.437 134.717 336.014 136.19 335.984 137.71C335.953 139.23 335.318 140.68 334.209 141.761L325.066 150.566C324.436 151.17 323.937 151.887 323.595 152.678C323.254 153.468 323.078 154.315 323.077 155.171C323.076 156.027 323.251 156.875 323.59 157.665C323.93 158.456 324.428 159.175 325.056 159.78C325.685 160.385 326.431 160.865 327.252 161.192C328.073 161.519 328.953 161.687 329.841 161.686C330.73 161.685 331.609 161.516 332.429 161.187C333.25 160.858 333.995 160.377 334.622 159.77L343.768 150.966C347.451 147.405 349.519 142.583 349.519 137.557C349.518 132.53 347.449 127.709 343.765 124.149L320.912 102.131C317.215 98.5838 312.21 96.5922 306.992 96.5928C301.774 96.5934 296.769 98.5862 293.074 102.135L283.934 110.942C283.303 111.546 282.802 112.263 282.459 113.054C282.117 113.844 281.94 114.692 281.938 115.549C281.937 116.405 282.111 117.254 282.45 118.046C282.79 118.837 283.288 119.557 283.917 120.162C284.546 120.768 285.293 121.248 286.114 121.576C286.936 121.903 287.817 122.07 288.706 122.069C289.595 122.068 290.476 121.897 291.296 121.567C292.117 121.238 292.862 120.755 293.489 120.147Z" fill="white"/>
</svg>
