<svg xmlns="http://www.w3.org/2000/svg" enable-background="new 0 0 256 256" viewBox="0 0 256 256" id="PetStore"><path fill="#f9decf" d="M218.571,248H37.429c-4.418,0-8-3.582-8-8V51h197.143v189C226.571,244.418,222.99,248,218.571,248z" class="colorf9cfcf svgShape"></path><path fill="#cc6b37" d="M218.571,250H37.429c-5.514,0-10-4.486-10-10V51c0-1.104,0.896-2,2-2h197.143c1.104,0,2,0.896,2,2v189
				C228.571,245.514,224.085,250,218.571,250z M31.429,53v187c0,3.309,2.691,6,6,6h181.143c3.309,0,6-2.691,6-6V53H31.429z" class="color3762cc svgShape"></path><path fill="#c67346" d="M230.094,75H25.906c-2.288,0-4.144-1.855-4.144-4.144V55.144c0-2.288,1.855-4.144,4.144-4.144h204.189
				c2.288,0,4.144,1.855,4.144,4.144v15.713C234.238,73.145,232.383,75,230.094,75z" class="color4671c6 svgShape"></path><path fill="#cc6b37" d="M230.094,77H25.906c-3.388,0-6.144-2.756-6.144-6.144V55.144c0-3.388,2.756-6.144,6.144-6.144h204.188
				c3.388,0,6.144,2.756,6.144,6.144v15.713C236.238,74.244,233.482,77,230.094,77z M25.906,53c-1.182,0-2.144,0.961-2.144,2.144
				v15.713c0,1.182,0.962,2.144,2.144,2.144h204.188c1.182,0,2.144-0.961,2.144-2.144V55.144c0-1.182-0.962-2.144-2.144-2.144
				H25.906z" class="color3762cc svgShape"></path><circle cx="128" cy="53" r="45" fill="#c58c6d" class="colorf9a7a7 svgShape"></circle><circle cx="128" cy="53" r="35" fill="#ffb892" class="colorffea92 svgShape"></circle><path fill="#cc6b37" d="M128,100c-25.916,0-47-21.084-47-47s21.084-47,47-47s47,21.084,47,47S153.916,100,128,100z M128,10
				c-23.71,0-43,19.29-43,43s19.29,43,43,43s43-19.29,43-43S151.71,10,128,10z" class="color3762cc svgShape"></path><polygon fill="#ffc4a4" points="243 138 13 138 29.429 98 226.571 98" class="colora4c9ff svgShape"></polygon><path fill="#c58c6d" d="M25.011,163h-1.023C17.92,163,13,158.08,13,152.011V138h23v14.011C36,158.08,31.08,163,25.011,163z" class="colorf9a7a7 svgShape"></path><path fill="#fceae0" d="M48.011,163h-1.023C40.92,163,36,158.08,36,152.011V138h23v14.011C59,158.08,54.08,163,48.011,163z" class="colore0ebfc svgShape"></path><path fill="#c58c6d" d="M71.011,163h-1.023C63.92,163,59,158.08,59,152.011V138h23v14.011C82,158.08,77.08,163,71.011,163z" class="colorf9a7a7 svgShape"></path><path fill="#fceae0" d="M94.011,163h-1.023C86.92,163,82,158.08,82,152.011V138h23v14.011C105,158.08,100.08,163,94.011,163z" class="colore0ebfc svgShape"></path><path fill="#c58c6d" d="M117.011,163h-1.023C109.92,163,105,158.08,105,152.011V138h23v14.011C128,158.08,123.08,163,117.011,163z" class="colorf9a7a7 svgShape"></path><path fill="#fceae0" d="M140.011,163h-1.023C132.92,163,128,158.08,128,152.011V138h23v14.011C151,158.08,146.08,163,140.011,163z" class="colore0ebfc svgShape"></path><path fill="#c58c6d" d="M163.011,163h-1.023C155.92,163,151,158.08,151,152.011V138h23v14.011C174,158.08,169.08,163,163.011,163z" class="colorf9a7a7 svgShape"></path><path fill="#fceae0" d="M186.011,163h-1.023C178.92,163,174,158.08,174,152.011V138h23v14.011C197,158.08,192.08,163,186.011,163z" class="colore0ebfc svgShape"></path><path fill="#c58c6d" d="M209.011,163h-1.023C201.92,163,197,158.08,197,152.011V138h23v14.011C220,158.08,215.08,163,209.011,163z" class="colorf9a7a7 svgShape"></path><path fill="#fceae0" d="M232.011,163h-1.023C224.92,163,220,158.08,220,152.011V138h23v14.011C243,158.08,238.08,163,232.011,163z" class="colore0ebfc svgShape"></path><path fill="#cc6b37" d="M243,140H13c-0.667,0-1.29-0.333-1.661-0.886c-0.372-0.554-0.442-1.257-0.189-1.874l16.429-40
				c0.308-0.75,1.039-1.24,1.85-1.24h197.143c0.811,0,1.542,0.49,1.85,1.24l16.429,40c0.253,0.617,0.183,1.319-0.189,1.874
				C244.29,139.667,243.667,140,243,140z M15.983,136h224.033l-14.786-36H30.77L15.983,136z" class="color3762cc svgShape"></path><path fill="#cc6b37" d="M25.011,165h-1.022C16.827,165,11,159.173,11,152.011V138c0-1.104,0.896-2,2-2h23c1.104,0,2,0.896,2,2
				v14.011C38,159.173,32.173,165,25.011,165z M15,140v12.011c0,4.957,4.032,8.989,8.989,8.989h1.022
				c4.957,0,8.989-4.032,8.989-8.989V140H15z" class="color3762cc svgShape"></path><path fill="#cc6b37" d="M48.011,165h-1.022C39.827,165,34,159.173,34,152.011V138c0-1.104,0.896-2,2-2h23c1.104,0,2,0.896,2,2
				v14.011C61,159.173,55.173,165,48.011,165z M38,140v12.011c0,4.957,4.032,8.989,8.989,8.989h1.022
				c4.957,0,8.989-4.032,8.989-8.989V140H38z" class="color3762cc svgShape"></path><path fill="#cc6b37" d="M71.011,165h-1.022C62.827,165,57,159.173,57,152.011V138c0-1.104,0.896-2,2-2h23c1.104,0,2,0.896,2,2
				v14.011C84,159.173,78.173,165,71.011,165z M61,140v12.011c0,4.957,4.032,8.989,8.989,8.989h1.022
				c4.957,0,8.989-4.032,8.989-8.989V140H61z" class="color3762cc svgShape"></path><path fill="#cc6b37" d="M94.011,165h-1.022C85.827,165,80,159.173,80,152.011V138c0-1.104,0.896-2,2-2h23c1.104,0,2,0.896,2,2
				v14.011C107,159.173,101.173,165,94.011,165z M84,140v12.011c0,4.957,4.032,8.989,8.989,8.989h1.022
				c4.957,0,8.989-4.032,8.989-8.989V140H84z" class="color3762cc svgShape"></path><path fill="#cc6b37" d="M117.011,165h-1.022c-7.162,0-12.989-5.827-12.989-12.989V138c0-1.104,0.896-2,2-2h23c1.104,0,2,0.896,2,2
				v14.011C130,159.173,124.173,165,117.011,165z M107,140v12.011c0,4.957,4.032,8.989,8.989,8.989h1.022
				c4.957,0,8.989-4.032,8.989-8.989V140H107z" class="color3762cc svgShape"></path><path fill="#cc6b37" d="M140.011,165h-1.022c-7.162,0-12.989-5.827-12.989-12.989V138c0-1.104,0.896-2,2-2h23c1.104,0,2,0.896,2,2
				v14.011C153,159.173,147.173,165,140.011,165z M130,140v12.011c0,4.957,4.032,8.989,8.989,8.989h1.022
				c4.957,0,8.989-4.032,8.989-8.989V140H130z" class="color3762cc svgShape"></path><path fill="#cc6b37" d="M163.011,165h-1.022c-7.162,0-12.989-5.827-12.989-12.989V138c0-1.104,0.896-2,2-2h23c1.104,0,2,0.896,2,2
				v14.011C176,159.173,170.173,165,163.011,165z M153,140v12.011c0,4.957,4.032,8.989,8.989,8.989h1.022
				c4.957,0,8.989-4.032,8.989-8.989V140H153z" class="color3762cc svgShape"></path><path fill="#cc6b37" d="M186.011,165h-1.022c-7.162,0-12.989-5.827-12.989-12.989V138c0-1.104,0.896-2,2-2h23c1.104,0,2,0.896,2,2
				v14.011C199,159.173,193.173,165,186.011,165z M176,140v12.011c0,4.957,4.032,8.989,8.989,8.989h1.022
				c4.957,0,8.989-4.032,8.989-8.989V140H176z" class="color3762cc svgShape"></path><path fill="#cc6b37" d="M209.011,165h-1.022c-7.162,0-12.989-5.827-12.989-12.989V138c0-1.104,0.896-2,2-2h23c1.104,0,2,0.896,2,2
				v14.011C222,159.173,216.173,165,209.011,165z M199,140v12.011c0,4.957,4.032,8.989,8.989,8.989h1.022
				c4.957,0,8.989-4.032,8.989-8.989V140H199z" class="color3762cc svgShape"></path><path fill="#cc6b37" d="M232.011,165h-1.022c-7.162,0-12.989-5.827-12.989-12.989V138c0-1.104,0.896-2,2-2h23c1.104,0,2,0.896,2,2
				v14.011C245,159.173,239.173,165,232.011,165z M222,140v12.011c0,4.957,4.032,8.989,8.989,8.989h1.022
				c4.957,0,8.989-4.032,8.989-8.989V140H222z" class="color3762cc svgShape"></path><path fill="#c67346" d="M106.72 52.564h-.078c-3.668 0-6.641-2.973-6.641-6.641v-3.695c0-3.668 2.973-6.641 6.641-6.641h.078c3.668 0 6.641 2.973 6.641 6.641v3.695C113.361 49.591 110.387 52.564 106.72 52.564zM149.28 52.564h.078c3.668 0 6.641-2.973 6.641-6.641v-3.695c0-3.668-2.973-6.641-6.641-6.641h-.078c-3.668 0-6.641 2.973-6.641 6.641v3.695C142.639 49.591 145.613 52.564 149.28 52.564zM119.505 40.411h-.078c-3.668 0-6.641-2.973-6.641-6.641v-3.695c0-3.668 2.973-6.641 6.641-6.641h.078c3.668 0 6.641 2.973 6.641 6.641v3.695C126.147 37.437 123.173 40.411 119.505 40.411zM136.134 40.411h.078c3.668 0 6.641-2.973 6.641-6.641v-3.695c0-3.668-2.973-6.641-6.641-6.641h-.078c-3.668 0-6.641 2.973-6.641 6.641v3.695C129.493 37.437 132.466 40.411 136.134 40.411zM141.125 53.414c-.592-.146-1.002-.642-1.002-1.207l0 0c0-6.185-5.427-11.199-12.123-11.199l0 0c-6.695 0-12.123 5.014-12.123 11.199l0 0c0 .566-.411 1.061-1.002 1.207C109.764 54.675 106 58.979 106 64.098v.274c0 6.109 5.361 11.062 11.974 11.062H128l0 0h10.026c6.613 0 11.974-4.953 11.974-11.062v-.274C150 58.979 146.236 54.675 141.125 53.414z" class="color4671c6 svgShape"></path><path fill="#fceae0" d="M202.536,174h-34.571c-2.604,0-4.714,2.549-4.714,5.692v62.615c0,3.144,2.111,5.692,4.714,5.692h34.571
					c2.604,0,4.714-2.549,4.714-5.692v-62.615C207.25,176.549,205.139,174,202.536,174z" class="colore0ebfc svgShape"></path><path fill="#cc6b37" d="M202.536,250h-34.571c-3.702,0-6.714-3.451-6.714-7.692v-62.615c0-4.242,3.012-7.692,6.714-7.692h34.571
						c3.702,0,6.714,3.451,6.714,7.692v62.615C209.25,246.549,206.238,250,202.536,250z M167.964,176
						c-1.471,0-2.714,1.691-2.714,3.692v62.615c0,2.001,1.243,3.692,2.714,3.692h34.571c1.471,0,2.714-1.691,2.714-3.692v-62.615
						c0-2.001-1.243-3.692-2.714-3.692H167.964z" class="color3762cc svgShape"></path><path fill="#cc6b37" d="M207.25,213h-44c-1.104,0-2-0.896-2-2s0.896-2,2-2h44c1.104,0,2,0.896,2,2S208.354,213,207.25,213z" class="color3762cc svgShape"></path><g fill="#000000" class="color000000 svgShape"><path fill="#fceae0" d="M143.54,220H53.96c-2.878,0-5.21-2.333-5.21-5.21V179.21c0-2.878,2.333-5.21,5.21-5.21h89.579
					c2.878,0,5.21,2.333,5.21,5.21v35.579C148.75,217.667,146.417,220,143.54,220z" class="colore0ebfc svgShape"></path><path fill="#cc6b37" d="M143.54,222H53.96c-3.976,0-7.21-3.234-7.21-7.21V179.21c0-3.976,3.234-7.21,7.21-7.21h89.579
					c3.976,0,7.21,3.234,7.21,7.21v35.579C150.75,218.766,147.516,222,143.54,222z M53.96,176c-1.77,0-3.21,1.44-3.21,3.21v35.579
					c0,1.77,1.44,3.21,3.21,3.21h89.579c1.77,0,3.21-1.44,3.21-3.21V179.21c0-1.77-1.44-3.21-3.21-3.21H53.96z" class="color3762cc svgShape"></path></g></svg>