<svg width="529" height="485" viewBox="0 0 529 485" fill="none" xmlns="http://www.w3.org/2000/svg">
<g clip-path="url(#clip0_135_87)">
<path d="M245.779 0.282227C163.077 37.6214 90.0811 93.4976 32.4454 163.582H459.196C401.547 93.4761 328.518 37.5971 245.779 0.282227ZM280.424 90.6777H254.608V116.493H237.033V90.6777H211.218V73.1029H237.033V47.2881H254.608V73.1029H280.424V90.6777ZM82.7763 231.855C86.9518 237.421 92.3267 241.976 98.5025 245.183C104.678 248.389 111.497 250.164 118.452 250.376C125.478 250.516 132.436 248.969 138.74 245.864C145.045 242.758 150.512 238.186 154.684 232.53C179.616 257.28 206.971 254.822 226.097 232.692C235.045 242.903 247.635 249.204 261.172 250.246C267.862 250.406 274.487 248.911 280.46 245.894C286.433 242.877 291.568 238.432 295.41 232.953C304.033 243.041 316.27 249.343 329.49 250.503C336 250.86 342.49 249.513 348.32 246.596C354.151 243.679 359.12 239.292 362.738 233.869C389.299 259.774 415.068 253.818 431.014 232.695C431.664 233.518 432.244 234.356 432.924 235.102C436.09 239.236 440.048 242.696 444.568 245.282C449.087 247.868 454.076 249.527 459.244 250.162C468.177 250.215 476.778 246.779 483.216 240.586C489.654 234.393 493.421 225.931 493.715 217.003C493.799 212.04 492.895 207.109 491.055 202.499C489.215 197.889 486.475 193.691 482.996 190.151C479.517 186.61 475.367 183.798 470.79 181.877C466.213 179.957 461.299 178.967 456.335 178.965C331.836 179.074 207.337 179.01 82.8372 178.773C65.4334 178.76 48.0087 178.302 30.6318 178.993C24.3327 178.979 18.1872 180.937 13.0567 184.592C7.92618 188.246 4.06776 193.415 2.02223 199.372C-0.179553 205.167 -0.717322 211.463 0.469641 217.547C1.65661 223.632 4.52102 229.264 8.73947 233.806C13.2442 239.373 18.9697 243.828 25.4725 246.826C31.9754 249.824 39.0811 251.286 46.2394 251.097C53.3977 250.908 60.4165 249.075 66.7524 245.738C73.0882 242.401 78.571 237.651 82.7763 231.855ZM369.957 466.142C366.108 461.054 363.297 455.259 361.686 449.086C360.75 445.404 360.243 441.626 360.176 437.827H210.924V266.914H82.4013V437.57H45.0454V268.831H28.3441V484.717H392.786C383.781 480.47 375.946 474.095 369.957 466.142ZM197.65 463.892C164.057 457.952 130.141 454.01 96.0811 452.086V279.17H197.683L197.65 463.892Z" fill="#CA8A03"/>
<path d="M418.114 352.863C402.568 362.466 390.237 376.484 382.693 393.127C374.334 409.096 364.762 428.681 369.47 447.092C370.831 452.249 373.185 457.091 376.4 461.346C391.065 481.055 416.707 486.492 440.77 484.241C449.097 483.458 457.315 481.774 465.279 479.219C475.735 476.097 485.113 470.119 492.357 461.957C517.122 432.746 493.852 392.225 472.074 368.806C458.172 353.857 438.159 342.216 418.114 352.863ZM399.818 357.62C411.192 350.078 411.411 333.772 407.979 321.987C407.174 319.211 406.094 316.523 404.755 313.961C403.19 310.428 400.732 307.363 397.625 305.067C394.517 302.771 390.865 301.323 387.028 300.865C369.253 300.34 364.977 324.98 367.427 338.167C368.518 345.265 372.002 351.778 377.301 356.624C380.447 359.192 384.338 360.676 388.394 360.856C392.451 361.035 396.458 359.9 399.818 357.62ZM453.728 287.661C448.255 291.107 444.307 296.514 442.691 302.776C442.179 304.238 441.725 305.72 441.306 307.212C439.549 312.608 439.123 318.349 440.063 323.946C441.004 329.542 443.283 334.828 446.708 339.354C448.696 341.563 451.161 343.292 453.914 344.411C456.668 345.53 459.64 346.01 462.606 345.813C465.735 345.399 468.721 344.251 471.321 342.462C473.92 340.673 476.06 338.294 477.564 335.52C481.531 328.424 482.981 320.194 481.68 312.169C479.963 299.892 469.052 279.966 453.728 287.661ZM360.342 358.335C358.435 356.521 356.057 355.28 353.479 354.753C350.9 354.225 348.226 354.433 345.76 355.351C343.615 356.511 341.72 358.082 340.184 359.974C338.647 361.867 337.499 364.044 336.805 366.381C335.125 370.986 334.425 375.891 334.751 380.782C335.592 392.003 342.844 408.527 355.914 408.501C356.738 408.499 357.562 408.433 358.376 408.306C362.079 407.58 365.485 405.778 368.169 403.125C370.853 400.473 372.695 397.088 373.464 393.394C374.512 386.914 373.853 380.272 371.552 374.124C369.251 367.977 365.387 362.534 360.342 358.335ZM527.542 352.256C526.181 347.551 523.509 343.331 519.84 340.087C517.704 338.418 515.125 337.414 512.423 337.2C509.722 336.985 507.017 337.569 504.644 338.88C495.707 343.787 491.16 358.24 490.697 367.73C490.483 371.796 491.361 375.845 493.242 379.456C495.123 383.068 497.937 386.109 501.392 388.264C505.476 390.124 510.109 390.386 514.377 388.997C518.645 387.608 522.237 384.671 524.445 380.763C526.936 376.496 528.499 371.752 529.033 366.84C529.566 361.928 529.058 356.959 527.542 352.256Z" fill="#CA8A03"/>
</g>
<defs>
<clipPath id="clip0_135_87">
<rect width="529" height="485" fill="white"/>
</clipPath>
</defs>
</svg>
