<svg width="1443" height="1453" viewBox="0 0 1443 1453" fill="none" xmlns="http://www.w3.org/2000/svg">
<g clip-path="url(#clip0_312_51)">
<path d="M214.006 935.113C319.712 1069.73 307.682 1172.5 214.006 1253.18C81.867 1205.04 0 1138.26 0 1064.41V746.336C34.6611 755.071 177.111 708.045 214.006 935.113ZM721.5 1011.93C840.926 1092.93 800.4 1207.45 721.5 1330C625.872 1330 534.579 1323.14 451.054 1310.72V1310.69C369.591 1191.9 342.183 1081.58 451.054 992.647C541.119 901.36 631.243 926.744 721.5 1011.93ZM1228.99 935.113C1300.49 1057.9 1294.82 1162.6 1228.99 1253.18C1161.64 1277.73 1081.23 1297.42 991.946 1310.72V1310.69C929.772 1209.5 918.894 1104.33 991.946 992.647C1055.59 872.217 1142.27 878.73 1228.99 935.113Z" fill="#E15C63"/>
<path d="M1443 746.336V1064.41C1443 1138.26 1361.13 1205.04 1229 1253.18V935.113C1213.18 725.236 1382.21 753.736 1443 746.336ZM991.948 1310.69V1310.72C908.422 1323.14 817.129 1330 721.502 1330V1011.93C790.856 910.188 883.845 909.897 991.948 992.647V1310.69ZM451.055 1310.69V1310.72C361.77 1297.42 281.358 1277.73 214.008 1253.18V935.113C297.344 855.207 376.86 880.757 451.055 992.647V1310.69Z" fill="#FFC05A"/>
<path d="M0 533.21V746.332C0 820.185 81.867 886.97 214.006 935.109C281.356 959.659 361.768 979.351 451.054 992.644C534.579 1005.06 625.872 1011.93 721.5 1011.93C817.128 1011.93 908.421 1005.06 991.946 992.644C1081.23 979.351 1161.64 959.659 1228.99 935.109C1361.13 886.97 1443 820.185 1443 746.332V533.21C1000.28 205.137 510.732 278.382 0 533.21Z" fill="#1EA6BC"/>
<path d="M520.498 439.639C520.498 439.639 485.296 459.913 450.297 459.913C415.328 459.913 375.907 444.526 375.907 444.526C375.907 444.526 326.421 491.386 276.497 504.009C226.574 516.604 176.04 510.263 125.39 536.704C74.7683 563.115 39.8861 620.504 39.8861 620.504C14.0227 593.162 0 563.784 0 533.213C0 413.315 215.723 312.004 512.061 278.961C648.724 328.991 641.053 393.565 520.498 439.639ZM1443 533.213C1443 565.151 1427.7 595.751 1399.62 624.111C1335.07 554.505 1261.05 505.784 1174.85 483.823C1105.85 446.181 1075.56 382.468 1226.29 343.418C1360.03 391.645 1443 458.866 1443 533.213Z" fill="#1498B7"/>
<path d="M1282.84 653.806C1310.69 664.336 1360.75 656.453 1360.75 656.453C1314.64 688.798 1250.9 717.216 1174.3 739.992C1158.94 723.674 1141.66 711.835 1123.24 710.09C1119.58 680.392 1112.51 652.904 1101.95 627.627C1101.95 627.627 1140.93 643.771 1173.19 641.211C1205.46 638.652 1233.88 614.684 1233.88 614.684C1233.88 614.684 1254.97 643.247 1282.84 653.806Z" fill="#86CACF"/>
<path d="M1174.85 483.82L1096.74 471.575H1096.71C1046.84 442.083 1006.09 472.069 1063.63 563.345C1039.93 610.365 1052.64 631.802 1101.95 627.628C1101.95 627.628 1140.93 643.771 1173.19 641.212C1205.46 638.652 1233.88 614.684 1233.88 614.684C1233.88 614.684 1254.97 643.248 1282.85 653.807C1310.69 664.336 1360.76 656.454 1360.76 656.454C1375.59 646.069 1388.6 635.249 1399.62 624.108C1335.07 554.503 1261.05 505.781 1174.85 483.82ZM630.44 471.575L520.499 439.637C520.499 439.637 485.297 459.911 450.298 459.911C415.329 459.911 375.908 444.523 375.908 444.523C375.908 444.523 326.421 491.383 276.498 504.007C226.575 516.602 176.041 510.261 125.39 536.701C74.7689 563.112 39.8867 620.502 39.8867 620.502C59.6989 641.474 86.4351 661.224 119.135 679.433C149.683 696.478 185.438 712.127 225.527 726.089C310.536 755.729 415.125 777.835 531.438 789.47L645.365 515.7C675.281 472.325 649.103 463.023 630.44 471.575Z" fill="#A8DEE1"/>
<path d="M1101.95 627.63C1092.17 604.273 1079.46 582.835 1063.63 563.347C937.764 349.334 796.83 355.57 645.365 515.702C596.896 571.637 561.81 625.361 544.209 689.469C535.831 720.011 531.438 752.88 531.438 789.472C557.883 792.118 584.939 794.242 612.519 795.783L810.873 796.772C878.456 793.718 943.129 787.203 1003.58 777.72L1123.24 710.092C1119.58 680.394 1112.51 652.907 1101.95 627.63Z" fill="#F1C27D"/>
<path d="M630.44 471.575C618.366 487.631 604.547 498.103 588.983 498.103C560.414 498.103 536.238 474.019 520.498 439.637C499.377 393.563 493.355 328.989 512.062 278.959C544.762 191.61 737.356 154 863.589 154C989.823 154 1182.42 191.61 1215.09 278.959C1222.54 298.855 1226.08 321.019 1226.29 343.417C1226.87 399.875 1206.51 457.759 1174.85 483.821C1163.86 492.896 1151.49 498.103 1138.2 498.103C1122.63 498.103 1108.81 487.631 1096.74 471.575H1096.71C1096.71 471.575 1082.48 517.242 1063.63 563.346C1050.63 595.167 1035.41 627.192 1021.1 644.528C986.07 686.996 923.753 703.256 863.589 703.256C803.396 703.256 741.08 686.996 706.081 644.528C684.32 618.117 660.347 557.645 645.365 515.701C636.229 490.22 630.44 471.575 630.44 471.575ZM863.589 577.977C893.904 577.977 918.458 530.419 918.458 509.476C918.458 488.533 893.904 471.575 863.589 471.575C833.274 471.575 808.691 488.533 808.691 509.476C808.691 530.419 833.274 577.977 863.589 577.977Z" fill="#FFDBAC"/>
<path d="M1224.51 816.986C1235.34 839.063 1224.54 865.678 1201.36 873.881L1129.64 899.187C1106.43 907.389 1081.26 893.486 1075.88 869.43C1071.72 850.815 1065.58 831.035 1056.91 819.604C1037.13 793.513 1003.58 777.718 1003.58 777.718C1003.58 777.718 1055.51 703.691 1123.24 710.09C1141.66 711.835 1158.94 723.674 1174.3 739.992C1195.13 762.098 1212.47 792.436 1224.51 816.986ZM833.421 837.376C844.272 859.454 833.479 886.039 810.263 894.242L738.549 919.577C715.333 927.78 690.168 913.847 684.815 889.821C680.626 871.176 674.487 851.425 665.847 839.994C646.034 813.903 612.52 795.781 612.52 795.781C612.52 795.781 664.45 724.052 732.178 730.48C762.725 733.36 790.073 764.018 810.874 796.77C819.631 810.558 827.224 824.752 833.421 837.376ZM918.459 509.475C918.459 530.418 893.905 577.976 863.59 577.976C833.275 577.976 808.692 530.418 808.692 509.475C808.692 488.532 833.275 471.574 863.59 471.574C893.905 471.574 918.459 488.532 918.459 509.475Z" fill="#655F68"/>
<path d="M1295.82 847.267C1306.64 869.344 1295.85 895.959 1272.66 904.162L1200.95 929.468C1177.73 937.67 1152.57 923.766 1147.19 899.711C1146.72 897.646 1146.23 895.581 1145.73 893.516L1201.36 873.882C1224.54 865.679 1235.34 839.064 1224.51 816.987C1212.59 792.699 1195.48 762.71 1174.94 740.691C1181.28 739.906 1187.83 739.731 1194.55 740.371C1212.96 742.116 1230.24 753.955 1245.61 770.273C1266.44 792.379 1283.78 822.717 1295.82 847.267Z" fill="#1498B7"/>
<path d="M1096.74 471.577H1096.71C1096.71 471.577 1090.89 490.222 1081.78 515.702C993.924 455.462 1036.31 304.906 1036.31 304.906C1036.31 304.906 1056.91 418.638 1096.74 471.577Z" fill="#EDCA9F"/>
<path d="M904.724 867.657C915.576 889.735 904.783 916.32 881.567 924.523L809.853 949.858C786.637 958.061 761.472 944.128 756.119 920.102C755.653 918.037 755.159 915.971 754.664 913.877L810.26 894.243C833.476 886.04 844.27 859.455 833.418 837.377C827.221 824.754 819.628 810.559 810.871 796.772C826.64 796.044 842.233 795.143 857.652 794.066C866.555 804.014 874.788 815.416 882.178 827.051C890.935 840.839 898.528 855.033 904.724 867.657Z" fill="#1498B7"/>
<path d="M690.867 304.906C690.867 304.906 748.034 439.639 645.366 510.088L643.591 510.728C635.474 487.836 630.441 471.577 630.441 471.577C670.24 418.638 690.867 304.906 690.867 304.906Z" fill="#EDCA9F"/>
<path d="M253.474 645.793C251.632 645.793 249.767 645.357 248.028 644.432C242.366 641.421 240.202 634.408 243.198 628.736C243.931 627.349 261.527 594.62 293.727 582.319C310.702 575.835 327.64 575.07 344.022 574.326C356.986 573.738 369.231 573.185 379.992 569.721C399.036 563.572 424.641 538.304 432.9 529.086C436.93 524.583 443.749 523.914 448.576 527.553C448.971 527.85 489.02 557.67 524.799 560.977C534.809 561.897 547.075 560.69 561.243 557.374C567.486 555.916 573.762 559.791 575.228 566.047C576.694 572.304 572.807 578.564 566.552 580.03C549.941 583.919 535.176 585.312 522.657 584.148C490.818 581.205 458.194 562.054 443.115 552.091C431.661 563.619 408.378 585.007 387.138 591.865C373.4 596.289 359.002 596.941 345.075 597.569C329.868 598.256 315.505 598.907 302.035 604.053C278.139 613.18 263.904 639.368 263.761 639.63C261.661 643.556 257.634 645.793 253.474 645.793ZM376.507 701.1C372.193 701.1 368.044 698.691 366.031 694.552C363.22 688.778 365.615 681.824 371.39 679.011C373.077 678.188 413.298 658.839 460.364 658.839C474.378 658.839 489.174 660.57 504.338 663.987C510.607 665.401 514.546 671.626 513.132 677.894C511.718 684.162 505.493 688.086 499.223 686.687C485.733 683.65 472.659 682.109 460.364 682.109C418.831 682.109 381.947 699.753 381.578 699.93C379.943 700.725 378.212 701.1 376.507 701.1ZM140.326 648.6C138.048 648.6 135.747 647.934 133.728 646.541C128.439 642.893 127.109 635.645 130.758 630.357C145.371 609.181 164.916 590.783 188.853 575.672C194.29 572.24 201.476 573.866 204.906 579.3C208.339 584.733 206.713 591.918 201.281 595.35C180.015 608.774 162.736 624.996 149.921 643.574C147.661 646.843 144.024 648.6 140.326 648.6Z" fill="#86CACF"/>
</g>
<defs>
<clipPath id="clip0_312_51">
<rect width="1443" height="1453" fill="white"/>
</clipPath>
</defs>
</svg>
