<svg width="129" height="129" viewBox="0 0 129 129" fill="none" xmlns="http://www.w3.org/2000/svg">
<path d="M92.0051 80.9658H86.1911L84.1304 78.9787C88.7298 73.6354 92.0912 67.3416 93.9742 60.5475C95.8572 53.7535 96.2152 46.6272 95.0226 39.6786C91.5636 19.2191 74.4894 2.88082 53.8826 0.378573C46.638 -0.537944 39.2797 0.214982 32.3708 2.57974C25.4619 4.94449 19.1855 8.8584 14.022 14.022C8.8584 19.1855 4.94449 25.4619 2.57974 32.3708C0.214982 39.2797 -0.537944 46.638 0.378573 53.8826C2.88082 74.4894 19.2191 91.5636 39.6786 95.0226C46.6272 96.2152 53.7535 95.8572 60.5475 93.9742C67.3416 92.0912 73.6354 88.7298 78.9787 84.1304L80.9658 86.1911V92.0051L115.698 126.737C118.715 129.754 123.646 129.754 126.663 126.737C129.681 123.72 129.681 118.789 126.663 115.771L92.0051 80.9658ZM47.8478 86.4327C26.5379 86.4327 9.26283 69.1576 9.26283 47.8478C9.26283 26.5379 26.5379 9.26283 47.8478 9.26283C69.1576 9.26283 86.4327 26.5379 86.4327 47.8478C86.4327 69.1576 69.1576 86.4327 47.8478 86.4327Z" fill="#BBBBBB"/>
<ellipse cx="28.3004" cy="43.132" rx="6.755" ry="8.42212" transform="rotate(-23.4919 28.3004 43.132)" fill="#BBBBBB"/>
<ellipse cx="6.755" cy="8.42212" rx="6.755" ry="8.42212" transform="matrix(-0.917116 -0.39862 -0.39862 0.917116 77.2134 38.1006)" fill="#BBBBBB"/>
<ellipse cx="40.2751" cy="31.1423" rx="6.755" ry="9.62749" transform="rotate(-5.48161 40.2751 31.1423)" fill="#BBBBBB"/>
<ellipse cx="6.755" cy="9.62749" rx="6.755" ry="9.62749" transform="matrix(-0.995427 -0.0955263 -0.0955263 0.995427 63.6255 22.2041)" fill="#BBBBBB"/>
<path d="M56.4935 71.7073C59.6158 71.7073 61.3195 71.3292 63.212 69.4365C67.469 65.1791 65.4298 58.5819 62.2651 52.9731C58.8852 46.9831 52.9927 43.2894 47.411 43.5114C40.938 43.7689 36.8399 48.4308 33.7858 52.9731C30.7316 57.5154 29.5276 66.4094 32.84 69.4365C34.8326 71.2575 37.8539 71.7073 39.3685 71.7073C43.2759 71.7073 45.3286 68.2072 48.2618 68.2072C51.1949 68.2072 53.3711 71.7073 56.4935 71.7073Z" fill="#BBBBBB"/>
</svg>
