<svg width="496" height="496" viewBox="0 0 496 496" fill="none" xmlns="http://www.w3.org/2000/svg">
<g clip-path="url(#clip0_134_25)">
<path d="M129.943 209.916C137.904 213.896 146.816 216 155.715 216C175.723 216 192 199.723 192 179.716C192 170.025 188.226 160.913 181.373 154.059L160.971 133.658C152.165 124.85 140.455 120 128 120C115.545 120 103.835 124.85 95.03 133.656L74.627 154.06C67.774 160.913 64 170.024 64 179.716C64 199.723 80.277 216 100.284 216C109.184 216 118.096 213.896 126.057 209.916L128 208.944L129.943 209.916ZM118.901 195.605C113.151 198.48 106.713 200 100.284 200C89.1 200 80 190.9 80 179.716C80 174.298 82.11 169.204 85.941 165.373L106.344 144.97C112.128 139.186 119.819 136 128 136C136.181 136 143.873 139.186 149.656 144.97L170.058 165.372C173.89 169.204 175.999 174.298 175.999 179.716C176 190.9 166.9 200 155.716 200C149.287 200 142.849 198.48 137.099 195.605L128 191.055L118.901 195.605ZM128 104C145.645 104 160 89.645 160 72C160 54.355 145.645 40 128 40C110.355 40 96 54.355 96 72C96 89.645 110.355 104 128 104ZM128 56C136.822 56 144 63.178 144 72C144 80.822 136.822 88 128 88C119.178 88 112 80.822 112 72C112 63.178 119.178 56 128 56ZM192 136C209.645 136 224 121.645 224 104C224 86.355 209.645 72 192 72C174.355 72 160 86.355 160 104C160 121.645 174.355 136 192 136ZM192 88C200.822 88 208 95.178 208 104C208 112.822 200.822 120 192 120C183.178 120 176 112.822 176 104C176 95.178 183.178 88 192 88ZM96 104C96 86.355 81.645 72 64 72C46.355 72 32 86.355 32 104C32 121.645 46.355 136 64 136C81.645 136 96 121.645 96 104ZM48 104C48 95.178 55.178 88 64 88C72.822 88 80 95.178 80 104C80 112.822 72.822 120 64 120C55.178 120 48 112.822 48 104Z" fill="#D08411"/>
<path d="M480 48H448V16C448 7.178 440.822 0 432 0H416C407.178 0 400 7.178 400 16V48H384V16C384 7.178 376.822 0 368 0H352C343.178 0 336 7.178 336 16V48H320V16C320 7.178 312.822 0 304 0H288C279.178 0 272 7.178 272 16V48H227.841C204.362 18.757 168.333 0 128 0C57.42 0 0 57.421 0 128C0 175.281 25.77 216.653 64 238.817V480C64 488.822 71.178 496 80 496H375.456C391.92 496 406.114 486.13 412.457 472H480C488.822 472 496 464.822 496 456V64C496 55.178 488.822 48 480 48ZM412.601 439.198C408.103 428.912 399.422 420.707 388.277 416.992L378.644 413.781L478.446 351.405L412.601 439.198ZM447.305 352H400V304H448L448.002 351.564L447.305 352ZM416 16H432L432.01 96C432.01 96 432.007 96 432 96H416V16ZM352 16H368L368.01 96C368.01 96 368.007 96 368 96H352V16ZM288 16H304L304.01 96C304.01 96 304.007 96 304 96H288V16ZM272 64V96C272 104.822 279.178 112 288 112H304C312.822 112 320 104.822 320 96V64H336V96C336 104.822 343.178 112 352 112H368C376.822 112 384 104.822 384 96V64H400V96C400 104.822 407.178 112 416 112H432C440.822 112 448 104.822 448 96V64H480V144H255.002C255.659 138.757 256 133.418 256 128C256 104.701 249.739 82.839 238.817 64H272ZM16 128C16 66.243 66.243 16 128 16C189.757 16 240 66.243 240 128C240 189.757 189.757 240 128 240C66.243 240 16 189.757 16 128ZM208 227.841C215.313 221.969 221.969 215.313 227.841 208H256V256H208V227.841ZM375.456 480H80V246.652C94.831 252.674 111.033 256 128 256C151.299 256 173.161 249.739 192 238.817V256C192 264.822 199.178 272 208 272H256C264.822 272 272 264.822 272 256V208C272 199.178 264.822 192 256 192H238.817C244.561 182.092 249.018 171.35 251.95 160H480V331.566L464 341.566V304C464 295.178 456.822 288 448 288H400C391.178 288 384 295.178 384 304V352C384 360.822 391.178 368 400 368H421.705L341.356 418.219L383.218 432.172C393.256 435.518 400 444.875 400 455.456C400 468.989 388.99 480 375.456 480ZM420 456L480 376V456H420Z" fill="#D08411"/>
<path d="M304 272H352C360.822 272 368 264.822 368 256V208C368 199.178 360.822 192 352 192H304C295.178 192 288 199.178 288 208V256C288 264.822 295.178 272 304 272ZM304 208H352L352.01 256C352.01 256 352.007 256 352 256H304V208ZM400 272H448C456.822 272 464 264.822 464 256V208C464 199.178 456.822 192 448 192H400C391.178 192 384 199.178 384 208V256C384 264.822 391.178 272 400 272ZM400 208H448L448.01 256C448.01 256 448.007 256 448 256H400V208ZM256 288H208C199.178 288 192 295.178 192 304V352C192 360.822 199.178 368 208 368H256C264.822 368 272 360.822 272 352V304C272 295.178 264.822 288 256 288ZM256 352H208V304H256L256.01 352C256.01 352 256.007 352 256 352ZM160 288H112C103.178 288 96 295.178 96 304V352C96 360.822 103.178 368 112 368H160C168.822 368 176 360.822 176 352V304C176 295.178 168.822 288 160 288ZM160 352H112V304H160L160.01 352C160.01 352 160.007 352 160 352ZM256 384H208C199.178 384 192 391.178 192 400V448C192 456.822 199.178 464 208 464H256C264.822 464 272 456.822 272 448V400C272 391.178 264.822 384 256 384ZM256 448H208V400H256L256.01 448C256.01 448 256.007 448 256 448ZM160 384H112C103.178 384 96 391.178 96 400V448C96 456.822 103.178 464 112 464H160C168.822 464 176 456.822 176 448V400C176 391.178 168.822 384 160 384ZM160 448H112V400H160L160.01 448C160.01 448 160.007 448 160 448ZM368 352V304C368 295.178 360.822 288 352 288H304C295.178 288 288 295.178 288 304V352C288 360.822 295.178 368 304 368H352C360.822 368 368 360.822 368 352ZM304 304H352L352.01 352C352.01 352 352.007 352 352 352H304V304Z" fill="#D08411"/>
<path d="M343.726 309L324.024 334.545L312.375 323.098L307 328.384L324.914 346L350 314.286L343.726 309Z" fill="#D08411"/>
<circle cx="128" cy="71" r="20" fill="#D08411"/>
<circle cx="192" cy="107" r="20" fill="#D08411"/>
<circle cx="65" cy="106" r="20" fill="#D08411"/>
<path d="M158 207L128 192L96 207L74 189L83 161L100.5 140.5L128 133L153 140.5L173.5 161L180.5 189L158 207Z" fill="#D08411"/>
</g>
<defs>
<clipPath id="clip0_134_25">
<rect width="496" height="496" fill="white"/>
</clipPath>
</defs>
</svg>
