<svg width="861" height="861" viewBox="0 0 861 861" fill="none" xmlns="http://www.w3.org/2000/svg">
<g clip-path="url(#clip0_244_66)">
<path d="M148.172 148.172H712.828C716.769 148.172 720.549 149.737 723.335 152.524C726.122 155.311 727.688 159.09 727.688 163.031V207.609H133.312V163.031C133.312 159.09 134.878 155.311 137.665 152.524C140.451 149.737 144.231 148.172 148.172 148.172Z" fill="#516EA8"/>
<path d="M727.688 177.891H133.312V207.609H727.688V177.891Z" fill="#3C61A8"/>
<path d="M697.969 400.781C697.969 450.025 658.056 475.078 608.812 475.078C559.569 475.078 519.656 445.359 519.656 400.781C519.656 450.025 479.744 475.078 430.5 475.078C381.256 475.078 341.344 445.359 341.344 400.781C341.344 450.025 301.431 475.078 252.188 475.078C202.944 475.078 163.031 445.359 163.031 400.781C163.031 450.025 123.119 475.078 73.875 475.078C58.2091 475.077 42.8249 470.913 29.2969 463.012V507.59C42.8279 515.483 58.2101 519.647 73.875 519.656C88.711 520.758 103.589 518.177 117.188 512.145C130.787 506.113 142.686 496.816 151.827 485.078C153.174 483.165 154.961 481.604 157.038 480.526C159.114 479.449 161.42 478.886 163.759 478.886C166.099 478.886 168.404 479.449 170.481 480.526C172.558 481.604 174.345 483.165 175.691 485.078C184.831 496.445 196.519 505.498 209.809 511.505C223.099 517.513 237.617 520.305 252.188 519.656C267.024 520.758 281.902 518.177 295.501 512.145C309.1 506.113 320.999 496.816 330.14 485.078C331.487 483.165 333.274 481.604 335.35 480.526C337.427 479.449 339.732 478.886 342.072 478.886C344.412 478.886 346.717 479.449 348.794 480.526C350.87 481.604 352.657 483.165 354.004 485.078C363.143 496.445 374.831 505.498 388.121 511.505C401.411 517.513 415.93 520.305 430.5 519.656C445.336 520.758 460.214 518.177 473.813 512.145C487.412 506.113 499.311 496.816 508.452 485.078C509.799 483.165 511.586 481.604 513.663 480.526C515.739 479.449 518.045 478.886 520.384 478.886C522.724 478.886 525.029 479.449 527.106 480.526C529.183 481.604 530.97 483.165 532.316 485.078C541.456 496.445 553.144 505.498 566.434 511.505C579.724 517.513 594.242 520.305 608.812 519.656C623.44 520.708 638.105 518.21 651.559 512.373C665.013 506.536 676.856 497.534 686.081 486.133C687.428 484.235 689.211 482.687 691.279 481.619C693.347 480.551 695.641 479.993 697.969 479.993C700.297 479.993 702.59 480.551 704.659 481.619C706.727 482.687 708.509 484.235 709.856 486.133C719.081 497.534 730.925 506.536 744.379 512.373C757.832 518.21 772.497 520.708 787.125 519.656C802.787 519.656 818.169 515.503 831.703 507.62V463.042C818.172 470.932 802.788 475.086 787.125 475.078C737.881 475.078 697.969 450.025 697.969 400.781Z" fill="#EDEDED"/>
<path d="M237.328 207.609H133.312L-0.421875 435.166C7.69959 447.44 18.7366 457.51 31.7021 464.475C44.6675 471.44 59.1572 475.083 73.875 475.078C123.119 475.078 163.031 450.025 163.031 400.781C163.031 445.359 202.944 475.078 252.188 475.078C301.431 475.078 341.344 450.025 341.344 400.781C341.344 445.359 381.256 475.078 430.5 475.078C479.744 475.078 519.656 450.025 519.656 400.781C519.656 445.359 559.569 475.078 608.812 475.078C658.056 475.078 697.969 450.025 697.969 400.781C697.969 450.025 737.881 475.078 787.125 475.078C801.843 475.083 816.332 471.44 829.298 464.475C842.263 457.51 853.3 447.44 861.422 435.166L727.688 207.609H623.672" fill="#516EA8"/>
<path d="M519.656 400.781C519.656 445.359 559.569 475.078 608.812 475.078C658.056 475.078 697.969 450.025 697.969 400.781L638.531 207.609H519.656V400.781ZM341.344 400.781C341.344 450.025 301.431 475.078 252.188 475.078C202.944 475.078 163.031 445.359 163.031 400.781L222.469 207.609H341.344V400.781Z" fill="#87A2D6"/>
<path d="M787.125 485.078H787.126C798.98 485.077 810.689 482.935 821.703 478.8V851.422H39.2969V478.8C50.3106 482.935 62.0199 485.077 73.874 485.078H73.875C100.05 485.078 124.682 478.436 143.019 464.32C151.502 457.791 158.478 449.777 163.562 440.376C180.223 468.658 214.646 485.078 252.188 485.078C278.363 485.078 302.994 478.436 321.332 464.32C329.814 457.791 336.79 449.777 341.874 440.376C358.535 468.658 392.959 485.078 430.5 485.078C456.675 485.078 481.307 478.436 499.644 464.32C508.127 457.791 515.103 449.777 520.187 440.376C536.848 468.658 571.271 485.078 608.812 485.078C634.988 485.078 659.619 478.436 677.957 464.32C686.148 458.015 692.934 450.326 697.969 441.34C703.003 450.326 709.789 458.015 717.981 464.32C736.318 478.436 760.95 485.078 787.125 485.078Z" fill="white" stroke="#516EA8" stroke-width="20"/>
<path d="M341.344 534.516H103.594V861.422H341.344V534.516Z" fill="#94B8FF"/>
<path d="M341.344 653.391L133.312 861.422H177.891L341.344 697.969V653.391Z" fill="white"/>
<path d="M341.344 564.234L103.594 801.984V846.562L341.344 608.812V564.234Z" fill="white"/>
<path d="M430.5 -0.421875C392.294 -0.421875 354.947 10.9075 323.18 32.1335C291.413 53.3595 266.653 83.5288 252.033 118.826C237.412 154.124 233.586 192.964 241.04 230.436C248.494 267.908 266.891 302.328 293.907 329.343C320.922 356.359 355.342 374.757 392.814 382.21C430.286 389.664 469.126 385.838 504.424 371.218C539.721 356.597 569.891 331.837 591.117 300.071C612.343 268.304 623.672 230.956 623.672 192.75C623.672 141.518 603.32 92.3836 567.093 56.1569C530.866 19.9301 481.732 -0.421875 430.5 -0.421875Z" fill="white"/>
<path d="M296.762 163.031C295.896 190.596 300.771 218.04 311.078 243.621C321.384 269.201 336.897 292.359 356.631 311.625H459.784C473.873 298.906 485.626 283.819 494.511 267.047C506.698 243.909 514.516 218.722 517.572 192.75C518.888 182.897 519.582 172.971 519.653 163.031H296.762Z" fill="#516EA8"/>
<path d="M545.272 604.519C561.915 598.233 568.602 575.142 560.206 552.957C551.811 530.772 531.528 517.889 514.885 524.174C498.243 530.46 491.556 553.551 499.951 575.751C508.347 597.951 528.57 610.819 545.272 604.519ZM484.824 781.182C484.824 849.907 530.978 798.36 587.904 798.36C644.83 798.36 690.983 849.832 690.983 781.182C691.605 774.16 690.164 767.11 686.835 760.896C683.506 754.682 678.436 749.576 672.246 746.203C662.115 740.001 653.767 731.276 648.019 720.881C642.271 710.486 639.318 698.777 639.451 686.899V686.691C638.211 674.202 632.112 662.7 622.469 654.667C612.826 646.633 600.412 642.712 587.904 643.748C575.398 642.712 562.985 646.634 553.345 654.668C543.704 662.701 537.608 674.203 536.372 686.691V686.899C536.497 698.777 533.54 710.485 527.79 720.879C522.039 731.273 513.692 739.998 503.562 746.203C497.372 749.576 492.302 754.682 488.973 760.896C485.644 767.11 484.203 774.16 484.824 781.182ZM429.013 620.092C414.54 630.493 413.99 654.476 427.794 673.764C441.599 693.051 464.512 700.317 478.985 689.96C493.458 679.603 493.993 655.591 480.203 636.288C466.414 616.986 443.411 609.749 429.013 620.092Z" fill="#87A2D6"/>
<path d="M672.103 575.841C680.277 553.577 673.363 530.557 656.661 524.426C639.959 518.294 619.793 531.372 611.62 553.636C603.446 575.901 610.36 598.92 627.062 605.051C643.764 611.183 663.929 598.105 672.103 575.841Z" fill="#87A2D6"/>
<path d="M745.285 673.152C758.896 653.731 758.108 629.703 743.546 619.495C728.984 609.286 706.13 616.76 692.519 636.182C678.908 655.603 679.681 679.63 694.258 689.839C708.835 700.047 731.674 692.573 745.285 673.152Z" fill="#87A2D6"/>
<path d="M252.188 192.75C252.21 142.832 271.569 94.8645 306.202 58.9156C340.835 22.9667 388.048 1.83256 437.93 -0.0503892C435.448 -0.139545 433.011 -0.421875 430.5 -0.421875C379.268 -0.421875 330.134 19.9301 293.907 56.1569C257.68 92.3836 237.328 141.518 237.328 192.75C237.328 243.982 257.68 293.116 293.907 329.343C330.134 365.57 379.268 385.922 430.5 385.922C433.011 385.922 435.448 385.64 437.93 385.55C388.048 383.667 340.835 362.533 306.202 326.584C271.569 290.635 252.21 242.668 252.188 192.75Z" fill="#EDEDED"/>
<path d="M148.172 727.688H133.312C129.372 727.688 125.592 726.122 122.805 723.335C120.019 720.549 118.453 716.769 118.453 712.828C118.453 708.887 120.019 705.108 122.805 702.321C125.592 699.534 129.372 697.969 133.312 697.969H148.172C152.113 697.969 155.892 699.534 158.679 702.321C161.466 705.108 163.031 708.887 163.031 712.828C163.031 716.769 161.466 720.549 158.679 723.335C155.892 726.122 152.113 727.688 148.172 727.688Z" fill="#4C78CE"/>
<path d="M525.36 281.906H477.914C473.973 281.906 470.194 280.341 467.407 277.554C464.62 274.767 463.055 270.988 463.055 267.047C463.055 263.106 464.62 259.326 467.407 256.54C470.194 253.753 473.973 252.188 477.914 252.188H525.36C531.271 252.188 536.941 249.839 541.121 245.659C545.301 241.479 547.649 235.81 547.649 229.898C547.649 223.987 545.301 218.318 541.121 214.138C536.941 209.958 531.271 207.609 525.36 207.609H515.85C511.909 207.609 508.13 206.044 505.343 203.257C502.556 200.471 500.991 196.691 500.991 192.75C500.991 188.809 502.556 185.03 505.343 182.243C508.13 179.456 511.909 177.891 515.85 177.891H525.36C539.153 177.891 552.382 183.37 562.135 193.123C571.888 202.877 577.368 216.105 577.368 229.898C577.368 243.692 571.888 256.92 562.135 266.674C552.382 276.427 539.153 281.906 525.36 281.906Z" fill="#3C61A8"/>
<path d="M356.203 133.312C352.262 133.312 348.483 131.747 345.696 128.96C342.909 126.174 341.344 122.394 341.344 118.453V73.875C341.344 69.934 342.909 66.1545 345.696 63.3678C348.483 60.5812 352.262 59.0156 356.203 59.0156C360.144 59.0156 363.924 60.5812 366.71 63.3678C369.497 66.1545 371.062 69.934 371.062 73.875V118.453C371.062 122.394 369.497 126.174 366.71 128.96C363.924 131.747 360.144 133.312 356.203 133.312ZM400.781 133.312C396.84 133.312 393.061 131.747 390.274 128.96C387.487 126.174 385.922 122.394 385.922 118.453V73.875C385.922 69.934 387.487 66.1545 390.274 63.3678C393.061 60.5812 396.84 59.0156 400.781 59.0156C404.722 59.0156 408.502 60.5812 411.288 63.3678C414.075 66.1545 415.641 69.934 415.641 73.875V118.453C415.641 122.394 414.075 126.174 411.288 128.96C408.502 131.747 404.722 133.312 400.781 133.312ZM445.359 133.312C441.418 133.312 437.639 131.747 434.852 128.96C432.066 126.174 430.5 122.394 430.5 118.453V73.875C430.5 69.934 432.066 66.1545 434.852 63.3678C437.639 60.5812 441.418 59.0156 445.359 59.0156C449.3 59.0156 453.08 60.5812 455.867 63.3678C458.653 66.1545 460.219 69.934 460.219 73.875V118.453C460.219 122.394 458.653 126.174 455.867 128.96C453.08 131.747 449.3 133.312 445.359 133.312Z" fill="#87A2D6"/>
<path d="M481.583 252.188C476.248 258.298 470.051 263.599 463.188 267.924C463.388 271.687 465.021 275.232 467.75 277.832C470.479 280.431 474.099 281.889 477.869 281.906H497.825C501.019 277.151 504.095 272.248 506.904 267.047C509.474 262.292 511.792 257.284 513.992 252.188H481.583ZM515.849 177.891C514.713 177.984 513.591 178.209 512.506 178.559C510.893 187.098 508.774 195.533 506.161 203.82C508.822 206.219 512.266 207.566 515.849 207.609H525.359C526.072 207.609 526.756 207.758 527.454 207.817C528.405 202.854 529.356 197.876 530.01 192.75C530.604 188.054 531.11 183.299 531.496 178.515C529.466 178.177 527.416 177.968 525.359 177.891H515.849Z" fill="#2F56A1"/>
<path d="M502.715 163.031C499.658 189.004 491.84 214.19 479.653 237.328L479.371 237.848C471.703 251.386 460.542 262.616 447.052 270.366C433.561 278.116 418.238 282.101 402.681 281.906H341.758C330.116 271.337 320.101 259.104 312.039 245.605C321.527 270.797 336.796 293.41 356.617 311.625H459.771C473.86 298.906 485.613 283.819 494.497 267.047C506.685 243.909 514.503 218.722 517.559 192.75C518.879 182.897 519.579 172.972 519.654 163.031H502.715Z" fill="#3C61A8"/>
</g>
<defs>
<clipPath id="clip0_244_66">
<path d="M0 0H861V861H20C8.95432 861 0 852.046 0 841V0Z" fill="white"/>
</clipPath>
</defs>
</svg>
