<svg width="496" height="496" viewBox="0 0 496 496" fill="none" xmlns="http://www.w3.org/2000/svg">
<g clip-path="url(#clip0_134_34)">
<path d="M362.894 365.8C348.556 365.8 336.834 377.425 336.834 391.859C336.834 406.197 348.459 417.919 362.894 417.919C377.231 417.919 388.953 406.294 388.953 391.859C388.953 377.522 377.328 365.8 362.894 365.8ZM362.894 403.387C356.597 403.387 351.463 398.253 351.463 391.956C351.463 385.659 356.597 380.525 362.894 380.525C369.191 380.525 374.325 385.659 374.325 391.956C374.422 398.253 369.191 403.387 362.894 403.387Z" fill="#C45454"/>
<path d="M351.656 349.331C351.656 332.765 338.191 319.3 321.625 319.3C305.059 319.3 291.594 332.765 291.594 349.331C291.594 365.897 305.059 379.362 321.625 379.362C338.191 379.459 351.656 365.897 351.656 349.331ZM306.125 349.331C306.125 340.806 313.1 333.831 321.625 333.831C330.15 333.831 337.125 340.806 337.125 349.331C337.125 357.856 330.15 364.831 321.625 364.831C313.003 364.831 306.125 357.856 306.125 349.331Z" fill="#C45454"/>
<path d="M491.544 87.4783L473.816 69.7502L464.128 60.0627L409.394 5.32832C402.322 -1.74355 390.794 -1.74355 383.625 5.32832L369.675 19.2783C362.603 26.3502 362.603 37.8783 369.675 45.0471L382.172 57.5439L335.188 104.625L290.722 60.1596C283.65 53.0877 272.122 53.0877 264.953 60.1596L256.816 68.2971C249.744 75.3689 249.744 86.8971 256.816 94.0658L269.216 106.466C269.119 106.66 92.1283 283.65 92.2252 283.553C79.1471 296.825 73.1408 312.616 73.1408 329.278C73.1408 345.941 79.4377 361.731 90.8689 373.647L81.9564 382.56C76.0471 388.469 76.0471 398.06 81.9564 403.872L82.2471 404.163L3.1002 483.503C0.29082 486.313 0.29082 490.963 3.1002 493.772C5.90957 496.581 10.5596 496.581 13.3689 493.772L92.7096 414.431L93.0002 414.722C98.9096 420.631 108.5 420.631 114.313 414.722L123.225 405.81C135.431 417.531 151.513 423.538 167.594 423.538C179.51 423.538 191.425 420.244 201.985 413.656C219.228 424.797 242.091 412.397 242.091 391.86C242.091 387.21 240.928 382.947 238.797 379.169L242.478 375.488C268.828 390.503 298.569 361.053 283.456 334.51C302.541 315.425 378.297 239.669 390.31 227.656L402.71 240.056C409.781 247.128 421.31 247.128 428.478 240.056L436.616 231.919C443.688 224.847 443.688 213.319 436.616 206.15L392.15 161.685L439.231 114.603L451.728 127.1C458.8 134.172 470.328 134.172 477.497 127.1L491.447 113.15C498.616 106.078 498.616 94.5502 491.544 87.4783ZM279.581 116.831L301.281 138.531L221.36 218.356C219.906 217.291 218.647 216.031 217.581 214.578C213.61 209.25 205.763 209.25 201.791 214.578C195.785 222.619 185.031 224.169 177.185 219.228L279.581 116.831ZM311.55 148.897L348.072 185.419L313.972 219.422C311.938 218.163 310.097 216.516 308.741 214.675C304.769 209.347 296.922 209.347 292.95 214.675C285.491 224.653 270.669 224.556 263.113 214.675C259.141 209.347 251.197 209.444 247.322 214.675C246.547 216.128 243.35 219.131 239.766 220.585L311.55 148.897ZM104.141 404.55C103.947 404.744 103.56 404.744 103.269 404.55C94.9377 396.219 100.75 402.031 92.3221 393.603C92.1283 393.41 92.1283 393.022 92.3221 392.731L101.235 383.819L112.956 395.541L104.141 404.55ZM204.6 391.86C204.6 382.172 215.935 376.941 223.297 382.947C225.913 385.078 227.56 388.275 227.56 391.86C227.656 406.778 204.6 407.263 204.6 391.86ZM244.803 358.244C235.6 345.263 249.744 328.503 264.081 335.381C269.506 337.997 272.897 343.422 272.897 349.331C272.897 364.25 253.619 370.644 244.803 358.244ZM273.478 324.047C247.031 307.288 214.772 338.288 232.016 365.51L228.431 369.094C206.925 357.469 182.028 379.75 192.394 402.71C173.31 413.656 148.606 410.75 132.622 394.863L102.203 364.444C92.9033 355.144 87.7689 342.744 87.7689 329.375C87.7689 318.428 91.2564 307.966 97.7471 299.344L103.075 304.672C105.885 307.481 110.535 307.481 113.344 304.672C116.153 301.863 116.153 297.213 113.344 294.403L107.628 288.688L123.419 272.897L129.135 278.613C131.944 281.422 136.594 281.422 139.403 278.613C142.213 275.803 142.213 271.153 139.403 268.344L133.688 262.628L149.478 246.838L155.194 252.553C158.003 255.363 162.653 255.363 165.463 252.553C168.272 249.744 168.272 245.094 165.463 242.285L159.747 236.569L166.528 229.788C179.025 239.572 197.528 239.088 209.541 227.56C222.231 239.669 242.478 239.669 255.169 227.56C267.86 239.669 288.106 239.669 300.797 227.56C313.488 239.669 333.735 239.669 346.425 227.56C350.785 231.725 356.016 234.438 361.538 235.794L273.478 324.047ZM377.135 220.294C369.191 223.975 359.794 221.747 354.466 214.578C351.85 211.091 347.103 209.444 342.55 211.478L358.438 195.591L380.138 217.291L377.135 220.294ZM426.347 216.419C427.8 217.872 427.8 220.197 426.347 221.65L418.21 229.788C416.756 231.241 414.431 231.241 412.978 229.788C395.541 212.35 284.619 101.428 267.085 83.8939C265.631 82.4408 265.631 80.1158 267.085 78.6627L275.222 70.5252C276.675 69.0721 279 69.0721 280.453 70.5252C285.588 75.7564 419.178 209.347 426.347 216.419ZM381.978 151.416L345.456 114.894L392.538 67.8127L429.06 104.335L381.978 151.416ZM482.341 100.266C482.341 102.3 482.438 101.622 467.325 116.831C465.872 118.285 463.547 118.285 462.094 116.831C373.647 28.3846 378.878 34.2939 378.878 32.0658C378.878 31.4846 378.975 30.4189 379.944 29.4502C395.056 14.2408 394.475 14.4346 396.51 14.4346C397.091 14.4346 398.156 14.5314 399.125 15.5002L463.45 79.8252C463.547 79.9221 463.644 79.9221 463.644 80.0189C483.31 99.5877 482.341 98.5221 482.341 100.266Z" fill="#C45454"/>
<path d="M347.103 431.481C347.006 431.191 347.006 430.9 346.909 430.513C345.844 427.316 344.487 424.216 342.937 421.116C342.937 421.116 342.937 421.116 342.937 421.019C342.162 419.372 341.291 417.725 340.419 416.175C336.737 409.878 332.378 404.356 327.534 399.61C327.437 399.513 327.437 399.513 327.341 399.416C326.953 399.028 326.566 398.738 326.178 398.35C325.791 397.963 325.403 397.672 325.016 397.285C324.919 397.188 324.822 397.091 324.725 396.994C319.687 392.538 313.972 388.856 307.869 386.338C304.187 384.788 300.409 383.722 296.631 383.044C296.244 382.947 295.953 382.947 295.566 382.85C295.469 382.85 295.372 382.85 295.275 382.85C294.015 382.656 292.756 382.56 291.497 382.56C291.4 382.56 291.206 382.56 291.109 382.56C290.625 382.56 290.237 382.56 289.753 382.56C289.269 382.56 288.881 382.56 288.397 382.56C288.3 382.56 288.106 382.56 288.009 382.56C286.75 382.656 285.49 382.753 284.231 382.85C284.134 382.85 284.037 382.85 283.941 382.85C283.553 382.947 283.262 382.947 282.875 383.044C279.097 383.625 275.319 384.788 271.637 386.338C265.534 388.856 259.819 392.538 254.781 396.994C254.684 397.091 254.587 397.188 254.491 397.285C254.103 397.672 253.716 397.963 253.328 398.35C252.941 398.738 252.553 399.028 252.165 399.416C252.069 399.513 252.069 399.513 251.972 399.61C247.128 404.356 242.769 409.878 239.087 416.175C238.216 417.822 237.344 419.372 236.569 421.019C236.569 421.019 236.569 421.019 236.569 421.116C235.019 424.216 233.662 427.413 232.597 430.513C232.5 430.803 232.403 431.094 232.403 431.481C227.462 446.885 227.656 463.353 235.019 476.431C243.059 491.06 258.559 499.1 277.062 494.935C277.353 494.838 277.644 494.838 277.934 494.741C278.225 494.644 278.516 494.644 278.709 494.547C280.937 493.966 283.262 493.191 285.491 492.319C286.847 491.835 288.3 491.544 289.753 491.544C291.206 491.544 292.659 491.835 294.016 492.319C296.244 493.288 298.569 493.966 300.797 494.547C301.087 494.644 301.378 494.644 301.572 494.741C301.862 494.838 302.153 494.838 302.444 494.935C320.947 499.1 336.447 491.06 344.487 476.431C351.947 463.353 352.14 446.981 347.103 431.481ZM299.634 478.853C296.437 477.594 293.144 476.916 289.753 477.013C286.362 477.013 283.069 477.594 279.872 478.853C277.062 480.016 274.35 480.791 271.637 481.178C266.794 481.856 262.337 481.275 258.462 479.531C252.65 476.916 248.097 471.588 245.675 464.516C245.384 463.741 245.094 463.063 244.609 462.481C242.381 454.538 242.962 445.431 245.772 436.519C245.966 436.131 246.159 435.647 246.353 435.26C247.709 431.288 249.453 427.413 251.681 423.538C260.884 407.65 275.997 397.285 289.462 397.091C289.559 397.091 289.656 397.091 289.753 397.091C289.85 397.091 289.947 397.091 290.044 397.091C303.509 397.381 318.622 407.65 327.825 423.538C330.053 427.413 331.797 431.288 333.153 435.26C333.347 435.744 333.541 436.131 333.734 436.519C336.544 445.431 337.125 454.538 334.897 462.481C334.412 463.063 334.122 463.741 333.831 464.516C331.409 471.588 326.856 476.916 321.044 479.531C317.072 481.275 312.615 481.856 307.869 481.178C305.156 480.694 302.444 480.016 299.634 478.853Z" fill="#C45454"/>
<circle cx="257.688" cy="348.75" r="18.4062" fill="#C45454"/>
<circle cx="321.625" cy="349.719" r="18.4062" fill="#C45454"/>
<circle cx="363.281" cy="391.375" r="18.4062" fill="#C45454"/>
<circle cx="216.031" cy="393.312" r="18.4062" fill="#C45454"/>
<path d="M316.297 486.797L288.688 481.469L255.75 486.797L236.859 467.906L245.094 424.797L271.25 396.703H310.969L334.703 424.797L342.938 467.906L316.297 486.797Z" fill="#C45454"/>
</g>
<defs>
<clipPath id="clip0_134_34">
<rect width="496" height="496" fill="white"/>
</clipPath>
</defs>
</svg>
