<svg width="720" height="720" viewBox="0 0 720 720" fill="none" xmlns="http://www.w3.org/2000/svg">
<path d="M310.781 215.156H102.656C102.656 283.781 87.75 351.562 58.7812 413.859L19.125 499.219C11.1094 516.375 7.03125 535.078 7.03125 554.063C7.03125 584.016 17.2969 613.125 36.2812 636.328C75.6562 684.703 134.719 712.828 197.156 712.828H216.141C278.578 712.828 337.641 684.703 377.016 636.328C396.141 613.125 406.406 584.156 406.406 554.063C406.406 535.078 402.328 516.375 394.312 499.078L354.656 413.719C325.687 351.563 310.781 283.781 310.781 215.156Z" fill="#AAAAAA"/>
<path d="M129.094 268.875C151.875 285.187 178.734 293.906 206.719 293.906C234.703 293.906 261.563 285.187 284.344 268.875L312.047 248.906C311.203 237.656 310.781 226.406 310.781 215.156H102.656C102.656 226.406 102.234 237.656 101.391 248.906L129.094 268.875Z" fill="#777777"/>
<path d="M310.781 37.9688C283.359 17.8594 250.313 7.03125 216.281 7.03125H197.156C163.125 7.03125 130.078 17.8594 102.656 37.9688L54.8438 136.406L102.656 215.156L145.547 246.094C163.406 258.891 184.781 265.781 206.719 265.781C228.656 265.781 250.031 258.891 267.891 246.094L310.781 215.156L358.594 136.406L310.781 37.9688Z" fill="#AAAAAA"/>
<path d="M213.75 437.344H199.688V712.969H213.75V437.344Z" fill="#777777"/>
<path d="M25.5937 221.062L45.7031 251.719C51.4687 260.437 61.1719 265.781 71.7187 265.781C88.875 265.781 102.797 251.859 102.797 234.703V37.9688L64.2656 60.0469C28.8281 80.2969 7.03125 117.984 7.03125 158.766C7.03125 180.844 13.5 202.5 25.5937 221.062ZM387.844 221.062L367.734 251.719C361.969 260.437 352.266 265.781 341.719 265.781C324.562 265.781 310.641 251.859 310.641 234.703V37.9688L349.031 60.0469C384.469 80.2969 406.266 117.984 406.266 158.766C406.406 180.844 399.937 202.5 387.844 221.062Z" fill="#777777"/>
<path d="M171.562 136.406H157.5V164.531H171.562V136.406Z" fill="#777777"/>
<path d="M255.938 136.406H241.875V164.531H255.938V136.406Z" fill="#777777"/>
<path d="M215.156 221.766H198.281C185.063 221.766 174.375 211.078 174.375 197.859H188.438C188.438 203.344 192.797 207.703 198.281 207.703H215.156C220.641 207.703 225 203.344 225 197.859H239.062C239.062 211.078 228.375 221.766 215.156 221.766Z" fill="#777777"/>
<path d="M223.594 174.375H189.844V188.438H223.594V174.375Z" fill="#777777"/>
<path d="M213.75 181.406H199.688V215.156H213.75V181.406Z" fill="#777777"/>
<path d="M261.703 720H151.734C132.328 720 116.438 704.25 116.438 684.703C116.438 666 131.203 650.531 149.766 649.547L116.578 448.734L130.5 446.484L165.094 655.453C165.375 657.422 164.812 659.531 163.547 661.078C162.281 662.625 160.312 663.609 158.203 663.609H151.875C140.203 663.609 130.641 673.172 130.641 684.844C130.641 696.516 140.203 706.078 151.875 706.078H261.844C273.516 706.078 283.078 696.516 283.078 684.844C283.078 673.172 273.516 663.609 261.844 663.609H255.516C253.406 663.609 251.437 662.766 250.172 661.078C248.766 659.531 248.203 657.422 248.625 655.453L283.219 446.484L297.141 448.734L263.953 649.547C282.516 650.531 297.281 666 297.281 684.703C297 704.25 281.109 720 261.703 720Z" fill="#777777"/>
<path d="M452.812 239.062V309.375L495 281.25L452.812 239.062Z" fill="#AAAAAA"/>
<path d="M635.625 239.062V309.375L593.438 281.25L635.625 239.062Z" fill="#AAAAAA"/>
<path d="M705.516 584.156L614.813 383.906H473.625L382.922 584.156C378 594.984 375.469 606.656 375.469 618.469C375.469 647.016 390.094 673.453 414.141 688.641C439.312 704.531 468.562 712.969 498.375 712.969H589.922C619.734 712.969 648.984 704.531 674.156 688.641C698.203 673.453 712.828 646.875 712.828 618.469C712.969 606.516 710.438 594.844 705.516 584.156Z" fill="#777777"/>
<path d="M452.953 429.469C463.078 433.687 474.188 435.938 485.438 435.938H602.437C613.828 435.938 625.078 433.547 635.344 429.328L614.813 383.906H473.625L452.953 429.469Z" fill="#AAAAAA"/>
<path d="M448.875 305.299L448.313 305.862C426.656 324.143 421.313 355.502 435.938 379.831C446.344 397.268 465.188 407.956 485.578 407.956H602.578C623.109 407.956 642.094 397.127 652.359 379.409L652.922 378.565C667.266 354.096 661.781 322.877 639.984 304.737C584.438 258.612 504 258.752 448.875 305.299Z" fill="#777777"/>
<path d="M590.625 720H497.812C480.797 720 466.875 706.078 466.875 689.062C466.875 673.031 479.109 659.812 494.859 658.266L467.016 489.094L480.937 486.844L510.187 664.031C510.469 666 509.906 668.109 508.641 669.656C507.375 671.203 505.406 672.187 503.297 672.187H497.812C488.531 672.187 480.937 679.781 480.937 689.062C480.937 698.344 488.531 705.937 497.812 705.937H590.625C599.906 705.937 607.5 698.344 607.5 689.062C607.5 679.781 599.906 672.187 590.625 672.187H585.281C583.172 672.187 581.203 671.344 579.937 669.656C578.531 668.109 577.969 666 578.391 664.031L607.641 486.844L621.562 489.094L593.719 658.266C609.328 659.812 621.703 673.031 621.703 689.062C621.562 706.078 607.641 720 590.625 720Z" fill="#AAAAAA"/>
<path d="M551.25 544.219H537.188V712.969H551.25V544.219Z" fill="#AAAAAA"/>
<path d="M502.031 309.375H487.969V333.281H502.031V309.375Z" fill="#AAAAAA"/>
<path d="M600.469 309.375H586.406V333.281H600.469V309.375Z" fill="#AAAAAA"/>
<path d="M551.25 344.531H537.188C525.516 344.531 516.094 335.109 516.094 323.438H530.156C530.156 327.375 533.25 330.469 537.188 330.469H551.25C555.187 330.469 558.281 327.375 558.281 323.438H572.344C572.344 335.109 562.922 344.531 551.25 344.531Z" fill="#AAAAAA"/>
<path d="M551.25 309.375H537.188V337.5H551.25V309.375Z" fill="#AAAAAA"/>
<path d="M464.355 332.066L408.147 318.016L404.737 331.658L460.945 345.709L464.355 332.066Z" fill="#AAAAAA"/>
<path d="M464.372 368.236L460.96 354.594L404.753 368.649L408.165 382.292L464.372 368.236Z" fill="#AAAAAA"/>
<path d="M683.755 331.666L680.344 318.023L624.137 332.079L627.549 345.721L683.755 331.666Z" fill="#AAAAAA"/>
<path d="M683.733 368.621L627.525 354.57L624.115 368.213L680.323 382.264L683.733 368.621Z" fill="#AAAAAA"/>
</svg>
