<svg width="497" height="496" viewBox="0 0 497 496" fill="none" xmlns="http://www.w3.org/2000/svg">
<g clip-path="url(#clip0_134_29)">
<path d="M446.485 106.439C446.485 106.439 446.485 106.011 446.485 105.755C446.129 105.034 445.668 104.37 445.115 103.786L343.221 2.27987C342.481 1.63804 341.642 1.11802 340.738 0.739307C339.623 0.166024 338.395 -0.155368 337.142 -0.202148H87.9732C80.7744 -0.202148 73.8704 2.6563 68.7801 7.74436C63.6898 12.8324 60.8301 19.7333 60.8301 26.9289V469.071C60.8301 476.267 63.6898 483.168 68.7801 488.256C73.8704 493.344 80.7744 496.202 87.9732 496.202H420.027C427.226 496.202 434.13 493.344 439.22 488.256C444.31 483.168 447.17 476.267 447.17 469.071V109.606C447.146 108.516 446.913 107.442 446.485 106.439ZM345.704 29.4109L417.972 101.646H345.704V29.4109ZM420.027 479.085H87.9732C85.3162 479.085 82.7681 478.03 80.8893 476.152C79.0106 474.274 77.9551 471.727 77.9551 469.071V26.9289C77.9551 24.2731 79.0106 21.7261 80.8893 19.8482C82.7681 17.9703 85.3162 16.9152 87.9732 16.9152H328.579V109.777C328.579 110.901 328.801 112.014 329.231 113.052C329.662 114.091 330.292 115.034 331.087 115.829C331.882 116.624 332.826 117.254 333.865 117.684C334.904 118.114 336.018 118.336 337.142 118.336H430.045V469.242C430 471.868 428.925 474.372 427.051 476.213C425.177 478.054 422.655 479.085 420.027 479.085Z" fill="#4F975E"/>
<path d="M130.443 144.097C130.443 146.367 131.345 148.544 132.951 150.149C134.557 151.754 136.735 152.656 139.006 152.656H172.057C174.328 152.656 176.506 151.754 178.111 150.149C179.717 148.544 180.619 146.367 180.619 144.097V119.619H204.766C207.037 119.619 209.214 118.718 210.82 117.113C212.426 115.508 213.328 113.331 213.328 111.061V78.3665C213.328 76.0966 212.426 73.9197 210.82 72.3146C209.214 70.7096 207.037 69.8079 204.766 69.8079H180.619V45.7579C180.619 43.488 179.717 41.3111 178.111 39.706C176.506 38.1009 174.328 37.1992 172.057 37.1992H139.006C136.735 37.1992 134.557 38.1009 132.951 39.706C131.345 41.3111 130.443 43.488 130.443 45.7579V69.8079H106.297C104.026 69.8079 101.848 70.7096 100.242 72.3146C98.6365 73.9197 97.7344 76.0966 97.7344 78.3665V111.061C97.7344 113.331 98.6365 115.508 100.242 117.113C101.848 118.718 104.026 119.619 106.297 119.619H130.443V144.097ZM114.859 86.9252H139.006C141.277 86.9252 143.454 86.0235 145.06 84.4185C146.666 82.8134 147.568 80.6365 147.568 78.3665V54.3166H163.494V78.3665C163.494 80.6365 164.396 82.8134 166.002 84.4185C167.608 86.0235 169.786 86.9252 172.057 86.9252H196.203V102.502H172.057C169.786 102.502 167.608 103.404 166.002 105.009C164.396 106.614 163.494 108.791 163.494 111.061V135.196H147.568V111.061C147.568 108.791 146.666 106.614 145.06 105.009C143.454 103.404 141.277 102.502 139.006 102.502H114.859V86.9252ZM111.606 192.796C111.606 195.066 112.508 197.243 114.114 198.848C115.719 200.453 117.897 201.355 120.168 201.355H387.832C390.103 201.355 392.281 200.453 393.886 198.848C395.492 197.243 396.394 195.066 396.394 192.796C396.394 190.526 395.492 188.349 393.886 186.744C392.281 185.139 390.103 184.238 387.832 184.238H120.168C117.897 184.238 115.719 185.139 114.114 186.744C112.508 188.349 111.606 190.526 111.606 192.796ZM387.832 223.265H120.168C117.897 223.265 115.719 224.167 114.114 225.772C112.508 227.377 111.606 229.554 111.606 231.824C111.606 234.094 112.508 236.271 114.114 237.876C115.719 239.481 117.897 240.383 120.168 240.383H387.832C390.103 240.383 392.281 239.481 393.886 237.876C395.492 236.271 396.394 234.094 396.394 231.824C396.394 229.554 395.492 227.377 393.886 225.772C392.281 224.167 390.103 223.265 387.832 223.265ZM387.832 262.379H120.168C117.897 262.379 115.719 263.28 114.114 264.885C112.508 266.49 111.606 268.667 111.606 270.937C111.606 273.207 112.508 275.384 114.114 276.989C115.719 278.594 117.897 279.496 120.168 279.496H387.832C390.103 279.496 392.281 278.594 393.886 276.989C395.492 275.384 396.394 273.207 396.394 270.937C396.394 268.667 395.492 266.49 393.886 264.885C392.281 263.28 390.103 262.379 387.832 262.379ZM387.832 301.406H120.168C117.897 301.406 115.719 302.308 114.114 303.913C112.508 305.518 111.606 307.695 111.606 309.965C111.606 312.235 112.508 314.412 114.114 316.017C115.719 317.622 117.897 318.524 120.168 318.524H387.832C390.103 318.524 392.281 317.622 393.886 316.017C395.492 314.412 396.394 312.235 396.394 309.965C396.394 307.695 395.492 305.518 393.886 303.913C392.281 302.308 390.103 301.406 387.832 301.406ZM254 340.434H120.168C117.897 340.434 115.719 341.336 114.114 342.941C112.508 344.546 111.606 346.723 111.606 348.993C111.606 351.262 112.508 353.439 114.114 355.044C115.719 356.649 117.897 357.551 120.168 357.551H254C256.271 357.551 258.449 356.649 260.055 355.044C261.66 353.439 262.562 351.262 262.562 348.993C262.562 346.723 261.66 344.546 260.055 342.941C258.449 341.336 256.271 340.434 254 340.434ZM254 379.547H120.168C117.897 379.547 115.719 380.449 114.114 382.054C112.508 383.659 111.606 385.836 111.606 388.106C111.606 390.376 112.508 392.553 114.114 394.158C115.719 395.763 117.897 396.664 120.168 396.664H254C256.271 396.664 258.449 395.763 260.055 394.158C261.66 392.553 262.562 390.376 262.562 388.106C262.562 385.836 261.66 383.659 260.055 382.054C258.449 380.449 256.271 379.547 254 379.547ZM254 418.575H120.168C117.897 418.575 115.719 419.476 114.114 421.081C112.508 422.687 111.606 424.864 111.606 427.133C111.606 429.403 112.508 431.58 114.114 433.185C115.719 434.79 117.897 435.692 120.168 435.692H254C256.271 435.692 258.449 434.79 260.055 433.185C261.66 431.58 262.562 429.403 262.562 427.133C262.562 424.864 261.66 422.687 260.055 421.081C258.449 419.476 256.271 418.575 254 418.575ZM354.609 407.363C342.898 407.226 331.609 411.733 323.216 419.898C314.822 428.064 310.008 439.221 309.828 450.927C309.828 455.805 312.054 464.62 326.953 469.927C335.943 472.802 345.343 474.19 354.781 474.035C376.444 474.035 399.562 467.958 399.562 450.927C399.484 445.112 398.258 439.371 395.955 434.031C393.651 428.691 390.315 423.859 386.139 419.812C381.962 415.764 377.027 412.581 371.616 410.444C366.205 408.308 360.426 407.261 354.609 407.363ZM354.609 456.918C337.484 456.918 328.066 452.638 326.953 450.927C326.953 443.595 329.866 436.563 335.053 431.379C340.24 426.195 347.274 423.282 354.609 423.282C361.944 423.282 368.979 426.195 374.166 431.379C379.352 436.563 382.266 443.595 382.266 450.927C380.725 452.895 371.135 456.918 354.609 456.918Z" fill="#4F975E"/>
<path d="M416.687 385.538C415.543 383.473 413.933 381.702 411.987 380.365C410.04 379.029 407.809 378.162 405.471 377.835C402.465 377.549 399.435 377.974 396.624 379.074C393.813 380.174 391.3 381.919 389.287 384.168C388.7 384.756 388.156 385.385 387.661 386.051C388.442 384.341 389.072 382.565 389.544 380.745C392.456 370.303 390.572 357.38 381.41 352.844C379.606 351.978 377.631 351.529 375.63 351.529C373.629 351.529 371.654 351.978 369.851 352.844C366.806 354.487 364.161 356.78 362.104 359.561C360.047 362.342 358.628 365.543 357.949 368.934C355.123 379.375 357.007 392.299 366.511 396.75C368.318 397.655 370.312 398.124 372.334 398.119C374.317 398.114 376.275 397.676 378.071 396.835C380.557 395.608 382.748 393.856 384.492 391.7C382.849 394.859 381.991 398.367 381.991 401.928C381.991 405.488 382.849 408.996 384.492 412.155C385.613 414.222 387.204 415.997 389.138 417.335C391.072 418.673 393.294 419.537 395.624 419.858H397.764C403.138 419.674 408.22 417.365 411.892 413.439C415.474 409.851 417.857 405.244 418.716 400.248C419.574 395.253 418.866 390.115 416.687 385.538ZM351.27 368.848C350.619 365.48 349.24 362.295 347.228 359.515C345.217 356.736 342.622 354.43 339.625 352.758C337.821 351.893 335.846 351.443 333.845 351.443C331.844 351.443 329.869 351.893 328.066 352.758C318.904 357.294 317.02 369.875 319.931 380.659C320.45 382.638 321.167 384.559 322.072 386.394C321.485 385.567 320.826 384.793 320.102 384.083C318.073 381.832 315.544 380.087 312.719 378.987C309.895 377.888 306.852 377.464 303.834 377.749C301.506 378.076 299.287 378.943 297.354 380.281C295.421 381.618 293.828 383.389 292.702 385.452C290.619 390.105 290.035 395.291 291.032 400.29C292.03 405.29 294.558 409.855 298.268 413.353C300.075 415.313 302.256 416.89 304.682 417.992C307.109 419.095 309.732 419.7 312.396 419.772H313.937C316.265 419.445 318.484 418.578 320.417 417.241C322.35 415.903 323.943 414.132 325.069 412.07C326.649 408.829 327.427 405.255 327.338 401.651C327.248 398.047 326.294 394.516 324.555 391.358C326.336 393.645 328.622 395.49 331.234 396.75C333.03 397.59 334.988 398.028 336.971 398.033C338.992 398.038 340.986 397.569 342.793 396.664C352.212 392.213 354.181 379.29 351.27 368.848Z" fill="#4F975E"/>
<path d="M142.244 85.5892H106.212V106.155H142.244V135.86H170.689V106.155H205.456V85.5892H170.689V49.5996H142.244V85.5892Z" fill="#4F975E"/>
<path d="M327.355 430.765L323.04 451.791L341.378 461.495H368.886L387.225 451.791L379.673 430.765L368.886 420.521H341.378L327.355 430.765Z" fill="#4F975E"/>
</g>
<defs>
<clipPath id="clip0_134_29">
<rect width="497" height="496" fill="white"/>
</clipPath>
</defs>
</svg>
