<svg width="486" height="485" viewBox="0 0 486 485" fill="none" xmlns="http://www.w3.org/2000/svg">
<path d="M173.466 82.6443C204.191 27.5481 219.542 0 242.506 0C265.471 0 280.822 27.5481 311.546 82.6443L319.5 96.9033C328.23 112.569 332.595 120.402 339.385 125.567C346.175 130.732 354.663 132.648 371.638 136.479L387.061 139.971C446.716 153.479 476.52 160.22 483.625 183.04C490.706 205.835 470.384 229.624 429.717 277.178L419.192 289.473C407.649 302.98 401.854 309.746 399.259 318.088C396.664 326.454 397.537 335.476 399.283 353.493L400.884 369.911C407.019 433.373 410.099 465.092 391.523 479.181C372.948 493.295 345.012 480.418 289.188 454.713L274.711 448.069C258.851 440.745 250.921 437.108 242.506 437.108C234.092 437.108 226.162 440.745 210.302 448.069L195.849 454.713C140.001 480.418 112.065 493.271 93.514 479.206C74.9142 465.092 77.9939 433.373 84.1292 369.911L85.7297 353.518C87.4757 335.476 88.3487 326.455 85.7297 318.112C83.1592 309.746 77.3634 302.98 65.8204 289.497L55.2959 277.178C14.6285 229.648 -5.69307 205.859 1.38795 183.04C8.49322 160.22 38.3208 153.454 97.976 139.971L113.399 136.479C130.35 132.648 138.813 130.732 145.627 125.567C152.417 120.402 156.782 112.569 165.512 96.9033L173.466 82.6443Z" fill="#CA8A03"/>
<path d="M374.575 231.072C371.486 222.807 366.294 216.831 359.555 213.793C356.463 212.402 353.218 211.696 349.911 211.696C335.802 211.696 321.467 224.848 314.238 244.426C305.291 268.677 310.493 292.432 326.337 299.68C329.523 301.139 332.936 301.88 336.479 301.88C350.849 301.88 365.455 289.819 372.821 271.869C378.387 258.283 379.042 243.033 374.575 231.072ZM170.24 244.426C163.011 224.848 148.675 211.696 134.566 211.696C131.26 211.696 128.014 212.402 124.922 213.793C118.182 216.831 112.99 222.807 109.902 231.072C105.435 243.033 106.09 258.283 111.657 271.869C119.023 289.819 133.629 301.88 147.999 301.88C151.541 301.88 154.954 301.139 158.14 299.68C173.985 292.432 179.186 268.677 170.24 244.426ZM201.618 241.712C202.925 241.769 204.244 241.733 205.538 241.605C213.138 240.859 220.009 236.959 225.411 230.326C234.128 219.623 236.548 202.867 234.712 185.63C231.907 159.066 217.909 139.24 199.102 138.422C199.102 138.422 196.417 138.428 195.051 138.558C186.754 139.378 179.212 143.689 173.24 151.025C164.58 161.665 160.418 177.496 162.106 193.372C164.879 219.636 182.235 240.868 201.618 241.712ZM242.238 262.425C197.146 262.425 152.054 316.024 152.054 367.495C152.054 382.853 159.757 395.206 167.32 400.269C176.661 406.519 183.245 408.974 196.938 408.974C213.208 408.974 217.599 403.283 225.216 398.261C230.725 394.631 235.483 391.494 242.239 391.494C248.995 391.494 253.753 394.631 259.261 398.261C266.878 403.283 271.269 408.974 287.54 408.974C301.232 408.974 307.816 406.519 317.157 400.269C324.72 395.206 332.423 382.853 332.423 367.495C332.423 316.024 287.331 262.425 242.238 262.425ZM279.074 241.475C280.367 241.603 281.687 241.638 282.993 241.581C302.376 240.739 319.733 219.506 322.506 193.243C324.193 177.367 320.03 161.535 311.371 150.896C305.399 143.56 298.137 139.463 289.839 138.642C288.473 138.511 285.509 138.423 285.509 138.423C266.702 139.241 252.704 158.936 249.899 185.499C248.064 202.737 250.484 219.493 259.199 230.196C264.602 236.829 271.474 240.729 279.074 241.475Z" fill="white"/>
</svg>
