<svg width="502" height="502" viewBox="0 0 502 502" fill="none" xmlns="http://www.w3.org/2000/svg">
<path d="M338.586 502H163.415C158.661 501.995 154.104 500.105 150.742 496.744C147.381 493.382 145.491 488.825 145.486 484.071V356.514H17.9286C13.1751 356.509 8.61763 354.619 5.2564 351.258C1.89517 347.897 0.00474638 343.339 0 338.586V163.415C0.00474638 158.661 1.89517 154.104 5.2564 150.742C8.61763 147.381 13.1751 145.491 17.9286 145.486H145.486V17.9286C145.491 13.1751 147.381 8.61763 150.742 5.2564C154.103 1.89517 158.661 0.00474638 163.414 0H338.585C343.339 0.00474638 347.896 1.89517 351.258 5.2564C354.619 8.61763 356.509 13.1751 356.514 17.9286V145.486H484.071C488.825 145.491 493.382 147.381 496.744 150.742C500.105 154.103 501.995 158.661 502 163.414V338.585C501.995 343.339 500.105 347.896 496.744 351.258C493.382 354.619 488.825 356.509 484.071 356.514H356.514V484.071C356.509 488.825 354.619 493.382 351.258 496.744C347.897 500.105 343.339 501.995 338.586 502Z" fill="#11A9D0"/>
<path d="M370.349 213.557C367.564 206.104 362.88 200.714 356.803 197.974C354.015 196.719 351.088 196.083 348.106 196.083C335.382 196.083 322.453 207.945 315.933 225.601C307.865 247.472 312.556 268.895 326.845 275.432C329.719 276.748 332.796 277.417 335.992 277.417C348.951 277.417 362.124 266.539 368.767 250.35C373.787 238.098 374.378 224.345 370.349 213.557ZM186.067 225.601C179.548 207.945 166.619 196.083 153.895 196.083C150.913 196.083 147.985 196.719 145.197 197.974C139.119 200.714 134.436 206.104 131.651 213.557C127.622 224.345 128.213 238.098 133.234 250.35C139.877 266.539 153.049 277.417 166.009 277.417C169.204 277.417 172.281 276.748 175.155 275.432C189.445 268.895 194.136 247.472 186.067 225.601ZM214.366 223.153C215.545 223.204 216.734 223.172 217.901 223.057C224.755 222.384 230.953 218.867 235.824 212.885C243.685 203.232 245.868 188.12 244.212 172.575C241.682 148.618 229.058 130.738 212.097 130C212.097 130 209.676 130.005 208.444 130.123C200.961 130.862 194.159 134.75 188.773 141.366C180.963 150.962 177.21 165.239 178.731 179.557C181.232 203.244 196.885 222.392 214.366 223.153ZM251 241.833C210.333 241.833 169.667 290.172 169.667 336.592C169.667 350.443 176.613 361.583 183.434 366.149C191.858 371.786 197.796 374 210.145 374C224.819 374 228.779 368.867 235.648 364.339C240.617 361.065 244.908 358.235 251.001 358.235C257.094 358.235 261.385 361.065 266.352 364.339C273.222 368.867 277.181 374 291.855 374C304.204 374 310.141 371.786 318.566 366.149C325.387 361.583 332.333 350.443 332.333 336.592C332.333 290.172 291.667 241.833 251 241.833ZM284.22 222.939C285.387 223.055 286.577 223.087 287.755 223.035C305.236 222.275 320.89 203.126 323.39 179.441C324.912 165.123 321.157 150.845 313.348 141.25C307.962 134.634 301.413 130.939 293.929 130.199C292.697 130.081 290.024 130.001 290.024 130.001C273.063 130.738 260.438 148.501 257.909 172.457C256.254 188.003 258.436 203.115 266.296 212.767C271.169 218.749 277.366 222.266 284.22 222.939Z" fill="white"/>
<path d="M338.586 502H163.415C158.661 501.995 154.104 500.105 150.742 496.744C147.381 493.382 145.491 488.825 145.486 484.071V356.514H17.9286C13.1751 356.509 8.61763 354.619 5.2564 351.258C1.89517 347.897 0.00474638 343.339 0 338.586V163.415C0.00474638 158.661 1.89517 154.104 5.2564 150.742C8.61763 147.381 13.1751 145.491 17.9286 145.486H145.486V17.9286C145.491 13.1751 147.381 8.61763 150.742 5.2564C154.103 1.89517 158.661 0.00474638 163.414 0H338.585C343.339 0.00474638 347.896 1.89517 351.258 5.2564C354.619 8.61763 356.509 13.1751 356.514 17.9286V145.486H484.071C488.825 145.491 493.382 147.381 496.744 150.742C500.105 154.103 501.995 158.661 502 163.414V338.585C501.995 343.339 500.105 347.896 496.744 351.258C493.382 354.619 488.825 356.509 484.071 356.514H356.514V484.071C356.509 488.825 354.619 493.382 351.258 496.744C347.897 500.105 343.339 501.995 338.586 502ZM17.9286 163.414V338.585H154.45C156.828 338.585 159.108 339.53 160.789 341.211C162.47 342.892 163.414 345.172 163.414 347.55V484.071H338.585V347.55C338.585 345.172 339.53 342.892 341.211 341.211C342.892 339.53 345.172 338.586 347.55 338.586H484.071V163.415H347.55C345.172 163.415 342.892 162.47 341.211 160.789C339.53 159.108 338.586 156.828 338.586 154.45V17.9286H163.415V154.45C163.415 156.828 162.47 159.108 160.789 160.789C159.108 162.47 156.828 163.414 154.45 163.414H17.9286Z" fill="#11A9D0"/>
</svg>
