<svg width="692" height="721" viewBox="0 0 692 721" fill="none" xmlns="http://www.w3.org/2000/svg">
<path d="M14.7676 356.185C14.7514 416.763 30.0619 475.913 59.1746 528.049L11.9834 706.18L188.314 658.382C237.084 685.831 291.728 700.213 347.257 700.217H347.403C530.716 700.217 679.936 546.004 680.015 356.456C680.05 264.607 645.482 178.238 582.678 113.258C519.884 48.2846 436.371 12.4833 347.39 12.4414C164.056 12.4414 14.846 166.646 14.7703 356.185" fill="url(#paint0_linear_578_621)"/>
<path d="M49.3666 534.227L49.4184 534.032L49.3199 533.855C19.2113 479.928 3.37345 418.747 3.39234 356.074C3.46793 159.998 157.819 0.5 347.449 0.5C439.479 0.539065 525.85 37.5718 590.814 104.775C655.77 171.987 691.532 261.336 691.5 356.358C691.419 552.431 537.046 711.951 347.449 711.951H347.3C289.729 711.929 233.151 696.995 182.898 668.669L182.72 668.569L182.522 668.622L0.705137 717.907L49.3666 534.227ZM104.422 513.866L104.846 513.608L104.422 513.867L111.131 524.877L82.2431 633.885L82.0212 634.723L82.8572 634.496L191.039 605.173L201.316 611.474C245.353 638.487 295.848 652.781 347.335 652.809H347.449C505.581 652.809 634.256 519.786 634.326 356.336C634.345 277.117 604.543 202.628 550.381 146.591C496.215 90.5595 424.194 59.6728 347.557 59.6392C189.3 59.6392 60.6286 192.646 60.569 356.096C60.5473 412.108 75.7039 466.659 104.422 513.866Z" fill="url(#paint1_linear_578_621)" stroke="black"/>
<path d="M261.333 207.213C254.883 192.393 248.096 192.094 241.962 191.834C236.94 191.61 231.198 191.627 225.462 191.627C219.721 191.627 210.392 193.86 202.507 202.761C194.614 211.67 172.373 233.199 172.373 276.987C172.373 320.778 203.224 363.097 207.524 369.041C211.831 374.974 267.082 467.709 354.588 503.384C427.313 533.032 442.112 527.135 457.896 525.649C473.682 524.167 508.834 504.125 516.005 483.342C523.182 462.561 523.182 444.749 521.03 441.026C518.879 437.318 513.137 435.09 504.528 430.642C495.915 426.19 453.59 404.658 445.7 401.687C437.806 398.719 432.068 397.238 426.326 406.15C420.585 415.048 404.098 435.09 399.073 441.026C394.054 446.976 389.028 447.716 380.422 443.265C371.807 438.799 344.081 429.412 311.187 399.094C285.593 375.502 268.315 346.368 263.293 337.456C258.27 328.559 262.755 323.735 267.072 319.3C270.94 315.312 275.684 308.907 279.993 303.712C284.285 298.514 285.718 294.806 288.589 288.87C291.462 282.929 290.024 277.731 287.875 273.279C285.718 268.827 268.988 224.81 261.333 207.213Z" fill="white"/>
<defs>
<linearGradient id="paint0_linear_578_621" x1="33413.6" y1="69386.3" x2="33413.6" y2="12.4414" gradientUnits="userSpaceOnUse">
<stop stop-color="#1FAF38"/>
<stop offset="1" stop-color="#60D669"/>
</linearGradient>
<linearGradient id="paint1_linear_578_621" x1="34600" y1="71861.6" x2="34600" y2="0" gradientUnits="userSpaceOnUse">
<stop stop-color="#F9F9F9"/>
<stop offset="1" stop-color="white"/>
</linearGradient>
</defs>
</svg>
